<?xml version="1.0" standalone="no"?>
<!DOCTYPE svg PUBLIC "-//W3C//DTD SVG 20010904//EN"
 "http://www.w3.org/TR/2001/REC-SVG-20010904/DTD/svg10.dtd">
<svg version="1.0" xmlns="http://www.w3.org/2000/svg"
 width="378.000000pt" height="378.000000pt" viewBox="0 0 378.000000 378.000000"
 preserveAspectRatio="xMidYMid meet">
<metadata>
Created by potrace 1.11, written by Peter Selinger 2001-2013
</metadata>
<g transform="translate(0.000000,378.000000) scale(0.100000,-0.100000)"
fill="#000000" stroke="none">
<path d="M1749 3715 c-3 -2 -31 -6 -64 -8 -126 -10 -338 -64 -485 -124 -161
-66 -364 -189 -485 -292 -77 -67 -225 -223 -282 -299 -84 -112 -209 -327 -228
-392 -1 -3 -8 -21 -16 -40 -32 -71 -82 -244 -95 -324 -3 -21 -8 -48 -10 -60
-20 -93 -26 -405 -10 -516 6 -46 38 -209 50 -260 30 -122 113 -315 192 -445
70 -116 78 -129 84 -135 3 -3 25 -32 50 -65 60 -80 229 -249 310 -310 36 -27
67 -52 70 -55 21 -27 242 -147 385 -210 66 -29 253 -83 330 -96 22 -3 43 -8
46 -10 29 -17 421 -26 529 -11 45 6 191 35 260 51 110 26 319 116 445 190 144
86 223 147 360 281 250 245 431 570 501 900 16 79 33 189 29 196 -3 4 -2 10 3
13 13 8 11 322 -4 421 -22 152 -66 340 -94 400 -5 11 -27 61 -48 111 -37 88
-141 271 -185 327 -97 123 -131 163 -211 242 -255 251 -586 425 -931 490 -44
8 -93 17 -110 21 -34 6 -381 15 -386 9z m351 -579 c14 -3 50 -11 80 -17 344
-71 668 -321 839 -649 42 -80 95 -214 106 -270 2 -8 8 -37 14 -64 24 -102 32
-307 17 -403 -4 -23 -8 -55 -10 -70 -2 -16 -9 -48 -16 -73 -7 -25 -13 -49 -14
-55 -7 -37 -53 -153 -85 -216 -59 -117 -127 -214 -212 -303 -280 -296 -670
-439 -1074 -392 -33 4 -67 9 -75 11 -8 2 -26 6 -40 9 -134 22 -378 132 -484
216 -91 74 -151 128 -197 181 -146 167 -247 369 -295 589 -19 86 -26 349 -12
435 59 361 227 633 533 863 60 45 208 119 306 152 155 54 253 68 434 65 88 -1
171 -5 185 -9z"/>
</g>
</svg>
