<?xml version="1.0" standalone="no"?>
<!DOCTYPE svg PUBLIC "-//W3C//DTD SVG 20010904//EN"
 "http://www.w3.org/TR/2001/REC-SVG-20010904/DTD/svg10.dtd">
<svg version="1.0" xmlns="http://www.w3.org/2000/svg"
 width="431.000000pt" height="431.000000pt" viewBox="0 0 431.000000 431.000000"
 preserveAspectRatio="xMidYMid meet">
<metadata>
Created by potrace 1.11, written by Peter Selinger 2001-2013
</metadata>
<g transform="translate(0.000000,431.000000) scale(0.100000,-0.100000)"
fill="#000000" stroke="none">
<path d="M702 3907 c-42 -42 -52 -59 -52 -86 0 -30 -2 -33 -25 -27 -14 3 -35
8 -47 11 -18 5 -35 -6 -75 -45 l-53 -51 0 -999 0 -999 53 -15 c28 -8 73 -20
99 -26 l47 -12 3 -102 3 -101 80 -21 c44 -12 116 -31 160 -43 44 -12 97 -26
117 -32 l37 -10 3 -101 3 -102 98 -25 97 -25 0 -101 0 -100 98 -26 97 -25 3
-102 3 -101 37 -10 c20 -5 64 -17 97 -25 l60 -15 39 37 c60 55 65 64 66 101 0
30 2 33 23 27 73 -21 75 -21 127 30 42 41 50 54 50 86 l0 37 47 -14 48 -15 52
52 c43 42 53 59 53 85 0 18 4 33 9 33 8 0 219 -56 980 -261 162 -43 298 -79
302 -79 4 0 30 22 58 49 43 41 51 55 51 85 0 20 1 36 3 36 1 0 23 -7 48 -14
l46 -14 52 52 51 52 0 1000 0 1000 -97 25 -98 25 -3 102 c-2 85 -5 102 -20
106 -15 5 -273 74 -962 257 -124 33 -400 108 -615 165 -214 58 -442 119 -505
136 -159 42 -660 177 -680 183 -10 3 -35 -14 -68 -48z"/>
</g>
</svg>
