<?xml version="1.0" standalone="no"?>
<!DOCTYPE svg PUBLIC "-//W3C//DTD SVG 20010904//EN"
 "http://www.w3.org/TR/2001/REC-SVG-20010904/DTD/svg10.dtd">
<svg version="1.0" xmlns="http://www.w3.org/2000/svg"
 width="300.000000pt" height="300.000000pt" viewBox="0 0 300.000000 300.000000"
 preserveAspectRatio="xMidYMid meet">
<metadata>
Created by potrace 1.10, written by Peter Selinger 2001-2011
</metadata>
<g transform="translate(0.000000,300.000000) scale(0.050000,-0.050000)"
fill="#3cb371" stroke="none">
<path d="M2861 5849 c-323 -467 -501 -1119 -538 -1975 l-13 -297 -80 106
c-344 453 -975 925 -1588 1186 l-168 72 14 -145 c55 -598 367 -1477 693 -1958
100 -147 102 -145 -82 -104 -289 66 -937 37 -1084 -48 -46 -26 190 -370 397
-574 223 -221 754 -551 890 -552 70 0 48 -29 -98 -127 -180 -120 -614 -531
-588 -557 87 -87 1020 -148 1358 -89 245 43 541 139 727 235 186 96 179 97
179 -10 0 -371 210 -972 340 -972 133 0 141 66 40 340 -60 162 -120 415 -150
628 l-13 98 88 -52 c403 -236 959 -332 1616 -276 242 20 537 75 545 102 8 26
-511 500 -622 569 -138 85 -138 88 6 141 469 169 925 555 1179 995 41 72 48
97 28 104 -262 90 -810 113 -1083 45 -187 -47 -185 -48 -97 81 322 475 596
1210 693 1860 42 288 50 270 -95 212 -601 -241 -1259 -723 -1605 -1174 -132
-173 -130 -175 -130 142 -1 761 -196 1508 -521 1986 -122 181 -119 181 -238 8z
m214 -468 c326 -844 403 -1825 214 -2724 -40 -194 -30 -189 79 36 224 464 664
999 1132 1379 218 176 682 488 726 488 15 0 -54 -245 -148 -524 -218 -650
-546 -1210 -968 -1652 l-199 -209 99 50 c416 211 993 340 1363 305 183 -17
184 -14 -28 -225 -368 -369 -875 -626 -1400 -711 -146 -23 -195 -54 -87 -54
209 0 1009 -403 1011 -510 1 -30 -650 -37 -829 -9 -282 44 -728 219 -958 376
l-113 77 -67 -55 c-295 -246 -884 -419 -1430 -419 -407 0 -433 5 -356 69 291
240 779 471 996 471 98 0 25 33 -132 59 -521 88 -1001 336 -1370 708 l-200
201 140 19 c350 45 1074 -113 1405 -307 95 -56 82 -37 -94 146 -502 519 -855
1163 -1082 1972 -72 255 -81 248 136 114 723 -447 1341 -1096 1665 -1747 116
-233 129 -245 90 -80 -199 858 -118 1918 213 2770 98 251 89 252 192 -14z"/>
</g>
</svg>
