<?xml version="1.0" standalone="no"?>
<!DOCTYPE svg PUBLIC "-//W3C//DTD SVG 20010904//EN"
 "http://www.w3.org/TR/2001/REC-SVG-20010904/DTD/svg10.dtd">
<svg version="1.0" xmlns="http://www.w3.org/2000/svg"
 width="900.000000pt" height="306.000000pt" viewBox="0 0 900.000000 306.000000"
 preserveAspectRatio="xMidYMid meet">
<metadata>
Created by potrace 1.10, written by Peter Selinger 2001-2011
</metadata>
<g transform="translate(0.000000,306.000000) scale(0.100000,-0.100000)"
fill="#000000" stroke="none">
<path d="M1201 2706 c-8 -10 -10 -233 -9 -822 l3 -809 120 0 120 0 3 814 c2
645 0 816 -10 823 -23 14 -214 10 -227 -6z"/>
<path d="M1935 2708 c-3 -7 -4 -377 -3 -823 l3 -810 120 0 120 0 3 809 c1 589
-1 812 -9 822 -16 19 -227 20 -234 2z"/>
<path d="M2622 2708 c-9 -9 -12 -194 -12 -820 l0 -808 23 -5 c12 -3 67 -5 122
-3 l100 3 0 820 0 820 -110 3 c-77 2 -114 -1 -123 -10z"/>
<path d="M3428 2637 c-49 -46 -88 -88 -88 -94 0 -6 48 -71 106 -145 58 -73
151 -191 207 -263 56 -71 109 -139 119 -150 17 -21 65 -81 177 -227 36 -46 68
-85 71 -88 6 -5 95 -117 245 -310 132 -169 162 -206 199 -247 21 -24 47 -43
57 -43 18 0 62 50 194 220 71 91 133 169 235 299 42 53 116 147 165 210 50 63
106 133 125 156 19 23 62 77 95 119 33 43 80 104 105 135 25 31 83 106 130
166 47 60 93 117 103 127 30 32 20 54 -65 137 -96 93 -87 94 -180 -27 -35 -44
-92 -118 -127 -164 -36 -46 -68 -85 -71 -88 -4 -3 -47 -57 -95 -120 -49 -63
-92 -117 -95 -120 -3 -3 -35 -42 -71 -88 -90 -117 -156 -201 -189 -242 -15
-19 -76 -96 -136 -170 -76 -96 -113 -135 -128 -135 -14 0 -44 30 -98 100 -43
55 -106 135 -141 178 -34 43 -91 116 -127 161 -58 75 -184 234 -325 411 -27
35 -79 101 -115 147 -63 82 -190 238 -193 238 -1 0 -41 -37 -89 -83z"/>
<path d="M6181 2706 c-8 -10 -10 -233 -9 -822 l3 -809 120 0 120 0 3 814 c2
645 0 816 -10 823 -23 14 -214 10 -227 -6z"/>
<path d="M6915 2708 c-3 -7 -4 -377 -3 -823 l3 -810 114 -3 c85 -2 117 1 123
10 4 7 8 373 8 814 0 609 -3 803 -12 812 -17 17 -227 17 -233 0z"/>
<path d="M7602 2708 c-9 -9 -12 -204 -12 -814 0 -673 2 -803 14 -813 9 -8 51
-11 122 -9 l109 3 3 814 c2 645 0 816 -10 823 -21 13 -212 10 -226 -4z"/>
<path d="M5465 741 c-62 -29 -95 -98 -95 -204 0 -130 60 -217 150 -217 83 0
134 53 152 157 23 134 -22 245 -110 271 -50 15 -49 15 -97 -7z m108 -71 c46
-54 47 -213 3 -265 -28 -33 -75 -34 -104 -2 -46 48 -42 230 5 273 35 32 66 30
96 -6z"/>
<path d="M2335 739 c-3 -8 -4 -104 -3 -214 l3 -200 80 -3 c67 -2 87 1 125 20
55 28 72 59 66 118 -3 33 -11 50 -31 66 l-27 21 21 39 c29 53 27 87 -7 125
-27 30 -32 32 -125 37 -77 4 -98 2 -102 -9z m149 -51 c71 -32 25 -128 -56
-116 -20 3 -23 9 -26 51 -5 72 22 93 82 65z m31 -184 c20 -13 25 -25 25 -55 0
-50 -30 -72 -92 -67 l-43 3 -3 54 c-2 29 -1 60 2 67 7 19 81 18 111 -2z"/>
<path d="M2875 738 c-3 -7 -4 -103 -3 -213 l3 -200 90 0 c89 0 90 0 90 25 0
23 -4 25 -60 30 l-60 5 -5 180 c-5 177 -5 180 -28 183 -12 2 -24 -3 -27 -10z"/>
<path d="M3314 738 c-5 -7 -7 -101 -4 -213 l5 -200 90 -3 c114 -4 137 2 133
31 -3 20 -9 22 -78 25 -41 2 -77 8 -81 14 -7 12 -2 115 7 129 3 5 27 9 54 9
51 0 64 8 54 34 -4 10 -22 16 -57 18 -46 3 -53 6 -61 31 -6 17 -6 37 0 55 9
25 14 27 79 32 62 4 70 7 70 25 0 18 -8 20 -101 23 -74 2 -103 -1 -110 -10z"/>
<path d="M3792 738 c-8 -8 -12 -68 -12 -204 0 -202 4 -220 47 -212 16 3 18 17
21 126 2 105 5 123 18 120 13 -3 56 -65 81 -118 4 -8 22 -41 41 -73 27 -46 38
-58 55 -55 22 3 22 5 22 213 l0 210 -25 0 -25 0 -3 -125 c-3 -149 -7 -167 -30
-123 -27 52 -68 125 -91 163 -11 19 -25 45 -30 56 -14 32 -48 43 -69 22z"/>
<path d="M4373 739 c-18 -18 -18 -390 -1 -407 19 -19 118 -14 163 8 90 43 108
77 108 200 0 110 -14 147 -72 182 -42 26 -178 38 -198 17z m129 -51 c57 -17
78 -57 78 -148 0 -107 -44 -167 -116 -158 l-29 3 -3 145 c-1 79 0 150 2 157 7
16 18 16 68 1z"/>
<path d="M5937 744 c-4 -4 -7 -83 -7 -176 l0 -168 41 -40 c37 -36 47 -40 91
-40 55 0 93 18 123 58 18 24 20 43 20 191 0 140 -2 165 -16 174 -9 6 -24 7
-33 4 -14 -6 -16 -27 -16 -164 0 -185 -6 -203 -69 -203 -68 0 -75 18 -81 204
-5 153 -6 161 -25 164 -12 2 -24 0 -28 -4z"/>
<path d="M6461 741 c-24 -15 -5 -41 31 -41 62 0 63 -2 68 -197 l5 -178 25 0
25 0 3 174 c1 103 7 180 13 187 6 7 27 14 47 16 29 2 37 7 37 23 0 19 -8 20
-120 23 -66 1 -126 -2 -134 -7z"/>
</g>
</svg>
