<?xml version="1.0" standalone="no"?>
<!DOCTYPE svg PUBLIC "-//W3C//DTD SVG 20010904//EN"
 "http://www.w3.org/TR/2001/REC-SVG-20010904/DTD/svg10.dtd">
<svg version="1.0" xmlns="http://www.w3.org/2000/svg"
 width="250.000000pt" height="250.000000pt" viewBox="0 0 250.000000 250.000000"
 preserveAspectRatio="xMidYMid meet">
<metadata>
Created by potrace 1.10, written by Peter Selinger 2001-2011
</metadata>
<g transform="translate(0.000000,250.000000) scale(0.050000,-0.050000)"
fill="#000000" stroke="none">
<path d="M940 4081 c-45 -14 -259 -116 -278 -133 -4 -4 7 -29 25 -57 55 -82
43 -194 -27 -261 -33 -32 -60 -67 -60 -78 0 -11 -41 -56 -91 -101 -90 -81 -90
-81 -67 -160 12 -44 18 -118 13 -164 -6 -51 -1 -88 11 -92 12 -4 32 -38 44
-76 21 -62 32 -70 107 -75 82 -6 83 -8 151 -154 74 -161 49 -143 312 -210 121
-31 297 -148 308 -205 5 -25 23 -137 40 -250 51 -336 282 -748 474 -846 42
-21 83 -52 93 -69 24 -44 328 -185 524 -243 903 -269 1899 435 1887 1333 -3
286 -98 657 -175 687 -17 6 -31 26 -31 43 0 17 -34 69 -75 115 -41 47 -85 103
-97 125 -47 86 -435 338 -612 397 -456 153 -1002 65 -1444 -234 -170 -115
-147 -123 -246 84 -123 260 -246 383 -380 383 l-102 0 -56 130 c-61 140 -99
157 -248 111z m270 -261 c23 -26 62 -40 108 -40 129 0 268 -123 235 -209 -13
-34 -141 -95 -448 -213 -251 -95 -233 -96 -299 5 -30 45 -79 93 -109 105 l-53
23 88 116 c48 64 95 128 103 143 48 85 316 135 375 70z m2026 -328 c121 -33
424 -171 424 -194 0 -8 -29 -21 -65 -28 -36 -7 -103 -31 -150 -53 l-85 -40
-92 51 c-70 39 -110 49 -165 41 -51 -8 -134 7 -270 50 -245 76 -407 81 -381
13 6 -16 -20 -34 -68 -49 -78 -23 -264 -169 -264 -206 0 -11 19 -14 43 -6 41
13 41 12 10 -33 -47 -67 -44 -124 6 -108 35 11 40 1 45 -102 6 -122 45 -168
67 -79 18 68 84 69 101 1 16 -63 44 -64 67 -3 30 80 261 72 261 -8 0 -42 -56
-150 -96 -186 -23 -20 -36 -50 -30 -66 6 -16 -1 -52 -15 -80 -18 -33 -20 -54
-7 -63 12 -8 27 -30 34 -49 7 -20 38 -41 69 -47 30 -6 80 -31 111 -56 l55 -44
-41 -94 c-23 -52 -50 -94 -61 -94 -27 0 -24 11 23 104 33 64 36 85 16 97 -37
23 -52 9 -81 -76 l-25 -75 -11 60 c-18 99 -107 95 -204 -11 -75 -82 -79 -83
-172 -70 -192 28 -181 16 -170 177 14 219 29 265 87 259 281 -27 358 -29 358
-9 0 33 -267 88 -449 93 -10 1 -26 -29 -36 -66 -17 -65 -20 -67 -91 -53 -89
17 -104 25 -104 58 0 14 -22 68 -50 120 -63 119 -71 94 83 254 l133 137 -12
139 c-13 162 -12 165 193 271 306 160 694 207 1009 123z m-1561 -47 c28 -42
27 -45 -10 -45 -57 0 -86 -43 -101 -151 l-14 -93 -54 42 c-76 61 -113 180 -65
210 170 105 196 109 244 37z m-960 -60 c5 -16 -11 -25 -42 -25 -28 0 -75 -9
-105 -21 -87 -33 -130 -6 -70 43 55 45 203 47 217 3z m665 -45 c0 -45 -21 -51
-56 -16 -39 39 -52 1 -17 -53 36 -54 44 -131 14 -131 -31 0 -81 85 -82 139 -1
49 -2 49 -19 8 -24 -60 -51 -72 -81 -36 -29 36 -34 32 91 84 128 53 150 54
150 5z m-580 -60 c0 -35 -88 -75 -195 -88 -121 -15 -147 24 -50 77 61 33 245
42 245 11z m932 -13 c28 -18 78 -35 113 -38 107 -8 156 -177 90 -307 -45 -87
-82 -79 -70 15 12 89 -19 129 -160 205 -35 20 -63 54 -69 85 -16 82 13 94 96
40z m995 3 c17 -16 56 -31 87 -32 31 -1 79 -8 106 -16 l50 -15 -60 -31 c-74
-39 -141 -111 -122 -130 8 -8 29 -4 48 10 56 40 109 61 191 74 54 9 73 20 66
41 -25 65 111 33 230 -54 28 -20 48 -15 115 29 65 43 90 50 131 35 32 -13 54
-12 62 1 8 13 26 8 49 -12 23 -21 62 -31 102 -27 92 10 344 -336 271 -373 -24
-12 -55 -47 -71 -79 -25 -52 -30 -54 -52 -24 -35 48 -110 43 -110 -7 0 -51
-21 -50 -92 4 -86 66 -90 79 -45 150 45 73 42 77 -33 43 -73 -34 -81 -99 -31
-267 24 -81 41 -164 37 -184 -4 -26 9 -38 50 -42 61 -7 62 40 1 160 -54 108
-11 137 51 34 l38 -62 55 62 56 62 38 -41 c53 -56 84 -40 91 48 4 43 17 73 32
73 160 0 152 -609 -12 -965 -73 -160 -104 -155 -122 19 -16 153 -102 317 -210
399 -92 71 -101 100 -27 91 38 -5 45 2 40 40 -10 67 -94 74 -146 11 -144 -172
-470 -198 -757 -61 l-174 84 0 95 c0 68 12 107 42 139 105 112 80 388 -35 388
-34 0 -35 -24 -2 -58 20 -21 13 -24 -39 -13 -38 8 -94 3 -134 -11 -55 -20 -76
-20 -99 -1 -17 15 -51 19 -81 12 -50 -13 -52 -11 -32 40 27 73 25 91 -10 91
-50 0 -34 40 25 62 50 19 52 23 20 46 -42 31 -6 95 57 101 37 3 126 37 188 72
49 27 135 21 167 -11z m-1548 -164 c2 -45 -38 -47 -80 -5 -31 31 -39 57 -30
96 l12 53 -40 -46 c-32 -38 -46 -43 -80 -24 -52 27 -52 0 -1 -65 22 -28 40
-75 40 -104 0 -31 9 -48 20 -41 11 7 20 35 20 62 0 48 1 48 50 16 62 -40 110
-24 110 38 0 70 22 79 73 31 52 -48 107 -25 107 45 0 46 46 50 81 6 34 -40 26
-45 -231 -145 -390 -152 -503 -174 -421 -84 19 21 29 48 22 60 -8 12 5 47 27
78 24 34 36 73 29 100 -9 33 -3 43 28 43 22 0 70 13 107 28 67 28 155 -51 157
-142z m-388 -5 c-42 -46 -147 -71 -221 -53 -90 23 -55 62 85 94 149 34 192 21
136 -41z m904 -41 c28 -22 62 -40 76 -40 26 0 49 -125 34 -183 -34 -130 -773
-308 -879 -212 -22 19 -49 35 -60 35 -25 0 -46 46 -46 99 0 26 35 49 125 81
399 145 506 187 562 220 83 49 126 49 188 0z m-915 -56 c0 -35 -51 -64 -114
-64 -89 0 -84 31 9 56 99 26 105 27 105 8z m990 -473 c61 -150 103 -191 207
-205 78 -11 83 -15 83 -77 0 -97 -23 -99 -195 -22 -85 39 -200 81 -255 95 -55
13 -124 43 -154 66 -29 23 -77 58 -105 78 -56 40 -67 74 -22 74 15 0 94 27
175 60 193 79 208 75 266 -69z m56 -355 c201 -77 214 -87 214 -155 0 -85 67
-109 259 -94 139 12 159 10 148 -17 -6 -16 -18 -30 -27 -30 -35 0 -92 -135
-98 -229 -4 -71 -29 -141 -85 -245 l-80 -145 -55 28 c-188 97 -461 507 -501
752 -38 234 -35 236 225 135z m1638 -167 c-89 -83 -167 -168 -174 -190 -7 -21
-26 -39 -43 -39 -16 0 -24 8 -18 19 6 10 -9 24 -34 32 -49 16 -74 44 -75 86 0
22 6 23 28 5 21 -18 30 -15 40 11 24 61 -82 93 -127 38 -16 -19 -19 -53 -10
-95 12 -57 10 -62 -16 -40 -25 20 -32 19 -42 -5 -6 -17 4 -39 23 -50 25 -14
-3 -20 -106 -20 -77 0 -149 6 -161 14 -55 39 -133 167 -120 199 11 30 16 28
37 -15 46 -92 124 -77 182 37 39 76 44 104 26 123 -30 30 66 9 145 -32 76 -40
215 -31 361 22 253 93 270 73 84 -100z m-856 54 c6 -10 -6 -33 -28 -53 -36
-33 -37 -38 -6 -97 110 -215 182 -245 501 -212 400 41 827 -93 841 -264 l6
-73 -138 -23 c-166 -28 -310 -7 -541 78 -591 219 -560 210 -655 185 -182 -49
-219 -23 -181 127 17 67 39 105 69 119 37 16 41 30 31 94 -16 99 59 187 101
119z m1190 -79 c29 -58 102 -323 102 -372 0 -5 -60 18 -133 51 -110 50 -342
115 -414 117 -73 1 190 243 296 272 97 27 102 25 149 -68z m-1367 -466 c9 -14
46 -18 93 -12 63 8 77 5 67 -18 -6 -15 -16 -40 -22 -55 -7 -17 6 -32 35 -40
55 -15 124 55 109 111 -7 27 2 36 39 36 73 0 232 -81 220 -111 -5 -15 1 -30
14 -35 14 -5 2 -26 -31 -53 -68 -55 -69 -73 -4 -89 61 -16 106 5 67 29 -21 13
-17 27 19 66 l46 49 117 -47 c116 -48 336 -93 365 -76 8 5 15 -5 15 -22 0 -93
-615 -265 -647 -181 -10 25 -6 31 17 23 34 -13 42 37 9 58 -32 19 -83 -33 -72
-75 6 -25 -2 -36 -29 -36 -46 0 -50 46 -7 88 36 37 22 72 -28 72 -19 0 -45 10
-58 23 -22 22 -65 -47 -65 -105 0 -11 -9 -15 -20 -8 -12 8 -9 34 10 70 25 48
10 111 -18 77 -34 -41 -50 -148 -26 -172 37 -37 88 -12 103 49 9 34 20 45 33
32 13 -13 12 -39 -2 -75 -26 -68 -80 -64 -352 29 -226 76 -220 64 -124 255 81
164 101 186 127 143z"/>
<path d="M3160 3060 c0 -11 12 -20 26 -20 15 0 52 -27 84 -60 67 -70 130 -80
130 -20 0 24 -26 57 -65 80 -68 42 -175 54 -175 20z"/>
<path d="M2870 3012 c-82 -124 -92 -302 -23 -385 95 -114 15 -249 -90 -154
-55 50 -51 -50 4 -120 50 -63 79 -68 79 -14 0 58 34 67 79 22 51 -51 124 -53
168 -4 21 23 52 34 81 28 26 -5 68 2 93 16 38 20 50 19 70 -8 60 -83 98 49 49
176 -26 69 -60 65 -60 -9 0 -53 -105 -140 -169 -140 -43 0 1 87 65 128 73 45
124 144 124 238 0 44 -115 134 -172 134 -26 0 -48 9 -48 21 0 99 -196 155
-250 71z m355 -182 c74 -30 16 -250 -66 -250 -23 0 -49 21 -63 50 -24 54 -74
64 -134 27 -67 -42 -102 -8 -102 99 l0 98 165 -4 c91 -3 181 -12 200 -20z"/>
<path d="M2930 2780 c-16 -26 12 -80 42 -80 27 0 31 8 36 63 2 27 -63 41 -78
17z"/>
<path d="M3144 2714 c8 -55 64 -58 72 -3 4 29 -6 41 -36 44 -33 2 -41 -7 -36
-41z"/>
<path d="M3421 2558 c0 -15 18 -59 39 -98 l38 -70 1 62 c1 37 -15 76 -39 98
-30 27 -40 29 -39 8z"/>
<path d="M2901 2007 c-53 -68 -52 -137 3 -176 56 -39 88 -10 53 47 -32 50 -1
115 49 106 42 -7 66 36 32 58 -49 31 -94 19 -137 -35z"/>
<path d="M2730 1448 c-32 -77 -26 -108 22 -108 16 0 51 -14 77 -31 35 -23 51
-25 62 -8 8 13 2 31 -13 41 -22 14 -21 17 7 18 40 0 47 32 10 47 -15 6 -11 10
10 11 44 2 45 34 2 51 -36 13 -60 -12 -79 -85 -10 -37 -18 -41 -42 -21 -25 21
-24 27 5 43 28 15 29 22 6 36 -21 14 -20 17 8 18 44 0 46 32 3 48 -46 18 -45
18 -78 -60z"/>
<path d="M2502 1237 c-28 -81 -28 -102 3 -92 14 5 35 -5 48 -23 21 -29 87 77
87 140 0 27 -35 21 -47 -7 -6 -15 -10 -11 -11 10 -3 58 -57 39 -80 -28z"/>
</g>
</svg>
