<?xml version="1.0" standalone="no"?>
<!DOCTYPE svg PUBLIC "-//W3C//DTD SVG 20010904//EN"
 "http://www.w3.org/TR/2001/REC-SVG-20010904/DTD/svg10.dtd">
<svg version="1.0" xmlns="http://www.w3.org/2000/svg"
 width="300.000000pt" height="97.000000pt" viewBox="0 0 300.000000 97.000000"
 preserveAspectRatio="xMidYMid meet">
<metadata>
Created by potrace 1.10, written by Peter Selinger 2001-2011
</metadata>
<g transform="translate(0.000000,97.000000) scale(0.050000,-0.050000)"
fill="#000000" stroke="none">
<path d="M1895 1725 c-144 -11 -114 -45 40 -46 1718 -9 3375 3 3375 26 0 23
-3105 41 -3415 20z"/>
<path d="M880 1693 c0 -28 473 -44 605 -20 138 25 28 44 -275 46 -271 2 -330
-3 -330 -26z"/>
<path d="M1406 1486 c-17 -43 3 -50 133 -49 143 2 164 -38 61 -117 -63 -48
-77 -91 -35 -105 14 -5 -10 -15 -54 -23 -57 -11 -71 -20 -50 -33 22 -14 19
-18 -16 -19 -25 0 -45 -9 -45 -20 0 -11 0 -27 0 -35 0 -8 29 -16 65 -17 36 -1
124 -6 195 -10 123 -8 130 -5 136 38 7 44 3 45 -117 35 -111 -9 -122 -7 -108
24 9 19 16 55 17 80 1 28 12 42 28 36 14 -6 41 9 60 32 18 24 50 57 69 74 38
35 47 83 15 83 -11 0 -20 11 -20 25 0 38 -320 39 -334 1z"/>
<path d="M2305 1504 c-25 -4 -45 -16 -45 -27 0 -10 9 -14 20 -7 32 20 23 -43
-10 -70 -34 -28 -40 -91 -10 -110 12 -7 12 -25 1 -46 -10 -19 -23 -50 -29 -69
-14 -46 -137 -47 -182 -2 -26 26 -31 62 -24 180 8 142 6 147 -38 147 -61 0
-74 -51 -57 -230 17 -186 50 -215 233 -206 164 8 197 50 205 262 5 171 0 187
-64 178z"/>
<path d="M2515 1506 c-4 -9 -8 -110 -7 -226 l2 -210 50 0 c48 0 50 5 43 105
-4 58 0 105 8 105 21 0 86 -79 100 -122 22 -72 98 -46 141 47 21 47 54 88 75
92 31 6 33 0 15 -34 -50 -92 -16 -203 62 -203 33 0 36 22 36 230 0 140 -8 230
-20 230 -11 0 -20 -10 -20 -22 0 -12 -12 -18 -27 -12 -41 16 -61 -6 -121 -129
-56 -116 -112 -166 -112 -101 0 43 -115 244 -139 244 -10 0 -31 5 -47 11 -17
7 -34 4 -39 -5z"/>
<path d="M3225 1499 c-51 -20 -56 -39 -20 -77 20 -22 20 -29 0 -36 -17 -6 -25
-59 -25 -168 0 -151 7 -168 63 -161 7 1 78 5 159 10 183 10 317 151 178 187
-26 7 -40 27 -40 60 0 30 8 43 22 35 12 -8 30 -2 40 13 68 107 -144 192 -287
115 -21 -11 -44 -15 -50 -9 -6 7 -1 12 12 12 13 0 23 9 23 20 0 24 -15 24 -75
-1z m272 -92 c11 -21 8 -51 -9 -84 -23 -44 -22 -56 3 -84 56 -62 8 -114 -101
-107 -61 3 -180 44 -136 47 13 0 29 19 36 41 7 22 26 40 41 40 16 0 29 14 29
30 0 17 -18 30 -40 30 -52 0 -57 96 -5 112 19 6 49 18 65 27 35 19 91 -6 117
-52z"/>
<path d="M3843 1419 c-25 -56 -41 -115 -35 -130 6 -16 0 -29 -14 -29 -29 0
-119 -176 -103 -202 23 -36 72 -16 105 42 30 52 45 60 120 60 99 0 116 58 24
80 -84 20 -38 180 51 180 42 0 35 55 -10 79 -67 37 -90 23 -138 -80z"/>
<path d="M4280 1476 c0 -21 13 -42 30 -49 16 -6 25 -19 19 -29 -7 -10 -20 -13
-30 -7 -11 6 -19 -29 -19 -81 0 -52 8 -87 19 -81 32 20 42 -23 11 -49 -44 -36
-40 -124 5 -117 19 3 46 -1 60 -10 19 -11 25 10 25 85 0 55 8 105 18 111 30
19 122 -26 122 -59 0 -16 9 -30 20 -30 11 0 20 -13 20 -29 0 -47 59 -91 121
-91 75 0 74 7 -15 116 l-73 89 53 39 c73 53 73 138 0 195 -75 60 -386 57 -386
-3z m340 -80 c0 -53 -82 -119 -114 -93 -15 13 -37 12 -65 -2 -38 -21 -68 106
-33 141 31 30 212 -9 212 -46z"/>
<path d="M3971 1362 c-6 -9 3 -29 19 -42 17 -14 30 -50 30 -81 0 -86 76 -202
128 -195 43 6 51 97 10 113 -10 3 -18 22 -18 42 0 20 -18 58 -40 86 -22 28
-40 61 -40 73 0 26 -73 30 -89 4z"/>
<path d="M2880 860 c-1325 -7 -2008 -17 -2005 -30 9 -36 4434 -16 4441 20 6
25 -26 29 -210 25 -119 -3 -1120 -9 -2226 -15z"/>
<path d="M3563 615 c-36 -18 -44 -34 -36 -75 8 -38 0 -59 -29 -77 -22 -13 -35
-32 -29 -42 6 -9 -2 -22 -18 -28 -101 -39 41 -148 150 -115 57 17 88 17 127
-1 52 -24 152 18 152 63 0 26 -54 26 -70 0 -19 -31 -70 -24 -70 10 0 16 18 41
40 55 57 35 49 55 -22 55 -47 0 -59 -7 -51 -29 18 -47 -18 -54 -57 -11 -35 38
-34 41 17 81 103 81 19 173 -104 114z m43 -215 c46 -55 43 -80 -12 -80 -55 0
-94 35 -94 84 0 49 62 46 106 -4z"/>
<path d="M5105 616 c-31 -39 -85 -176 -85 -218 0 -20 -22 -52 -50 -70 -63 -41
-47 -68 40 -68 77 0 112 36 62 64 -46 26 -21 56 48 56 74 0 94 -31 38 -61 -56
-30 -29 -51 87 -68 118 -17 147 23 67 93 -29 25 -73 99 -98 165 -47 124 -74
150 -109 107z m40 -135 c13 -46 1 -62 -35 -48 -14 5 -21 27 -15 48 13 50 37
50 50 0z"/>
<path d="M910 587 c-76 -76 -91 -210 -31 -282 56 -67 188 -63 234 6 43 67 9
107 -43 49 -80 -89 -160 -16 -132 121 17 84 68 99 132 39 54 -50 79 -27 51 48
-24 63 -155 75 -211 19z"/>
<path d="M1301 581 c-87 -87 -74 -275 21 -308 161 -57 287 154 177 294 -51 65
-141 71 -198 14z m138 -40 c54 -100 -19 -279 -90 -220 -59 48 -25 259 41 259
16 0 38 -17 49 -39z"/>
<path d="M1673 604 c-6 -9 -2 -29 8 -45 36 -58 23 -216 -21 -239 -66 -35 -45
-60 50 -60 67 0 90 8 90 30 0 17 -9 30 -20 30 -11 0 -20 23 -20 50 0 57 49 69
69 17 18 -48 56 -4 48 56 -6 38 -17 46 -62 41 -47 -5 -55 2 -55 45 0 59 34 65
118 22 66 -34 89 -22 61 32 -21 39 -244 57 -266 21z"/>
<path d="M2052 585 c39 -87 33 -241 -10 -264 -68 -36 -48 -61 48 -61 85 0 115
22 70 50 -28 17 -25 110 3 110 12 0 35 -16 49 -35 24 -31 27 -28 27 31 1 58
-5 66 -44 60 -36 -5 -46 5 -51 49 -7 62 21 70 105 32 60 -28 87 -11 51 33 -39
47 -270 43 -248 -5z"/>
<path d="M2420 604 c0 -9 9 -25 21 -37 30 -30 1 -247 -34 -247 -15 0 -27 -15
-27 -32 0 -51 273 -31 312 22 52 70 14 100 -51 40 -61 -54 -130 -47 -137 15
-7 58 61 83 83 30 9 -23 52 14 52 45 0 42 -37 62 -77 41 -34 -18 -45 -17 -54
8 -31 81 44 118 125 62 49 -35 67 -24 52 30 -10 40 -265 62 -265 23z"/>
<path d="M2820 604 c0 -9 9 -25 19 -35 33 -33 31 -181 -4 -234 -42 -65 -30
-75 94 -75 107 0 191 40 191 91 0 36 -19 36 -69 -2 -50 -37 -131 -38 -131 -1
0 16 -5 43 -12 60 -9 23 -1 32 28 32 22 0 45 -14 52 -31 17 -45 52 -16 52 44
0 41 -7 48 -35 38 -65 -26 -75 -21 -82 37 -6 53 -2 56 45 45 170 -42 158 -42
133 4 -23 44 -281 68 -281 27z"/>
<path d="M4164 570 c-27 -58 13 -72 56 -20 45 54 60 32 60 -89 0 -100 -7 -123
-41 -141 -57 -31 -29 -60 57 -60 103 1 143 28 86 59 -37 20 -42 38 -38 133 6
131 22 148 87 87 47 -44 49 -44 49 -6 0 102 -272 134 -316 37z"/>
<path d="M4560 601 c0 -12 9 -21 20 -21 33 0 24 -231 -10 -260 -50 -41 -17
-56 118 -52 135 4 192 32 192 94 0 49 -25 48 -70 -2 -77 -85 -191 -33 -129 60
17 26 23 25 48 -7 34 -45 71 -27 71 35 0 65 -18 74 -72 39 -43 -28 -49 -28
-60 1 -31 81 46 121 123 63 55 -42 73 -38 65 14 -7 49 -296 84 -296 36z"/>
</g>
</svg>
