<?xml version="1.0" standalone="no"?>
<!DOCTYPE svg PUBLIC "-//W3C//DTD SVG 20010904//EN"
 "http://www.w3.org/TR/2001/REC-SVG-20010904/DTD/svg10.dtd">
<svg version="1.0" xmlns="http://www.w3.org/2000/svg"
 width="900.000000pt" height="900.000000pt" viewBox="0 0 900.000000 900.000000"
 preserveAspectRatio="xMidYMid meet">
<metadata>
Created by potrace 1.10, written by Peter Selinger 2001-2011
</metadata>
<g transform="translate(0.000000,900.000000) scale(0.100000,-0.100000)"
fill="#000000" stroke="none">
<path d="M6280 5740 l-105 -5 0 -815 0 -815 118 -3 c90 -2 117 0 117 10 0 7 0
366 0 798 1 432 1 795 0 806 0 29 -7 30 -130 24z"/>
<path d="M7694 5742 l-101 -3 -7 -117 c-9 -157 -6 -1496 3 -1511 5 -8 42 -11
122 -9 l114 3 3 812 c2 766 1 813 -15 820 -10 4 -63 7 -119 5z"/>
<path d="M1205 5718 c-3 -13 -4 -381 -3 -818 l3 -795 120 0 120 0 0 815 0 815
-117 3 c-115 3 -118 2 -123 -20z"/>
<path d="M1936 5718 c-9 -35 -7 -1591 2 -1606 6 -9 38 -12 123 -10 l114 3 0
815 0 815 -116 3 c-114 3 -117 2 -123 -20z"/>
<path d="M2625 5728 c-3 -7 -4 -375 -3 -818 l3 -805 120 0 120 0 3 795 c1 437
0 805 -3 818 -5 21 -9 22 -121 22 -82 0 -116 -4 -119 -12z"/>
<path d="M3427 5662 c-42 -42 -77 -85 -77 -95 0 -18 36 -66 195 -267 79 -99
189 -239 276 -350 27 -36 58 -74 67 -85 10 -11 56 -69 102 -128 47 -60 117
-148 155 -197 39 -49 92 -117 119 -152 203 -259 228 -288 255 -287 21 0 45 25
136 141 61 77 115 146 120 152 6 6 40 48 75 94 86 110 176 225 280 356 135
170 220 278 290 368 35 46 111 140 167 211 57 70 103 135 103 145 0 15 -35 52
-138 145 -32 29 -33 29 -54 11 -11 -11 -48 -55 -81 -99 -34 -44 -101 -129
-150 -190 -115 -144 -107 -133 -146 -185 -19 -25 -68 -87 -108 -137 -40 -51
-106 -135 -146 -185 -304 -387 -338 -428 -351 -428 -7 0 -26 19 -43 43 -17 23
-43 56 -56 72 -14 17 -71 89 -128 160 -156 198 -247 313 -309 390 -31 39 -87
111 -125 160 -38 50 -77 99 -86 110 -35 42 -146 183 -192 243 -27 34 -54 62
-60 62 -7 0 -47 -35 -90 -78z"/>
<path d="M6905 5728 c-3 -7 -4 -375 -3 -818 l3 -805 120 0 120 0 0 815 0 815
-118 3 c-88 2 -119 -1 -122 -10z"/>
<path d="M2350 3771 c-13 -8 -15 -40 -13 -205 1 -108 4 -200 8 -206 3 -5 43
-10 88 -10 102 0 153 24 173 82 16 48 2 102 -32 124 l-24 17 20 34 c30 51 27
103 -8 137 -26 24 -39 27 -113 32 -46 3 -91 1 -99 -5z m151 -62 c21 -11 28
-39 18 -67 -10 -25 -69 -55 -92 -46 -21 8 -28 83 -10 112 14 23 41 23 84 1z
m8 -174 c33 -16 45 -52 32 -88 -11 -29 -29 -37 -87 -37 -28 0 -44 5 -45 13 -3
32 0 99 5 112 7 19 58 19 95 0z"/>
<path d="M2882 3772 c-9 -7 -12 -56 -10 -213 l3 -204 75 -3 c93 -4 120 2 120
28 0 22 -18 28 -90 32 l-45 3 -5 180 c-4 149 -8 180 -20 182 -8 2 -21 -1 -28
-5z"/>
<path d="M3321 3767 c-8 -10 -11 -72 -9 -213 l3 -199 110 0 110 0 0 25 c0 24
-2 25 -77 28 l-78 3 0 69 c0 74 5 80 55 73 17 -3 38 2 50 10 29 22 4 45 -53
49 l-47 3 -3 53 c-2 37 1 52 10 53 7 0 40 1 73 2 57 2 60 3 60 27 0 25 -1 25
-96 28 -73 2 -99 -1 -108 -11z"/>
<path d="M3801 3771 c-9 -6 -12 -62 -12 -205 0 -108 3 -201 6 -206 9 -15 41
-12 55 5 9 11 11 42 7 114 -5 96 2 136 21 116 5 -6 22 -32 37 -60 86 -157 106
-186 128 -183 22 3 22 6 25 207 1 115 -2 209 -7 214 -5 5 -18 6 -30 2 -20 -6
-21 -13 -21 -135 0 -130 -9 -163 -29 -112 -6 15 -21 43 -32 62 -12 19 -33 57
-48 83 -14 26 -31 58 -38 70 -14 25 -44 38 -62 28z"/>
<path d="M4373 3769 c-10 -9 -13 -64 -13 -200 0 -103 3 -194 6 -203 5 -12 21
-16 71 -16 84 0 144 27 180 80 24 37 26 49 26 138 -1 110 -16 149 -73 183 -41
25 -179 38 -197 18z m189 -99 c12 -24 18 -56 18 -103 0 -105 -37 -157 -112
-157 l-38 0 0 148 c0 92 4 152 11 159 7 7 24 7 56 -1 37 -9 50 -19 65 -46z"/>
<path d="M5458 3768 c-57 -27 -94 -114 -91 -213 2 -76 22 -129 63 -172 30 -30
38 -33 89 -33 86 1 131 47 150 154 16 86 -2 182 -43 230 -27 33 -37 38 -86 42
-33 2 -66 -1 -82 -8z m113 -69 c23 -24 29 -41 31 -78 5 -156 -16 -211 -81
-211 -45 1 -64 25 -80 101 -11 53 -7 99 15 172 6 18 49 46 72 47 8 0 27 -14
43 -31z"/>
<path d="M5937 3773 c-4 -3 -7 -84 -7 -178 l0 -172 37 -36 c33 -34 41 -37 91
-37 61 0 101 19 126 60 23 40 24 355 1 364 -8 3 -22 3 -30 0 -12 -5 -15 -33
-15 -160 0 -186 -7 -204 -76 -204 -68 0 -74 15 -74 201 0 134 -2 158 -16 163
-20 8 -29 8 -37 -1z"/>
<path d="M6463 3774 c-7 -3 -13 -14 -13 -25 0 -18 15 -25 70 -31 l25 -3 5
-180 5 -180 30 0 30 0 5 180 5 180 40 5 c35 4 40 8 40 30 l0 25 -115 2 c-63 1
-121 -1 -127 -3z"/>
</g>
</svg>
