<?xml version="1.0" standalone="no"?>
<!DOCTYPE svg PUBLIC "-//W3C//DTD SVG 20010904//EN"
 "http://www.w3.org/TR/2001/REC-SVG-20010904/DTD/svg10.dtd">
<svg version="1.0" xmlns="http://www.w3.org/2000/svg"
 width="300.000000pt" height="300.000000pt" viewBox="0 0 300.000000 300.000000"
 preserveAspectRatio="xMidYMid meet">
<metadata>
Created by potrace 1.10, written by Peter Selinger 2001-2011
</metadata>
<g transform="translate(0.000000,300.000000) scale(0.050000,-0.050000)"
fill="#000000" stroke="none">
<path d="M3765 3920 c-96 -22 -199 -110 -265 -227 -39 -69 -88 -121 -150 -158
-156 -93 -584 -453 -694 -582 -241 -283 -467 -463 -850 -673 -90 -49 -95 -80
-15 -80 32 0 49 -11 49 -32 0 -71 181 11 360 161 245 207 647 352 779 281 28
-15 74 -32 101 -38 145 -32 158 -191 16 -192 -40 0 -79 -8 -85 -18 -11 -19 80
-16 230 8 72 11 96 8 118 -19 35 -42 1 -70 -85 -71 -35 0 -51 -8 -43 -22 8
-13 48 -16 107 -8 51 7 116 4 145 -7 37 -14 77 -12 140 7 48 15 79 28 70 29
-10 0 -6 15 8 32 22 27 18 28 -29 10 -77 -29 -183 -26 -210 6 -28 34 3 65 78
79 28 5 7 6 -46 2 -67 -4 -91 0 -81 16 9 15 2 19 -18 11 -36 -14 -115 62 -115
111 0 28 20 34 114 34 336 0 664 454 600 832 -30 177 34 285 196 331 79 22 79
22 30 43 -27 11 -99 45 -160 74 -131 64 -208 79 -295 60z"/>
</g>
</svg>
