<?xml version="1.0" standalone="no"?>
<!DOCTYPE svg PUBLIC "-//W3C//DTD SVG 20010904//EN"
 "http://www.w3.org/TR/2001/REC-SVG-20010904/DTD/svg10.dtd">
<svg version="1.0" xmlns="http://www.w3.org/2000/svg"
 width="300.000000pt" height="300.000000pt" viewBox="0 0 300.000000 300.000000"
 preserveAspectRatio="xMidYMid meet">
<metadata>
Created by potrace 1.10, written by Peter Selinger 2001-2011
</metadata>
<g transform="translate(0.000000,300.000000) scale(0.050000,-0.050000)"
fill="#000000" stroke="none">
<path d="M1126 5263 c-58 -35 -186 -551 -147 -590 32 -31 81 36 81 111 0 104
152 83 170 -24 15 -87 41 -117 75 -83 61 61 -112 628 -179 586z m63 -278 c13
-61 11 -65 -40 -65 -52 0 -54 3 -41 83 24 148 46 143 81 -18z"/>
<path d="M3127 5255 c-75 -23 -86 -69 -87 -360 0 -182 3 -195 40 -195 35 0 40
13 40 100 0 109 37 136 74 54 32 -70 126 -174 158 -174 47 0 31 75 -32 147
-72 82 -72 79 -10 141 118 118 -21 336 -183 287z m131 -144 c25 -54 24 -61
-17 -95 -81 -65 -121 -48 -121 51 0 132 83 159 138 44z"/>
<path d="M513 5186 c-35 -209 -15 -509 32 -502 41 5 45 17 45 126 l0 120 85 6
85 6 0 -129 c0 -124 35 -189 71 -131 27 43 23 518 -4 554 -38 50 -66 -1 -67
-121 l0 -95 -89 0 -89 0 4 114 c5 142 -51 182 -73 52z"/>
<path d="M1409 5130 c-19 -184 11 -460 51 -460 25 0 30 36 30 203 0 262 10
266 79 36 57 -189 114 -256 171 -197 37 39 33 517 -4 524 -42 8 -54 -36 -61
-226 l-5 -140 -55 160 c-68 197 -73 204 -138 220 -53 13 -54 12 -68 -120z"/>
<path d="M1970 5245 c-63 -15 -69 -41 -70 -271 0 -256 17 -304 104 -286 165
33 252 170 216 343 -36 171 -123 246 -250 214z m102 -100 c82 -55 93 -242 19
-316 -95 -95 -113 -71 -108 141 5 193 19 221 89 175z"/>
<path d="M2299 5245 c0 -8 29 -139 65 -290 75 -314 104 -343 180 -185 24 50
50 90 58 90 7 0 23 -40 36 -90 42 -168 117 -99 241 223 45 116 76 218 70 229
-33 52 -70 1 -139 -192 -85 -239 -97 -249 -130 -110 -31 128 -73 131 -138 10
-59 -111 -58 -112 -116 113 -26 101 -52 191 -58 200 -13 21 -68 23 -69 2z"/>
<path d="M3530 5237 c-36 -93 -19 -547 20 -547 49 0 64 549 15 565 -14 5 -30
-4 -35 -18z"/>
<path d="M3897 5245 c-205 -9 -291 -105 -95 -105 l80 0 -14 -227 c-14 -233 -5
-266 60 -241 27 10 32 50 32 240 l0 228 56 0 c84 0 140 47 106 88 -15 18 -37
30 -49 28 -13 -2 -92 -7 -176 -11z"/>
<path d="M4370 5242 c-184 -14 -246 -85 -85 -98 l75 -6 0 -228 c0 -230 14
-276 71 -229 22 18 29 75 29 241 l0 218 55 0 c74 1 110 27 102 72 -8 43 -27
46 -247 30z"/>
<path d="M4762 5242 c-39 -25 -58 -488 -22 -532 34 -42 251 -42 267 -1 15 41
-22 60 -117 61 -78 0 -80 2 -86 75 l-6 75 81 0 c57 0 86 10 95 32 17 44 -28
66 -109 53 l-68 -11 7 88 6 88 100 10 c71 7 100 19 100 40 0 35 -201 53 -248
22z"/>
<path d="M5213 5215 c-19 -70 -15 -502 5 -533 58 -91 88 -4 75 213 -15 248 1
248 76 -1 55 -181 108 -243 164 -187 36 37 49 514 13 527 -46 18 -56 -9 -66
-191 l-10 -173 -57 165 c-69 202 -170 293 -200 180z"/>
<path d="M3029 4314 c-34 -87 2 -624 41 -624 38 0 40 11 34 250 -8 291 4 292
93 7 38 -122 76 -208 95 -215 55 -21 108 -13 108 16 0 16 5 147 11 291 9 226
6 263 -21 274 -51 19 -59 -6 -70 -210 l-10 -193 -58 169 c-72 211 -186 331
-223 235z"/>
<path d="M3690 4321 c-147 -10 -161 -15 -166 -56 -7 -48 2 -51 112 -45 l67 3
-5 -253 c-4 -198 1 -257 23 -271 62 -38 79 20 79 273 l0 248 66 0 c93 0 152
45 116 88 -15 18 -51 30 -79 28 -29 -2 -125 -8 -213 -15z"/>
<path d="M2108 4305 c-14 -9 -29 -130 -38 -312 l-14 -296 47 6 c42 6 48 18 53
122 6 124 9 126 154 140 122 11 79 86 -45 79 l-105 -7 0 91 0 90 135 6 c120 5
135 11 135 46 0 42 -268 71 -322 35z"/>
<path d="M2565 4290 c-71 -50 -50 -467 27 -552 159 -176 387 292 244 502 -56
83 -190 107 -271 50z m198 -93 c81 -81 15 -411 -79 -393 -40 8 -61 109 -63
301 -1 152 49 185 142 92z"/>
<path d="M803 3085 c-60 -153 -99 -364 -71 -387 29 -24 39 -11 52 72 12 74
104 63 127 -14 25 -87 60 -74 54 20 -7 106 -90 364 -117 364 -13 0 -33 -25
-45 -55z m72 -197 c-38 -38 -67 6 -48 72 l19 70 20 -65 c11 -36 15 -71 9 -77z"/>
<path d="M1533 3117 c-177 -103 -130 -429 60 -413 89 7 112 65 27 68 -105 3
-120 9 -131 56 -16 62 58 232 100 232 18 0 31 17 31 40 0 44 -30 50 -87 17z"/>
<path d="M3072 3108 c-28 -73 -13 -408 18 -408 22 0 30 23 30 90 0 87 2 90 60
90 58 0 60 -3 60 -90 0 -77 6 -90 41 -90 49 0 53 399 4 415 -17 6 -25 -17 -25
-73 0 -52 -9 -82 -25 -82 -14 0 -46 -6 -72 -13 -44 -12 -47 -8 -42 65 8 128
-18 178 -49 96z"/>
<path d="M3443 3113 c-31 -37 -23 -396 9 -407 15 -5 26 59 34 188 12 207 0
271 -43 219z"/>
<path d="M1136 3106 c-41 -10 -62 -126 -52 -286 l6 -110 105 3 c132 3 173 33
156 116 -8 33 -13 96 -12 139 3 124 -69 174 -203 138z m134 -106 c0 -42 -11
-51 -65 -56 -68 -7 -72 -2 -52 72 18 68 117 55 117 -16z m-2 -132 c48 -18 39
-82 -13 -95 -93 -25 -115 -16 -115 47 0 62 46 79 128 48z"/>
<path d="M1773 3107 c-19 -20 -15 -352 5 -385 54 -84 222 54 222 182 0 157
-144 285 -227 203z m136 -91 c41 -58 40 -153 -2 -199 -65 -72 -87 -47 -87 103
0 152 28 182 89 96z"/>
<path d="M2127 3096 c-25 -41 -34 -353 -11 -381 27 -33 209 -21 198 12 -4 13
-40 26 -81 29 -103 9 -110 98 -8 108 42 4 65 17 65 36 0 22 -18 29 -65 25 -53
-4 -65 2 -65 33 0 77 23 102 92 102 47 0 68 9 68 30 0 38 -170 43 -193 6z"/>
<path d="M2465 3107 c-40 -16 -35 -407 5 -407 22 0 30 22 30 78 0 80 22 102
102 102 22 0 38 14 38 32 0 25 -16 31 -71 24 -68 -8 -71 -6 -65 52 6 55 12 60
86 61 59 1 81 10 86 36 7 35 -141 50 -211 22z"/>
<path d="M2770 3073 c-44 -68 -59 -249 -26 -313 58 -108 198 -74 223 55 14 76
-55 139 -81 72 -7 -19 -4 -38 8 -42 35 -11 4 -85 -36 -85 -52 0 -84 73 -72
164 13 96 44 136 108 136 72 0 46 49 -29 56 -48 5 -70 -5 -95 -43z"/>
<path d="M3740 2951 c0 -150 -4 -170 -40 -181 -56 -18 -80 3 -80 71 0 41 -10
59 -33 59 -40 0 -26 -155 16 -183 44 -27 132 -19 166 14 44 45 46 389 1 389
-24 0 -30 -32 -30 -169z"/>
<path d="M4030 3035 l-60 -85 -6 75 c-4 46 -17 75 -33 75 -26 0 -57 -336 -36
-394 19 -53 65 1 65 76 0 98 12 98 103 -7 64 -74 76 -80 88 -49 10 27 -6 58
-61 114 l-75 77 64 81 c56 72 67 123 25 122 -8 -1 -41 -39 -74 -85z"/>
<path d="M4240 2937 c0 -103 8 -199 17 -213 25 -39 233 -24 233 16 0 23 -21
29 -94 23 l-94 -6 -6 175 c-9 255 -56 259 -56 5z"/>
<path d="M4573 3105 c-35 -59 -36 -409 -1 -402 32 6 40 31 49 157 10 146 16
150 58 35 27 -73 50 -69 110 20 l51 74 0 -119 c1 -127 21 -184 58 -161 14 8
22 67 20 147 -6 262 -33 302 -120 174 -58 -85 -61 -85 -105 -10 -37 63 -104
111 -120 85z"/>
<path d="M5040 2900 c0 -273 44 -308 60 -48 l10 158 37 -136 c72 -258 157
-231 149 48 -7 215 -40 246 -57 53 -11 -130 -15 -129 -74 35 -27 74 -48 102
-81 106 -43 7 -44 3 -44 -216z"/>
<path d="M1925 2499 c-41 -16 -45 -32 -48 -178 -2 -89 -4 -177 -5 -196 -4 -74
58 -36 64 40 8 95 23 94 80 -5 42 -74 80 -98 110 -68 7 7 -11 44 -40 81 -48
63 -49 70 -19 104 48 53 41 137 -16 194 -54 54 -60 55 -126 28z m91 -83 c34
-34 30 -89 -8 -104 -57 -22 -68 -13 -68 58 0 73 31 91 76 46z"/>
<path d="M2320 2504 c-61 -19 -100 -71 -100 -136 0 -72 16 -88 108 -107 102
-21 89 -109 -18 -117 -101 -8 -132 -36 -67 -61 116 -44 217 10 217 117 0 85
-22 109 -115 129 -97 21 -74 111 29 111 26 0 46 12 46 28 0 31 -54 50 -100 36z"/>
<path d="M2630 2502 c-130 -13 -174 -66 -65 -78 l55 -7 0 -170 c0 -151 4 -169
35 -163 29 5 36 33 41 170 l6 163 60 13 c41 10 58 24 54 47 -8 38 -26 41 -186
25z"/>
<path d="M3483 2494 c-12 -15 -37 -92 -55 -171 -39 -173 -61 -168 -79 18 -14
138 -39 188 -69 139 -26 -43 26 -389 63 -412 33 -20 96 54 119 140 13 45 37
125 54 177 34 101 14 166 -33 109z"/>
<path d="M3620 2497 c0 -73 93 -417 113 -417 13 0 43 34 68 75 l46 75 14 -66
c30 -140 75 -111 166 106 80 190 87 230 45 230 -16 0 -50 -63 -83 -159 -59
-170 -77 -183 -98 -71 -16 89 -41 89 -96 -3 l-43 -73 -41 156 c-36 137 -91
225 -91 147z"/>
<path d="M4375 2485 c-16 -19 -39 -52 -50 -73 -19 -36 -23 -34 -53 25 -65 126
-113 80 -51 -49 l41 -85 -60 -96 c-32 -52 -55 -102 -49 -111 21 -35 63 -13 87
44 37 89 57 91 91 11 16 -39 39 -71 50 -71 42 0 41 61 -2 138 l-45 80 53 81
c29 44 53 89 53 99 0 37 -35 41 -65 7z"/>
<path d="M4535 2508 c-6 -6 10 -60 37 -120 29 -67 48 -147 48 -207 0 -91 25
-142 55 -113 7 7 10 53 8 102 -4 67 9 113 48 180 50 85 55 150 12 150 -11 0
-28 -27 -40 -60 -27 -78 -48 -76 -89 10 -32 67 -54 83 -79 58z"/>
<path d="M911 2473 c-43 -31 -35 -310 11 -365 65 -79 178 30 193 186 15 158
-98 257 -204 179z m125 -57 c53 -53 2 -302 -55 -267 -20 13 -47 245 -31 271
17 27 57 25 86 -4z"/>
<path d="M1239 2481 c-44 -26 -54 -391 -12 -407 40 -16 53 3 53 74 0 52 8 62
51 65 84 5 135 65 122 144 -20 121 -120 179 -214 124z m131 -88 c39 -60 20
-113 -42 -113 -43 0 -48 9 -48 80 0 93 41 108 90 33z"/>
<path d="M1580 2470 c-33 -40 -56 -248 -35 -326 15 -58 24 -64 92 -64 41 0 86
-11 99 -24 36 -36 79 11 47 51 -18 21 -19 53 -3 123 42 189 -100 360 -200 240z
m136 -97 c33 -68 14 -176 -27 -160 -20 8 -29 -2 -29 -31 0 -24 -13 -42 -30
-42 -23 0 -30 26 -30 111 0 180 58 241 116 122z"/>
<path d="M2889 2410 c-40 -269 65 -412 214 -292 65 53 87 391 24 379 -32 -7
-37 -27 -37 -163 0 -269 -114 -283 -130 -15 -11 191 -49 239 -71 91z"/>
<path d="M4864 2466 c6 -28 23 -35 82 -29 69 6 99 -19 55 -46 -90 -56 -234
-350 -157 -321 14 6 80 17 146 25 155 20 177 79 25 68 -118 -8 -118 -3 6 156
121 157 119 169 -39 177 -112 5 -125 2 -118 -30z"/>
<path d="M1482 1542 c-33 -25 -44 -48 -35 -72 11 -29 18 -30 45 -8 29 24 31
10 18 -148 -13 -151 -11 -174 17 -174 41 0 57 90 49 278 -7 162 -21 180 -94
124z"/>
<path d="M1710 1548 c-18 -18 -29 -51 -26 -74 8 -54 56 -69 56 -18 0 41 50 73
82 53 30 -19 22 -42 -62 -173 -111 -175 -96 -210 82 -192 91 8 93 64 3 72 -78
8 -79 14 -15 109 119 175 19 361 -120 223z"/>
<path d="M3873 1539 c-107 -84 -62 -219 72 -219 71 0 77 -4 64 -45 -16 -52
-44 -74 -93 -75 -43 0 -67 -37 -41 -63 32 -32 162 34 185 93 89 234 -31 431
-187 309z m147 -89 c0 -67 -3 -70 -70 -70 -80 0 -103 79 -35 118 72 42 105 27
105 -48z"/>
<path d="M4201 1545 c-39 -32 -42 -51 -37 -215 l6 -180 67 -6 c105 -10 138 34
154 211 19 202 -68 289 -190 190z m137 -130 c-3 -149 -22 -204 -74 -211 -49
-8 -54 14 -45 186 6 122 11 130 72 130 46 0 49 -6 47 -105z"/>
<path d="M2007 1530 c-22 -57 11 -106 43 -63 31 42 100 37 100 -7 0 -17 -29
-43 -65 -59 -76 -33 -75 -68 0 -77 59 -7 105 -52 86 -83 -17 -27 -131 -28
-131 -1 0 11 -13 20 -30 20 -60 0 -36 -96 28 -110 143 -31 242 71 171 178 -24
38 -26 57 -8 97 37 81 -4 135 -102 135 -53 0 -84 -10 -92 -30z"/>
<path d="M2308 1532 c-6 -15 -8 -71 -4 -125 l6 -97 75 2 75 3 0 -88 c0 -60 8
-87 27 -87 28 0 65 364 41 403 -26 42 -48 10 -48 -73 0 -87 -2 -90 -62 -90
-56 0 -61 5 -58 65 2 36 3 76 2 90 -3 34 -41 32 -54 -3z"/>
<path d="M2640 1438 c0 -116 2 -122 43 -111 53 13 117 -18 117 -57 0 -36 -62
-70 -129 -70 -32 0 -51 -11 -51 -30 0 -35 120 -42 180 -10 91 49 64 207 -40
230 -100 22 -87 116 14 107 59 -6 77 1 82 28 6 30 -9 35 -105 35 l-111 0 0
-122z"/>
<path d="M2992 1529 c-69 -68 -93 -271 -41 -345 45 -63 157 -61 199 4 57 86
-20 230 -109 206 -24 -6 -41 -1 -41 13 1 43 30 68 95 82 36 8 65 27 65 43 0
39 -128 37 -168 -3z m107 -228 c29 -53 6 -101 -49 -101 -47 0 -70 34 -70 102
0 52 91 52 119 -1z"/>
<path d="M3260 1530 c0 -21 21 -30 69 -30 l69 0 -34 -60 c-19 -33 -43 -60 -55
-60 -12 0 -21 -29 -21 -65 0 -36 -7 -90 -15 -120 -12 -46 -8 -55 27 -55 31 0
40 13 40 61 0 36 12 65 32 72 19 8 27 27 21 52 -6 21 7 67 28 102 66 107 54
133 -61 133 -76 0 -100 -7 -100 -30z"/>
<path d="M3548 1510 c-20 -31 -29 -74 -23 -113 5 -35 -4 -88 -19 -119 -58
-116 88 -192 207 -109 46 32 63 284 24 356 -30 56 -148 47 -189 -15z m152 -68
c0 -57 -40 -86 -95 -67 -26 9 -35 89 -12 112 40 39 107 12 107 -45z m0 -183
c0 -41 -77 -72 -131 -51 -44 16 -3 87 56 97 60 9 75 0 75 -46z"/>
<path d="M2731 968 c-44 -43 -21 -69 50 -55 82 17 77 -28 -11 -99 -74 -59 -98
-154 -40 -154 17 0 30 13 30 30 0 16 32 58 70 93 78 70 89 133 33 184 -46 42
-91 42 -132 1z"/>
<path d="M2993 985 c-29 -50 -35 -305 -7 -305 42 0 54 44 54 192 0 113 -19
159 -47 113z"/>
<path d="M1787 949 c-10 -25 0 -45 29 -65 62 -41 58 -144 -8 -223 -84 -100
-46 -153 42 -58 113 123 111 277 -5 352 -40 27 -46 26 -58 -6z"/>
<path d="M2120 930 c0 -37 -13 -57 -40 -64 -22 -6 -40 -23 -40 -38 0 -16 18
-28 40 -28 22 0 40 -13 40 -30 0 -16 14 -30 30 -30 17 0 30 12 30 28 0 15 20
33 45 40 l45 13 -43 36 c-23 20 -46 53 -50 73 -12 60 -57 60 -57 0z"/>
<path d="M3273 926 c-7 -7 -13 -30 -13 -51 0 -22 -17 -43 -40 -49 -49 -13 -53
-60 -5 -72 30 -8 28 -12 -10 -24 -55 -18 -56 -34 -5 -80 39 -36 42 -36 70 2
26 35 29 35 29 3 1 -46 33 -44 85 4 35 33 38 45 17 70 -22 26 -19 31 15 31 52
0 74 32 36 54 -15 9 -31 39 -35 66 -8 59 -44 59 -53 1 -9 -52 -44 -54 -44 -2
0 42 -26 68 -47 47z"/>
<path d="M1651 861 c-18 -28 4 -61 42 -61 17 0 27 14 23 33 -7 41 -47 57 -65
28z"/>
<path d="M3755 836 c-41 -24 -75 -55 -75 -69 0 -32 101 -127 135 -127 41 0 29
34 -27 74 -47 34 -48 41 -19 65 27 22 30 22 21 -2 -15 -40 103 -152 132 -123
15 15 6 32 -29 60 l-50 39 59 35 c57 34 62 85 6 64 -15 -6 -28 -2 -28 9 0 30
-44 22 -125 -25z"/>
<path d="M4100 861 c0 -11 -13 -15 -30 -8 -55 21 -32 -46 25 -72 l55 -25 -45
-31 c-25 -16 -45 -42 -45 -57 0 -37 19 -35 63 5 34 31 37 31 37 0 0 -48 27
-41 99 26 73 69 68 86 -40 141 -86 44 -119 50 -119 21z"/>
<path d="M2405 827 c-63 -26 -23 -67 65 -67 67 0 90 8 90 30 0 17 -11 30 -25
30 -14 0 -43 4 -65 9 -22 5 -51 4 -65 -2z"/>
<path d="M1647 709 c-17 -44 25 -85 56 -54 25 25 9 85 -23 85 -12 0 -27 -14
-33 -31z"/>
<path d="M2415 726 c-19 -5 -35 -25 -35 -46 0 -38 145 -37 187 1 48 43 -48 72
-152 45z"/>
<path d="M2055 667 c-90 -25 -35 -69 80 -63 86 4 115 14 115 36 0 31 -120 47
-195 27z"/>
<path d="M2708 612 c-7 -19 -3 -45 9 -57 16 -16 25 -12 35 13 7 19 3 45 -9 57
-16 16 -25 12 -35 -13z"/>
<path d="M2963 614 c-18 -22 -17 -34 7 -54 24 -20 32 -18 42 9 18 47 -19 81
-49 45z"/>
<path d="M3493 611 c-14 -36 37 -83 57 -51 16 27 -2 80 -27 80 -10 0 -24 -13
-30 -29z"/>
<path d="M3582 557 c-28 -79 -28 -77 7 -77 32 0 71 59 71 109 0 55 -55 33 -78
-32z"/>
</g>
</svg>
