<?xml version="1.0" standalone="no"?>
<!DOCTYPE svg PUBLIC "-//W3C//DTD SVG 20010904//EN"
 "http://www.w3.org/TR/2001/REC-SVG-20010904/DTD/svg10.dtd">
<svg version="1.0" xmlns="http://www.w3.org/2000/svg"
 width="291.000000pt" height="129.000000pt" viewBox="0 0 291.000000 129.000000"
 preserveAspectRatio="xMidYMid meet">
<metadata>
Created by potrace 1.10, written by Peter Selinger 2001-2011
</metadata>
<g transform="translate(0.000000,129.000000) scale(0.100000,-0.100000)"
fill="#000000" stroke="none">
<path d="M1638 1074 l-28 -15 0 -383 c0 -358 1 -384 18 -399 10 -10 35 -17 54
-17 28 0 40 6 53 26 16 24 17 62 17 388 l0 361 -25 28 c-28 30 -49 33 -89 11z"/>
<path d="M1908 1074 l-28 -15 0 -383 c0 -358 1 -384 18 -399 10 -10 35 -17 54
-17 68 0 69 4 72 413 l3 362 -28 27 c-31 31 -51 34 -91 12z"/>
<path d="M253 1048 c-13 -6 -26 -20 -29 -32 -4 -11 -7 -175 -7 -363 0 -392 1
-393 73 -393 35 0 43 5 61 33 19 29 20 42 15 142 -4 61 -7 119 -9 130 -2 19 5
20 176 23 l177 2 0 -148 c0 -132 2 -151 18 -165 28 -25 84 -22 110 6 22 23 22
28 22 375 0 337 -1 353 -20 372 -29 29 -63 34 -99 16 l-31 -17 0 -149 0 -150
-169 0 c-123 0 -171 3 -179 13 -6 7 -6 33 -1 67 11 81 11 176 -2 203 -11 24
-48 48 -72 46 -7 0 -22 -5 -34 -11z"/>
<path d="M1113 857 c-71 -36 -117 -91 -145 -171 -22 -61 -24 -175 -4 -219 8
-18 17 -39 20 -47 26 -59 68 -101 126 -125 8 -4 31 -13 51 -22 43 -18 155 -13
211 9 21 8 56 29 78 47 33 26 40 38 40 67 0 25 -7 42 -22 55 -31 25 -38 24
-87 -12 -46 -33 -113 -46 -174 -35 -45 8 -120 78 -115 108 3 22 4 22 191 19
184 -3 189 -2 213 20 32 30 32 89 -1 163 -69 157 -235 219 -382 143z m178
-112 c33 -8 93 -69 86 -87 -4 -11 -32 -14 -136 -11 -72 1 -136 5 -140 8 -16 9
0 42 30 64 30 22 93 41 119 35 8 -2 27 -6 41 -9z"/>
<path d="M2310 875 c-14 -8 -32 -14 -40 -15 -20 0 -109 -77 -121 -104 -5 -12
-13 -28 -18 -36 -41 -70 -41 -220 0 -290 5 -8 13 -24 18 -36 12 -27 101 -104
122 -104 8 0 24 -7 35 -15 30 -23 151 -20 205 5 51 24 76 39 98 60 126 120
133 331 14 455 -34 35 -52 47 -112 75 -52 24 -163 27 -201 5z m191 -161 c39
-36 68 -98 69 -142 0 -41 -29 -98 -70 -137 -29 -27 -37 -30 -100 -30 -76 0
-94 10 -136 77 -46 72 -26 179 42 239 26 23 50 28 112 25 42 -2 59 -8 83 -32z"/>
</g>
</svg>
