<?xml version="1.0" standalone="no"?>
<!DOCTYPE svg PUBLIC "-//W3C//DTD SVG 20010904//EN"
 "http://www.w3.org/TR/2001/REC-SVG-20010904/DTD/svg10.dtd">
<svg version="1.0" xmlns="http://www.w3.org/2000/svg"
 width="300.000000pt" height="169.000000pt" viewBox="0 0 300.000000 169.000000"
 preserveAspectRatio="xMidYMid meet">
<metadata>
Created by potrace 1.10, written by Peter Selinger 2001-2011
</metadata>
<g transform="translate(0.000000,169.000000) scale(0.050000,-0.050000)"
fill="#000000" stroke="none">
<path d="M1023 2574 c-28 -34 -10 -54 49 -54 40 0 84 32 65 49 -28 25 -95 28
-114 5z"/>
<path d="M622 2533 c-15 -19 -17 -34 -4 -42 31 -19 125 11 116 36 -11 35 -85
39 -112 6z"/>
<path d="M1194 2426 c-13 -23 8 -146 25 -146 17 0 15 133 -3 150 -6 7 -16 5
-22 -4z"/>
<path d="M803 2393 c-29 -34 -10 -53 55 -53 66 1 111 29 93 58 -19 31 -121 28
-148 -5z"/>
<path d="M824 2292 c14 -15 35 -23 46 -17 11 6 14 4 6 -4 -8 -9 -2 -34 13 -56
15 -22 23 -54 16 -71 -8 -20 -4 -26 12 -16 12 8 23 54 23 103 0 89 0 89 -71
89 -59 0 -66 -4 -45 -28z"/>
<path d="M2948 2265 c-54 -36 -53 -104 1 -79 28 13 51 40 51 59 0 37 -16 43
-52 20z"/>
<path d="M378 2205 c-1 -8 -1 -34 1 -58 2 -24 -6 -49 -18 -56 -11 -7 -21 -40
-21 -74 0 -33 -13 -73 -30 -90 -56 -56 66 -211 185 -236 77 -17 67 -51 -15
-51 -97 0 -170 -80 -170 -186 0 -159 95 -214 370 -214 l150 0 0 -175 c0 -157
-4 -176 -40 -188 -22 -7 30 -14 115 -15 91 -1 155 6 155 18 0 11 -18 20 -40
20 -22 0 -40 8 -40 18 0 26 -97 39 -108 14 -5 -12 -10 52 -10 143 -2 119 5
165 23 165 17 1 15 7 -5 20 -26 17 -25 19 4 20 18 0 40 -20 47 -44 14 -42 15
-42 42 -6 16 23 27 27 27 12 0 -15 13 -21 29 -15 17 6 35 3 42 -8 15 -25 89
-25 89 1 0 49 41 13 76 -66 49 -111 141 -157 222 -112 72 41 73 128 2 128 -56
0 -81 -61 -31 -76 25 -8 24 -9 -3 -7 -39 4 -55 49 -30 88 24 36 139 45 166 12
36 -43 105 -35 93 12 -24 90 329 69 394 -24 25 -35 31 -111 31 -386 0 -350 6
-386 54 -346 19 16 34 17 48 3 14 -14 4 -24 -31 -31 -29 -5 -57 -1 -64 9 -14
23 -107 -61 -107 -97 0 -68 320 -151 402 -104 28 16 107 27 188 27 130 0 140
3 146 45 6 40 -2 45 -75 45 -44 0 -81 7 -81 15 -1 50 -37 72 -73 44 -34 -27
-35 -26 -10 6 24 30 23 35 -5 35 -19 0 -32 16 -32 40 0 26 -13 40 -38 40 -80
0 -102 22 -102 101 0 42 9 82 20 89 12 7 20 6 18 -4 -20 -113 3 -160 76 -157
40 2 77 13 81 25 10 30 -29 52 -45 26 -7 -11 -30 -20 -51 -20 -50 0 -52 72 -4
125 33 37 33 40 0 64 -20 14 -33 46 -30 72 4 36 -8 49 -60 63 -82 22 -93 147
-23 266 116 196 -178 443 -338 283 -32 -33 -29 -33 47 -6 70 24 88 24 135 0
64 -34 70 -47 12 -32 -38 10 -37 6 10 -45 29 -31 53 -61 55 -68 11 -52 9 -102
-4 -102 -20 0 -42 59 -29 80 5 8 -4 27 -20 40 -18 15 -30 17 -30 4 0 -11 9
-24 19 -27 13 -5 13 -18 1 -37 -17 -26 -19 -25 -20 5 0 19 -9 35 -20 35 -11 0
-20 -9 -20 -20 0 -11 -10 -20 -23 -20 -14 0 -10 15 10 37 49 54 40 83 -26 83
-56 0 -121 -43 -121 -81 0 -11 -9 -19 -20 -19 -12 0 -11 16 4 39 14 22 19 45
12 52 -25 25 -141 -15 -150 -51 -12 -44 -75 -53 -370 -56 -118 -1 -220 7 -227
17 -16 26 -129 24 -129 -2 0 -12 -10 -15 -22 -7 -15 8 -19 49 -11 113 21 178
-97 286 -194 178 -45 -49 -42 -63 12 -58 52 6 72 -63 39 -133 -11 -23 -25 -58
-32 -77 -17 -54 -52 -41 -65 24 -16 80 -60 114 -166 127 -138 18 -183 120 -64
146 153 34 157 41 169 274 l9 174 -58 0 c-65 0 -77 -38 -17 -54 51 -14 52 -46
1 -46 -33 0 -37 -10 -27 -75 15 -95 25 -108 28 -33 2 58 2 58 18 -9 20 -83
-38 -163 -81 -112 -13 16 -49 29 -80 29 -76 0 -90 29 -38 81 28 28 39 57 31
86 -6 24 -12 54 -12 68 0 14 -9 25 -20 25 -11 0 -20 -13 -20 -30 0 -16 -8 -30
-17 -30 -10 0 -13 63 -8 140 7 97 3 140 -12 140 -13 0 -24 -7 -25 -15z m598
-804 c3 -65 -4 -123 -14 -130 -35 -22 -81 203 -49 236 39 38 59 4 63 -106z
m1292 -190 c-21 -119 -50 -96 -34 26 8 57 17 77 28 60 9 -15 12 -54 6 -86z
m-147 -52 c26 -49 25 -679 -1 -679 -13 0 -20 122 -20 326 0 261 -6 334 -31
369 -28 40 -28 43 1 32 17 -6 40 -28 51 -48z m79 -332 c6 -195 3 -317 -10
-327 -13 -11 -18 77 -13 258 4 155 -3 309 -14 352 -17 60 -16 71 3 52 16 -16
27 -130 34 -335z m62 -142 c-7 -188 -22 -184 -22 5 0 86 6 151 13 143 8 -7 11
-74 9 -148z m68 -185 c7 -11 2 -20 -11 -20 -18 0 -18 -7 -2 -26 17 -21 9 -27
-37 -27 -50 0 -55 5 -34 30 20 26 18 28 -14 16 -32 -12 -34 -9 -12 17 28 34
91 40 110 10z m89 -127 c-2 -41 -3 -41 -17 -4 -14 36 -16 35 -31 -10 -29 -92
-29 -102 1 -91 42 16 34 -4 -13 -28 -46 -25 -119 -9 -119 25 0 16 7 16 24 -1
13 -13 38 -24 54 -24 22 0 18 9 -14 31 -24 17 -44 42 -44 55 0 15 9 13 22 -6
18 -25 20 -25 11 5 -8 23 -1 35 19 35 18 0 24 -9 16 -23 -9 -15 -5 -18 9 -9
13 8 18 23 12 33 -20 33 -66 21 -98 -25 -22 -32 -31 -36 -31 -14 0 44 41 78
94 78 25 0 46 9 46 19 0 11 14 15 30 8 17 -6 29 -31 29 -54z"/>
<path d="M1073 2207 c-51 -52 39 -91 107 -47 27 18 27 22 0 40 -35 23 -87 26
-107 7z"/>
<path d="M607 2129 c-7 -18 -3 -41 8 -52 33 -33 94 -10 101 38 8 54 -89 66
-109 14z"/>
<path d="M2001 1936 c0 -18 -11 -40 -24 -48 -15 -9 -18 -5 -7 12 10 17 6 22
-12 16 -15 -5 -28 -24 -28 -41 0 -18 -7 -39 -15 -47 -35 -34 -11 -43 45 -15
76 38 84 53 61 110 -13 33 -19 37 -20 13z"/>
<path d="M1154 1505 c-4 -8 -1 -37 7 -65 17 -55 18 -54 31 25 8 50 -18 77 -38
40z"/>
<path d="M1694 1505 c-4 -8 -1 -37 7 -65 17 -55 18 -54 31 25 8 50 -18 77 -38
40z"/>
<path d="M3049 1472 c-21 -16 -32 -35 -24 -44 8 -8 5 -26 -8 -41 -30 -36 -6
-34 54 5 27 18 49 50 49 70 0 45 -19 48 -71 10z"/>
<path d="M1185 1387 c-34 -14 -32 -40 4 -40 16 0 25 7 19 16 -6 10 -2 17 9 17
11 0 24 -11 30 -25 7 -19 15 -18 31 5 19 27 21 27 22 0 1 -27 3 -27 22 0 16
23 24 24 31 5 6 -14 19 -25 30 -25 11 0 14 9 7 20 -7 11 -3 20 9 20 11 0 21
-9 21 -20 0 -11 10 -20 21 -20 12 0 16 9 9 20 -7 11 -3 20 9 20 11 0 21 -11
21 -25 1 -17 7 -15 20 5 18 27 22 27 40 0 13 -20 19 -22 20 -5 0 14 10 25 21
25 12 0 16 -9 9 -20 -7 -11 -3 -20 9 -20 11 0 21 9 21 20 0 11 10 20 21 20 12
0 16 -9 9 -20 -7 -11 -3 -20 9 -20 11 0 21 14 21 30 0 30 -427 44 -495 17z"/>
<path d="M972 1163 c-17 -27 11 -103 38 -103 27 0 55 76 38 103 -6 10 -23 17
-38 17 -15 0 -32 -7 -38 -17z"/>
<path d="M2943 1045 c-2 -14 -16 -25 -33 -25 -16 0 -30 -17 -30 -38 0 -21 -11
-43 -25 -49 -17 -7 -15 -10 5 -11 54 -1 104 52 94 101 -5 26 -10 36 -11 22z"/>
<path d="M1600 898 c0 -48 47 -42 56 9 4 19 -6 33 -25 33 -18 0 -31 -17 -31
-42z"/>
<path d="M489 798 c-7 -10 103 -18 253 -18 146 0 260 4 255 10 -18 18 -497 26
-508 8z"/>
<path d="M1607 769 c-7 -18 -3 -41 9 -53 31 -31 84 -4 84 43 0 50 -75 57 -93
10z"/>
<path d="M950 738 c-89 -8 -54 -12 135 -15 140 -1 255 4 255 12 0 18 -221 20
-390 3z"/>
<path d="M1025 645 c52 -4 138 -4 190 0 52 4 10 8 -95 8 -104 0 -147 -4 -95
-8z"/>
<path d="M1340 598 c104 -10 177 -9 189 3 12 12 -50 18 -170 16 l-189 -2 170
-17z"/>
<path d="M2507 510 c-7 -18 -3 -42 9 -54 30 -30 88 -3 80 39 -9 46 -73 57 -89
15z"/>
<path d="M3271 381 c-49 -54 -25 -78 95 -94 87 -12 96 -17 54 -29 -46 -13 -44
-14 17 -16 52 -2 65 5 56 28 -7 17 -3 30 8 30 44 0 14 39 -62 78 -99 52 -123
52 -168 3z"/>
<path d="M2995 326 c36 -5 90 -5 120 0 30 4 1 8 -65 8 -66 0 -91 -4 -55 -8z"/>
<path d="M2760 280 c0 -11 53 -20 120 -20 67 0 120 -9 120 -20 0 -12 66 -20
159 -20 87 0 164 9 171 20 8 12 -33 20 -109 20 -67 0 -121 9 -121 20 0 12 -70
20 -170 20 -100 0 -170 -8 -170 -20z"/>
</g>
</svg>
