<?xml version="1.0" encoding="UTF-8" standalone="no"?>
<svg
   xmlns:dc="http://purl.org/dc/elements/1.1/"
   xmlns:cc="http://creativecommons.org/ns#"
   xmlns:rdf="http://www.w3.org/1999/02/22-rdf-syntax-ns#"
   xmlns:svg="http://www.w3.org/2000/svg"
   xmlns="http://www.w3.org/2000/svg"
   xmlns:sodipodi="http://sodipodi.sourceforge.net/DTD/sodipodi-0.dtd"
   xmlns:inkscape="http://www.inkscape.org/namespaces/inkscape"
   version="1.1"
   x="0"
   y="0"
   width="745"
   height="745"
   viewBox="0 0 745 745"
   enable-background="new 0 0 800 800"
   id="svg3040"
   inkscape:version="0.48.5 r10040"
   sodipodi:docname="logo-orbot.svg">
  <metadata
     id="metadata3055">
    <rdf:RDF>
      <cc:Work
         rdf:about="">
        <dc:format>image/svg+xml</dc:format>
        <dc:type
           rdf:resource="http://purl.org/dc/dcmitype/StillImage" />
      </cc:Work>
    </rdf:RDF>
  </metadata>
  <sodipodi:namedview
     pagecolor="#ffffff"
     bordercolor="#666666"
     borderopacity="1"
     objecttolerance="10"
     gridtolerance="10"
     guidetolerance="10"
     inkscape:pageopacity="0"
     inkscape:pageshadow="2"
     inkscape:window-width="849"
     inkscape:window-height="1401"
     id="namedview3053"
     showgrid="false"
     fit-margin-top="5"
     fit-margin-left="5"
     fit-margin-right="5"
     fit-margin-bottom="5"
     inkscape:zoom="0.86625"
     inkscape:cx="372.5"
     inkscape:cy="372.5"
     inkscape:window-x="4267"
     inkscape:window-y="18"
     inkscape:window-maximized="0"
     inkscape:current-layer="svg3040" />
  <defs
     id="defs3042">
    <linearGradient
       id="main"
       gradientUnits="userSpaceOnUse"
       x1="400"
       y1="760"
       x2="400"
       y2="40">
      <stop
         offset="0"
         stop-color="#414141"
         id="stop3045" />
      <stop
         offset="1"
         stop-color="#000"
         id="stop3047" />
    </linearGradient>
  </defs>
  <circle
     cx="400"
     cy="400"
     r="360"
     id="circle3049"
     sodipodi:cx="400"
     sodipodi:cy="400"
     sodipodi:rx="360"
     sodipodi:ry="360"
     style="fill:url(#main);stroke:#ccff2a;stroke-width:15"
     transform="translate(-27.5,-27.5)" />
  <path
     d="m 606.447,492.236 c -3.082,-17.569 -7.633,-34.689 -14.674,-51.177 -7.498,-17.558 -16.837,-33.902 -28.62,-48.944 -11.681,-14.911 -25.115,-27.834 -40.194,-39.321 -17.129,-13.05 -35.486,-24.152 -53.615,-35.629 -11.166,-7.069 -21.892,-14.61 -30.749,-24.479 -6.015,-6.702 -11.225,-13.994 -15.006,-22.269 -5.979,-13.081 -6.026,-26.792 -4.657,-40.673 0.45,-4.568 0.266,-4.901 -4.485,-5.614 -5.919,-0.887 -11.836,-1.805 -17.745,-2.755 -4.523,-0.728 -5.762,-3.277 -3.248,-7.306 10.127,-16.234 20.359,-32.442 32.076,-47.561 12.226,-15.772 24.17,-31.757 37.013,-47.078 18.625,-22.219 38.38,-43.367 58.233,-64.447 4.909,-5.212 9.896,-10.351 14.803,-15.564 0.634,-0.673 1.546,-1.534 0.831,-2.573 -0.495,-0.72 -1.521,-0.611 -2.337,-0.542 -0.816,0.069 -1.615,0.339 -2.426,0.502 -6.125,1.232 -11.434,4.446 -16.974,7.069 -19.694,9.325 -37.291,21.752 -53.582,36.2 -10.256,9.072 -19.365,19.209 -28.372,29.459 -1.444,1.644 -3.051,3.06 -4.795,4.336 -0.716,0.523 -1.671,0.521 -2.369,0.1 -0.772,-0.497 -0.782,-1.401 -0.455,-2.244 0.722,-1.856 1.161,-3.903 2.236,-5.527 4.962,-7.498 8.652,-15.707 13.447,-23.313 11.629,-18.451 24.143,-36.267 37.255,-53.676 5.595,-7.429 11.624,-14.531 16.789,-22.285 0.095,-0.303 0.189,-0.606 0.284,-0.909 -0.301,0.102 -0.602,0.204 -0.901,0.305 -5.184,3.648 -9.749,8.042 -14.632,12.051 -18.999,15.598 -35.748,33.427 -51.225,52.4 -10.612,13.016 -20.332,26.753 -28.101,41.746 -0.913,1.762 -2.054,3.409 -3.141,5.077 -0.714,1.096 -1.785,1.507 -3.03,1.1 -1.105,-0.381 -1.344,-1.374 -1.379,-2.423 -0.05,-1.502 0.008,-2.967 0.552,-4.423 0.581,-1.551 1.034,-3.162 1.398,-4.78 2.669,-11.832 5.377,-23.652 8.547,-35.363 0.692,-2.557 1.045,-5.207 1.532,-7.819 0.082,-0.44 0.36,-1.094 -0.257,-1.231 -0.27,-0.061 -0.848,0.498 -1.023,0.892 -2.374,5.311 -4.685,10.649 -7.046,15.965 -4.99,11.241 -10.443,22.284 -14.724,33.8 -3.925,10.585 -7.619,21.243 -10.597,32.159 -3.63,13.314 -7.258,26.618 -9.859,40.179 -1.002,5.224 -1.937,10.462 -3.031,15.7 -0.908,4.316 -2.835,5.104 -6.797,2.962 -0.731,-0.395 -1.441,-0.837 -2.136,-1.294 -5.144,-3.383 -10.27,-6.793 -15.426,-10.159 -4.458,-2.909 -8.926,-5.8 -13.433,-8.632 -1.472,-0.925 -3.111,-1.332 -4.66,-0.099 -1.716,1.366 -0.927,3.017 -0.336,4.6 2.921,7.6 5.8,15.2 8.8,22.789 7.909,19.6 9.2,39.8 4.5,60.244 -1.86,8.136 -6.278,15.023 -12.861,20.3 -18.694,15.016 -38.644,28.308 -58.196,42.14 -17.542,12.41 -34.919,25.007 -50.414,39.984 -12.746,12.321 -23.911,25.995 -33.647,40.8 -10.122,15.351 -17.798,31.931 -22.772,49.683 -2.29,8.172 -4.59,16.387 -5.463,24.841 -1.713,16.598 -1.471,33.268 -1.069,49.9 0.132,5.5 0.3,11 1.2,16.425 3.635,20.6 9.5,40.4 18.9,59.183 10.586,21.1 24.3,39.8 41.6,55.8 14.289,13.3 29.9,24.9 47.1,34.291 35.208,19.3 72.7,30 112.9,30.7 15.028,0.2 29.959,-0.978 44.762,-3.24 26.075,-3.985 51.273,-11.259 75.359,-22.074 25.031,-11.238 48.863,-24.25 67.412,-45.295 9.386,-10.649 18.428,-21.533 25.873,-33.591 6.905,-11.18 12.386,-23.135 16.899,-35.5 5.5,-15.073 9.352,-30.612 11.263,-46.493 2.413,-19.216 2.248,-38.416 -1.152,-57.38 z m -18.754,7.399 c -0.616,0.39 -1.291,-0.155 -1.745,-0.606 -4.132,-4.098 -8.27,-8.19 -12.34,-12.349 -8.609,-8.796 -17.213,-17.599 -25.759,-26.457 -15.133,-15.688 -30.236,-31.404 -45.323,-47.135 -24.074,-25.102 -48.167,-50.184 -72.165,-75.356 -9.756,-10.233 -19.299,-20.668 -28.898,-31.049 -1.233,-1.334 -2.276,-2.856 -3.314,-4.355 -0.452,-0.654 -0.142,-1.246 0.673,-1.53 1.27,-0.006 2.1,0.9 2.9,1.684 4.933,4.9 9.9,9.9 14.8,14.9 31.028,32 62.1,64 93,96.166 23.973,25 47.7,50.2 71.5,75.331 2.502,2.6 4.6,5.7 6.8,8.6 0.455,0.621 0.778,1.621 -0.122,2.156 z m -2.051,-14.207 c -0.228,0.119 -0.702,0.074 -0.892,-0.096 -0.99,-0.884 -1.949,-1.806 -2.873,-2.759 C 564.029,464.167 546.2,445.741 528.34,427.345 516.744,415.403 505.007,403.593 493.503,391.563 469,365.938 444.168,340.629 419.897,314.779 c -8.429,-8.977 -16.695,-18.078 -24.668,-27.457 -1.291,-1.519 -2.397,-3.081 -2.953,-5.002 2.404,0 3.5,1.9 4.9,3.367 15.528,16 31.1,31.9 46.6,47.944 26.823,27.8 53.8,55.4 80.3,83.5 13.583,14.4 27.4,28.6 41.1,42.922 5.962,6.3 11.7,12.7 17.5,19.185 1.414,1.6 2.5,3.5 3.6,5 -0.298,0.662 -0.376,1.062 -0.676,1.19 z M 493.495,352.432 c 0.002,0 0,0.1 0,0.1 2.304,0.1 3.9,1.6 5.5,3.044 12.72,11.3 24.5,23.5 36.1,35.821 9.033,9.5 18.1,19.1 26.4,29.3 1.162,1.4 2.2,2.9 3.1,4.479 0.247,0.4 0.6,1 0,1.256 -0.283,0.149 -0.906,-0.142 -1.272,-0.387 -3.349,-2.241 -5.853,-5.392 -8.64,-8.22 -11.445,-11.619 -22.85,-23.277 -34.162,-35.025 -8.425,-8.749 -16.683,-17.658 -25.018,-26.492 -1.023,-1.084 -1.969,-2.203 -2.085,-3.775 -0.028,-0.002 -0.054,-0.009 -0.082,-0.01 l 0.159,-0.091 z M 458.147,329 c 1.479,-1.333 3.4,0.6 4.6,1.673 7.418,6.7 14.8,13.4 21.8,20.528 18.281,18.6 36.8,37.1 54.7,56.1 10.005,10.7 20.1,21.2 30.1,31.914 1.813,1.9 3.3,4.1 4.9,6.272 0.482,0.6 0.8,1.4 1.1,2.2 -0.305,0.536 -0.438,1.118 -0.788,1.314 -0.643,0.359 -1.29,-0.005 -1.783,-0.482 -3.949,-3.813 -7.979,-7.546 -11.813,-11.472 -21.961,-22.489 -43.933,-44.969 -65.78,-67.568 -11.668,-12.068 -23.089,-24.374 -34.635,-36.559 -1.13,-1.22 -3.148,-3.22 -2.448,-3.938 z m 17.422,24.66 c 20.222,21 40.2,42.1 60.3,63.2 10.217,10.7 20.5,21.4 30.6,32.174 5.348,5.7 10.5,11.6 15.2,17.86 0.583,0.8 1.4,1.4 1.5,2.4 -0.126,0.377 -0.154,0.738 -0.344,0.968 -0.364,0.445 -0.914,0.473 -1.306,0.099 -1.319,-1.258 -2.602,-2.556 -3.875,-3.861 -24.063,-24.661 -48.127,-49.32 -72.18,-73.991 -9.989,-10.248 -20.005,-20.471 -29.919,-30.791 -22.477,-23.397 -44.981,-46.769 -67.286,-70.329 -6.161,-6.507 -12.563,-12.867 -17.608,-20.35 -0.548,-0.811 -2.287,-1.754 -1.174,-2.79 0.759,-0.706 2.2,0.5 3,1.2 5.226,4.9 10.5,9.7 15.5,14.798 C 430.563,307.4 453.2,330.4 475.6,353.66 z M 395.28,228.6 c 0.027,-0.166 0.531,-0.352 0.817,-0.358 1.613,-0.033 5.8,2.8 6.3,4.281 0.112,0.3 0.1,0.6 0.2,1 -0.393,1.297 -1.212,1.959 -2.561,1.413 -0.574,-0.232 -1.071,-0.75 -1.5,-1.229 -1.372,-1.607 -3.736,-2.507 -3.236,-5.115 z m -26.821,386.9 c -0.331,0 -0.959,0 -0.959,0 0,26 0,52.3 0,78.646 0,0.7 0.1,1.343 -0.026,2 -0.261,1.844 -1.252,2.231 -2.702,0.969 -4.052,-3.526 -7.305,-7.729 -10.149,-12.264 -6.668,-10.625 -11.56,-22.04 -15.693,-33.872 -2.701,-7.732 -4.86,-15.52 -6.189,-23.588 -2.507,-15.208 -0.132,-29.659 5.297,-44.018 5.777,-15.276 15.099,-28.474 23.096,-42.462 1.565,-2.74 3.473,-5.283 4.343,-8.387 0.184,-0.656 0.619,-1.236 1.411,-1.117 0.709,0.1 1.2,0.7 1.3,1.4 0.173,1.1 0.3,2.4 0.3,3.555 -0.025,26.338 0.012,52.138 0.012,79.138 z m 0.92,-316.3 c -0.274,9.972 -0.601,19.942 -0.619,29.917 -0.118,63.451 -0.227,126.902 -0.215,190.352 0,4.021 -1.084,7.148 -4.164,9.6 -2.945,2.356 -4.295,5.889 -6.524,8.771 -4.888,6.32 -9.806,12.619 -14.659,18.967 -9.245,12.092 -14.091,25.915 -15.962,40.9 -0.722,5.783 -1.285,11.59 -2.167,17.349 -1.68,11 0.3,21.5 3.1,32.056 2.872,10.8 7.1,21.1 11.4,31.4 4.419,10.5 11.2,19.6 20.2,26.89 1.125,0.9 3.8,1.6 2.6,3.489 -0.864,1.424 -3.07,0.28 -4.609,-0.26 -9.252,-3.242 -18.735,-5.834 -27.632,-10.078 -6.495,-3.1 -12.544,-6.728 -17.896,-11.648 -13.456,-12.369 -25.115,-26.201 -34.603,-41.807 -7.815,-12.854 -13.866,-26.551 -18.002,-41.019 -5.808,-20.313 -4.632,-40.032 4.931,-59.204 7.307,-14.648 17.025,-27.313 28.743,-38.65 10.226,-9.893 22.004,-17.77 33.2,-26.402 12.938,-9.979 22.922,-22.133 28.465,-37.672 0.168,-0.471 0.398,-0.926 0.506,-1.409 0.391,-1.738 1.748,-4.344 0.079,-5.044 -2.297,-0.963 -2.252,2.186 -3.024,3.556 -4.154,7.366 -7.517,15.162 -12.922,21.8 -5.72,7.053 -12.351,12.941 -19.897,17.995 -12.988,8.695 -26.465,16.738 -37.586,27.992 -6.225,6.3 -11.989,12.967 -16.664,20.4 -5.911,9.463 -11.223,19.255 -14.116,30.186 -1.032,3.9 -1.667,7.841 -1.872,11.814 -0.966,18.7 0.1,37.3 5.8,55.4 4.751,15 11.5,28.9 21.3,41.473 12.716,16.4 28.4,28.8 46.6,38.457 3.23,1.7 6.4,3.6 9.6,5.4 0.381,0.2 0.9,0.7 0.9,0.989 -0.173,0.837 -0.967,0.8 -1.578,0.587 -5.341,-1.868 -10.686,-3.727 -15.995,-5.68 -8.112,-2.984 -16.315,-5.721 -23.54,-10.731 -4.556,-3.159 -8.657,-6.883 -12.37,-10.845 -12.318,-13.147 -23.11,-27.532 -32.97,-42.613 -6.834,-10.455 -13.143,-21.222 -18.819,-32.342 -6.445,-12.623 -11.667,-25.738 -15.688,-39.359 -2.463,-8.344 -4.079,-16.822 -4.982,-25.414 -1.625,-15.452 1.989,-30.025 7.863,-44.234 5.503,-13.308 12.625,-25.66 20.908,-37.386 7.158,-10.133 15.831,-18.853 25.186,-26.935 12.361,-10.68 25.653,-20.13 38.879,-29.684 9.847,-7.113 19.888,-13.974 29.083,-21.975 6.828,-5.938 11.767,-13.069 14.981,-21.473 4.34,-11.351 7.724,-22.987 10.445,-34.822 0.26,-1.129 0.444,-2.297 0.477,-3.452 0.036,-1.29 0.544,-3.489 -0.537,-3.641 -1.486,-0.208 -1.201,1.983 -1.674,3.146 -4.957,12.162 -8.067,25.006 -13.846,36.878 -4.024,8.266 -9.594,15.109 -16.875,20.7 -12.835,9.822 -26.43,18.563 -39.571,27.948 -8.131,5.808 -16.04,11.901 -23.526,18.531 -5.108,4.524 -10.056,9.202 -14.884,14 -14.55,14.567 -25.761,31.424 -34.037,50.141 -5.449,12.322 -9.614,25.176 -11.685,38.592 -0.487,3.155 -0.482,6.334 -0.052,9.5 2.82,20.6 8.3,40.4 16.4,59.489 6.551,15.3 14.3,30.1 23.2,44.148 10.31,16.4 21.8,31.9 35.5,45.7 4.364,4.4 9.6,7.7 14.6,11.293 0.523,0.4 1.5,0.7 1.1,1.422 -0.468,0.941 -1.428,0.523 -2.18,0.2 -13.481,-6.113 -27.03,-12.172 -39.3,-20.522 -8.939,-6.084 -17.406,-12.85 -25.404,-20.188 -8.747,-8.025 -16.658,-16.837 -23.721,-26.294 -7.858,-10.523 -14.873,-21.625 -20.648,-33.535 -5.329,-10.988 -9.27,-22.411 -12.982,-33.978 -1.496,-4.659 -2.235,-9.435 -2.477,-14.227 -0.521,-10.312 -0.069,-20.658 -0.99,-30.691 0.876,-10.084 0.522,-19.924 0.817,-29.746 0.242,-8.029 2.226,-15.793 4.258,-23.526 3.141,-11.958 7.825,-23.307 13.417,-34.305 3.026,-5.952 6.654,-11.584 10.584,-16.905 10.524,-14.245 22.807,-26.852 36.464,-38.21 9.854,-8.194 19.581,-16.536 29.675,-24.442 8.131,-6.369 16.552,-12.321 25.082,-18.131 14.721,-10.027 29.844,-19.599 41.997,-32.845 9.086,-9.906 16.602,-20.873 19.052,-34.493 2.281,-12.682 1.208,-25.188 -2.269,-37.554 -2.482,-8.827 -6.193,-17.191 -9.42,-25.738 -0.353,-0.935 -0.73,-1.861 -1.085,-2.795 -0.575,-1.516 -1.774,-3.225 -0.156,-4.555 1.265,-1.041 2.828,-0.078 4.2,0.5 9.435,3.7 18.9,7.4 28.3,11.103 5.063,2 5.5,2.5 5.5,8.056 0.15,26.372 1.723,52.872 1.023,79.324 z m 40.325,378.195 c -0.304,-0.24 -0.688,-0.465 -0.662,-0.537 0.147,-0.395 0.329,-0.828 0.631,-1.099 0.219,-0.193 0.6,0.1 0.5,0.4 -0.077,0.441 -0.273,0.841 -0.473,1.236 z m 3.431,-6.051 c -0.029,0.528 -0.415,0.981 -0.964,1 -0.569,-0.03 -0.708,-0.584 -0.714,-1.069 -0.007,-0.496 -0.063,-1.068 0.15,-1.479 2.257,-4.342 1.678,-9.505 4.032,-13.816 0.314,-0.575 0.498,-1.241 0.644,-1.887 6.579,-29.396 10.09,-59.058 7.467,-89.215 -0.91,-10.455 -2.782,-20.705 -5.642,-30.873 -2.523,-8.979 -5.128,-17.915 -8.323,-26.658 -4.75,-13.003 -10.965,-25.368 -17.711,-37.417 -5.711,-10.199 -9.4,-20.898 -10.507,-32.508 -0.208,-2.176 -0.719,-4.269 -1.542,-6.286 -0.246,-0.602 -0.506,-1.398 -1.248,-1.377 -0.829,0.023 -0.89,0.872 -0.973,1.5 -0.084,0.658 -0.122,1.33 -0.104,1.994 0.321,12.7 1.2,25.3 7,36.963 2.615,5.2 5.2,10.4 8.2,15.4 9.54,15.9 14.5,33.4 18.4,51.412 5.094,23.4 4.2,47 2.6,70.618 -1.019,14.847 -3.298,29.479 -6.73,43.9 -4.076,17.1 -10.573,33.26 -21.705,47.21 -1.886,2.361 -4.152,4.314 -6.322,6.377 -0.35,0.333 -0.831,0.716 -1.232,0.2 -0.357,-0.438 0.071,-0.877 0.345,-1.275 4.749,-6.894 8.52,-14.212 10.844,-22.336 2.81,-9.82 4.376,-19.832 5.105,-29.951 0.804,-11.118 2.275,-22.168 2.288,-33.375 0.021,-17.965 -2.493,-35.484 -7.084,-52.797 -2.345,-8.838 -4.329,-17.767 -6.743,-26.593 -1.143,-4.174 -3.479,-7.953 -3.886,-12.347 -0.038,-0.408 -0.532,-1.089 -0.83,-1.099 -0.795,-0.024 -0.981,0.763 -1.067,1.4 -0.39,2.9 0.2,5.6 0.7,8.428 2.278,14.5 5.7,28.8 7.2,43.337 0.5,4.8 0.4,9.7 0.5,14.5 0.175,16.497 -0.243,32.986 -0.737,49.474 -0.387,12.926 -3.681,25.337 -6.743,37.789 -0.714,2.904 -1.232,5.856 -1.933,8.8 -0.185,0.77 -0.583,1.678 -1.578,1.689 -1.036,0.013 -1.374,-0.895 -1.464,-1.705 -0.165,-1.485 -0.197,-2.989 -0.223,-4.486 -0.683,-39.812 -1.142,-79.627 -1.604,-119.442 -0.429,-36.816 -0.29,-73.632 -0.775,-105.242 0,-69.685 0.034,-134.167 -0.029,-198.649 -0.012,-12.841 1.119,-25.63 1.363,-38.456 0.024,-1.319 -0.011,-2.683 0.65,-3.907 0.999,-1.85 2.633,-2.369 4.569,-1.434 0.446,0.2 0.9,0.5 1.3,0.809 8.665,6.3 16.7,13.2 22.5,22.394 0.899,1.4 2.8,3.2 0.9,4.8 -1.812,1.473 -3.348,-0.52 -4.665,-1.631 -2.161,-1.821 -4.155,-3.838 -6.25,-5.74 -0.371,-0.337 -0.918,-0.425 -1.328,-0.005 -0.406,0.417 -0.293,0.9 0,1.325 2.07,2.4 4.2,4.7 6.2,7.138 1.916,2.3 3.7,4.7 5.5,7.1 0.726,0.9 1.3,1.9 1.3,3.167 0.005,0.8 0.1,1.721 -0.909,2.09 -0.729,0.27 -1.26,-0.143 -1.745,-0.634 -2.809,-2.841 -5.438,-5.868 -8.658,-8.277 -0.52,-0.39 -1.165,-0.931 -1.758,-0.432 -0.669,0.563 -0.087,1.2 0.3,1.7 2.75,3.1 5.5,6.2 8.3,9.331 3.477,3.8 6.6,7.9 9.2,12.412 0.413,0.7 0.9,1.4 1.1,2.2 0.282,0.9 0.5,2.071 -0.596,2.63 -0.88,0.433 -1.56,-0.262 -2.138,-0.877 -4.675,-4.973 -9.327,-9.969 -14.029,-14.917 -1.321,-1.39 -2.419,-3.961 -4.607,-3.14 -2.401,0.9 -1.01,3.452 -0.984,5.34 0.078,5.8 0.9,11.6 1.1,17.4 0.288,13.3 5.4,24.9 11.4,36.293 7.977,15 16.2,29.8 24.4,44.698 7.412,13.5 13.2,27.6 16.6,42.6 0.804,3.6 1.9,7.1 2.9,10.593 2.893,10.6 4,21.6 5.8,32.408 1.406,8.7 1.7,17.6 2.4,26.4 1.902,25 1.3,49.964 -0.212,74.906 -0.863,14.274 -2.362,28.537 -4.455,42.72 -2.454,16.635 -5.425,33.162 -9.431,49.5 -2.438,9.941 -6.898,19.053 -11.807,27.963 -0.08,0.145 -0.179,0.287 -0.299,0.399 -0.83,0.782 -1.668,1.556 -2.503,2.3 -0.525,-1.226 0.284,-2.247 0.609,-3.291 3.862,-12.396 7.51,-24.848 10.623,-37.465 3.834,-15.534 7.554,-31.123 9.28,-47.016 1.599,-14.708 3.31,-29.524 2.009,-44.354 -1.221,-13.92 -2.064,-27.877 -4.301,-41.718 -1.943,-12.021 -3.962,-23.977 -7.952,-35.514 -4.683,-13.535 -10.248,-26.683 -16.552,-39.56 -8.413,-17.188 -17.561,-34.019 -25.251,-51.561 -2.406,-5.489 -4.152,-11.151 -5.533,-17.013 -1.496,-6.347 -1.869,-12.823 -3.148,-19.171 -0.09,-0.447 -0.405,-1.142 -0.71,-1.196 -0.9,-0.162 -1.067,0.686 -1.086,1.3 -0.077,2.661 -0.352,5.358 -0.048,7.982 1.921,16.6 5.7,32.6 13.3,47.773 8.206,16.4 16.1,32.9 23.1,49.8 6.823,16.5 11.6,33.7 15.2,51.134 4.02,19.1 6.3,38.5 5,58.06 -0.935,13.625 -2.434,27.194 -4.692,40.7 -2.12,12.642 -3.992,25.329 -6.418,37.911 -2.235,11.595 -5.135,23.066 -8.967,34.3 -0.84,2.38 -2.768,4.68 -2.968,7.624 z M 585.605,520.29 c -0.737,0.721 -1.725,-0.595 -2.407,-1.216 -3.199,-2.917 -6.452,-5.789 -9.475,-8.883 -24.324,-24.9 -48.609,-49.838 -72.888,-74.783 -14.861,-15.27 -29.721,-30.542 -44.515,-45.876 -6.355,-6.588 -12.521,-13.357 -18.818,-20.001 -2.329,-2.457 -3.739,-5.471 -5.369,-8.355 -0.138,-0.242 -0.174,-0.676 -0.045,-0.897 0.125,-0.214 0.524,-0.268 0.853,-0.414 1.225,1.1 2.6,2.1 3.7,3.292 15.075,16.2 31,31.7 46.3,47.6 12.334,12.9 25,25.4 37.2,38.418 18.672,19.9 37.7,39.5 56.5,59.28 2.754,2.9 5.4,5.9 8,9 0.567,0.845 2.059,1.745 0.959,2.835 z m 1.238,12.735 c 0.296,0.5 1,1.1 0.2,1.6 -0.205,0.136 -0.922,-0.307 -1.274,-0.625 -3.21,-2.895 -6.54,-5.674 -9.555,-8.759 -21.632,-22.146 -43.286,-44.271 -64.757,-66.573 -18.925,-19.656 -37.667,-39.489 -56.379,-59.349 -4.091,-4.34 -8.025,-8.866 -11.367,-13.846 -0.34,-0.507 -0.641,-1.187 0.923,-1.908 0.187,0.4 0.4,1.1 0.8,1.513 6.301,6.4 12.7,12.7 19,19.149 15.385,15.7 30.8,31.4 46.1,47.1 7.655,7.9 15.1,15.9 22.7,23.879 13.566,14.2 27.2,28.3 40.7,42.6 4.598,4.794 9.266,9.594 12.866,15.219 z M 420.73,715.01 c -1.652,-0.464 -3.169,-1.19 -3.052,-3.302 0.044,-0.8 0.674,-1.045 1.543,-1.076 1.418,0.7 2.9,1.5 2.9,3.428 0.06,0.84 -0.721,1.14 -1.421,0.95 z m 11.532,-2.264 c -0.302,0.301 -0.865,0.515 -1.292,0.485 -2.295,-0.155 -7.729,-5.428 -7.903,-7.592 -0.097,-1.204 1.275,-1.956 2.51,-1.144 2.624,1.7 4.8,4 6.8,6.438 0.38,0.567 0.423,1.267 -0.077,1.813 z m 7.087,-2.762 c -3.929,-2.294 -6.793,-5.749 -9.758,-9.086 -0.463,-0.521 -0.598,-1.209 -0.04,-1.779 0.197,-0.202 0.577,-0.226 0.961,-0.361 0.381,0.2 0.9,0.3 1.2,0.63 3.288,2.8 6.3,5.8 8.8,9.404 0.226,0.3 0.1,0.9 0.2,1.3 -0.465,0.008 -1.012,0.108 -1.412,-0.108 z m 8.853,-3.342 c -0.776,-0.191 -1.597,-0.463 -2.229,-0.93 -4.146,-3.058 -7.487,-6.919 -10.716,-10.888 -0.531,-0.653 -0.881,-1.416 -0.777,-2.277 0.109,-0.911 0.686,-1.88 1.555,-1.125 4.722,4.1 9.2,8.4 13,13.458 0.173,0.2 0.1,0.6 0.2,0.899 -0.12,0.621 -0.535,1.021 -1.035,0.863 z m 8.838,-2.446 c -1.05,-0.097 -1.877,-0.705 -2.592,-1.393 -5.163,-4.96 -10.206,-10.039 -14.872,-15.477 -0.319,-0.373 -0.619,-0.79 -0.814,-1.236 -0.285,-0.651 -0.196,-1.305 0.343,-1.822 0.542,-0.521 1.218,-0.6 1.829,-0.247 0.712,0.4 1.4,0.9 2,1.462 4.841,5 9.6,10.1 14.5,15.195 0.572,0.6 1.1,1.2 1.3,2.1 -0.166,1.022 -0.634,1.522 -1.734,1.418 z m 9.141,-4.36 c -0.514,0.592 -1.267,0.24 -1.769,-0.168 -2.063,-1.678 -4.167,-3.319 -6.103,-5.138 -5.095,-4.786 -9.71,-10.028 -14.216,-15.366 -0.642,-0.759 -1.377,-1.477 -1.326,-2.586 0.033,-0.728 0.352,-1.259 1.102,-1.454 0.724,0 1.2,0.4 1.7,0.94 6.443,6.9 12.9,13.9 19.3,20.8 0.336,0.4 0.6,0.8 0.9,1.212 0.314,0.524 0.931,1.124 0.431,1.76 z m 7.782,-2.336 c -1.265,0.041 -2.194,-0.649 -3.039,-1.477 -7.464,-7.305 -15.188,-14.37 -21.574,-22.683 -1.107,-1.442 -3.628,-3.558 -2.12,-4.917 1.556,-1.404 3.3,1.4 4.5,2.645 7.213,7.3 14.3,14.8 21.4,22.205 0.884,0.9 2,1.8 2.3,3.1 -0.138,0.927 -0.73,1.027 -1.43,1.091 z m 8.591,-3.759 c -1.452,1.467 -2.546,-0.468 -3.553,-1.464 -8.757,-8.654 -17.116,-17.687 -25.432,-26.76 -0.893,-0.975 -1.704,-2.043 -2.418,-3.155 -0.445,-0.693 -0.084,-1.253 0.748,-1.425 0.884,0.1 1.5,0.7 2.1,1.254 9.523,8.8 18.5,18.2 27.2,27.84 0.847,0.969 2.701,2.369 1.401,3.71 z m 7.016,-5.218 c -0.225,0.135 -0.696,0.134 -0.899,-0.02 -1.186,-0.896 -2.407,-1.771 -3.467,-2.808 -9.852,-9.629 -19.453,-19.504 -28.763,-29.659 -0.961,-1.048 -2.833,-2.343 -1.497,-3.662 1.499,-1.48 2.5,0.8 3.4,1.7 10.01,9.5 19.4,19.6 28.7,29.657 1.118,1.2 2,2.6 3,3.879 -0.215,0.39 -0.244,0.79 -0.444,0.913 z m 7.75,-2.277 c -1.101,-0.069 -1.756,-0.829 -2.455,-1.547 -11.941,-12.263 -24.096,-24.321 -35.46,-37.137 -1.33,-1.499 -2.642,-3.004 -3.537,-4.805 -0.361,-0.726 -0.758,-1.671 0.15,-2.229 0.61,-0.376 1.3,0.2 1.7,0.6 2.043,2 4.1,3.9 6.1,5.903 11.379,11.2 22.4,22.7 33,34.656 0.865,1 2,1.8 2.3,3.1 -0.214,1.113 -0.818,1.513 -1.818,1.459 z m 7.569,-5.03 c -0.473,0.293 -0.941,0.03 -1.303,-0.318 -2.517,-2.421 -5.103,-4.776 -7.521,-7.292 -10.727,-11.157 -21.426,-22.34 -32.08,-33.565 -1.711,-1.802 -3.163,-3.851 -4.698,-5.814 -0.162,-0.208 -0.203,-0.675 -0.082,-0.908 0.288,-0.554 0.848,-0.522 1.278,-0.21 1.075,0.8 2.2,1.5 3.1,2.5 13.295,13.3 26.3,26.9 39,40.703 1.089,1.2 2.4,2.3 2.7,4.09 -0.1,0.298 -0.183,0.698 -0.383,0.814 z m 2.411,-7.801 c -11.078,-10.798 -22.082,-21.673 -32.431,-33.189 -4.112,-4.577 -8.69,-8.738 -12.327,-13.741 -0.772,-1.063 -1.826,-2.012 -1.88,-3.446 -0.026,-0.727 0.381,-1.231 1.416,-1.286 0.769,0.6 1.7,1.3 2.6,2.1 4.199,3.8 8.1,7.9 11.9,12.039 11.115,11.7 22.3,23.3 32.8,35.61 1.339,1.6 3.2,2.8 3.5,5.2 -2.843,0.598 -4.078,-1.802 -5.578,-3.287 z m 12.368,-1.718 c -0.995,0.912 -1.887,0.14 -2.577,-0.555 -3.053,-3.064 -6.068,-6.166 -9.077,-9.275 -13.305,-13.752 -26.605,-27.508 -39.901,-41.27 -1.854,-1.92 -3.524,-3.994 -4.743,-6.381 -0.434,-0.847 -0.195,-1.596 0.891,-2.07 0.559,0.4 1.2,0.6 1.6,1.075 2.224,2 4.5,3.9 6.6,6.1 12.706,13.2 25.4,26.4 38,39.629 3.096,3.2 6,6.7 8.9,10.097 0.713,0.753 1.239,1.753 0.339,2.65 z m 4.16,-7.498 c -1.327,-0.999 -2.705,-1.956 -3.902,-3.098 -18.071,-17.233 -35.589,-35.005 -51.955,-53.884 -0.78,-0.899 -2.725,-1.862 -1.552,-3.139 1.286,-1.4 2.2,0.6 3.2,1.337 3.683,2.9 6.7,6.5 9.9,9.9 13.739,14.3 27.4,28.6 41.1,42.949 1.593,1.7 2.9,3.6 4.2,5.348 -0.104,0.988 -0.619,0.888 -1.019,0.587 z m 8.348,-3.557 c -0.573,0.44 -1.314,-0.06 -1.792,-0.482 -2.492,-2.207 -5.068,-4.338 -7.383,-6.722 -17.389,-17.908 -35.03,-35.575 -51.843,-54.035 -1.676,-1.84 -3.251,-3.782 -4.745,-5.773 -0.526,-0.702 -0.424,-1.601 0.912,-2.016 0.427,0.2 1.1,0.4 1.5,0.854 2.236,2 4.5,3.9 6.6,6.077 12.044,12.4 24.1,24.9 36,37.4 6.32,6.6 12.5,13.4 18.7,20.113 0.676,0.7 1.3,1.5 1.8,2.383 0.5,0.659 1.175,1.559 0.275,2.201 z m 5.1,-6.481 c -1.388,-0.293 -2.267,-1.362 -3.203,-2.282 -6.177,-6.062 -12.4,-12.074 -18.458,-18.251 -9.088,-9.266 -18.109,-18.599 -27.049,-28.006 -6.53,-6.874 -12.898,-13.903 -19.307,-20.893 -1.351,-1.473 -2.485,-3.127 -3.244,-4.996 -0.203,-0.499 0.003,-0.992 0.431,-1.327 0.437,-0.341 0.962,-0.337 1.4,0.001 0.753,0.7 1.4,1.4 2.1,2.1 21.546,21.8 42.9,43.7 63.8,66.137 1.472,1.6 2.8,3.3 4.2,4.985 0.402,0.5 0.7,1.1 0.9,1.5 -0.254,1.071 -0.846,1.171 -1.546,1.032 z m 4.26,-7.642 c -1.205,-0.872 -2.387,-1.806 -3.436,-2.857 -14.582,-14.61 -29.322,-29.065 -43.334,-44.236 -7.113,-7.701 -14.364,-15.275 -21.508,-22.949 -1.469,-1.579 -2.771,-3.318 -4.08,-5.038 -0.504,-0.663 -0.868,-1.563 -0.152,-2.267 0.82,-0.809 1.559,-0.072 2.1,0.486 2.562,2.6 5.1,5.3 7.6,7.9 16.827,17.5 33.7,35.1 50.5,52.623 4.03,4.2 8,8.5 11.9,12.772 0.795,0.9 1.6,1.7 1.8,2.9 -0.11,0.947 -0.726,1.147 -1.426,0.666 z m 5.816,-6.102 c -1.264,-1.081 -2.521,-2.176 -3.702,-3.345 -19.985,-19.822 -39.52,-40.088 -59.054,-60.352 -4.385,-4.547 -8.398,-9.456 -12.516,-14.256 -1.073,-1.254 -1.913,-2.714 -2.81,-4.111 -0.145,-0.227 -0.14,-0.688 -0.003,-0.927 0.303,-0.533 0.866,-0.518 1.274,-0.177 1.274,1.1 2.6,2.1 3.7,3.3 15.444,15.7 30.7,31.4 45.6,47.609 8.57,9.3 17.6,18.2 25.7,27.899 1.048,1.2 2.3,2.4 2.8,4 -0.106,0.743 -0.641,0.743 -0.941,0.36 z m 6.578,-5.441 c -0.418,0.317 -0.97,0.215 -1.366,-0.159 -0.604,-0.567 -1.171,-1.174 -1.751,-1.766 -17.57,-17.956 -35.207,-35.847 -52.685,-53.894 -8.786,-9.073 -17.32,-18.393 -25.87,-27.69 -1.546,-1.682 -3.279,-3.347 -3.984,-5.665 -0.204,-0.674 -0.153,-1.395 0.559,-1.683 0.379,-0.153 1.052,-0.063 1.4,0.2 1.152,0.9 2.3,1.9 3.3,3.031 12.653,13.4 25.9,26.4 38.7,39.614 11.808,12.2 23.2,24.7 34.8,37.1 2.154,2.3 4.2,4.7 6.3,7.067 0.68,0.8 1.2,1.6 1.3,2.796 -0.166,0.273 -0.333,0.773 -0.733,1.049 z m 4.437,-8.524 c -0.264,0.099 -0.657,-0.016 -0.948,-0.145 -1.881,-0.836 -3.195,-2.391 -4.594,-3.8 -10.909,-10.996 -21.88,-21.935 -32.649,-33.068 -14.465,-14.957 -28.785,-30.057 -43.121,-45.138 -2.521,-2.651 -4.857,-5.482 -7.19,-8.306 -0.796,-0.963 -2.093,-2.27 -0.627,-3.41 1.216,-0.947 2,0.6 2.8,1.363 5.458,5.6 10.8,11.4 16.3,16.9 21.293,21.1 41.5,43.2 62.4,64.752 2.427,2.5 4.6,5.3 6.8,7.98 0.524,0.6 0.9,1.4 1.3,2 -0.18,0.42 -0.238,0.82 -0.438,0.872 z m 4.537,-6.834 c -0.392,0.432 -0.902,0.353 -1.294,-0.013 -0.605,-0.566 -1.145,-1.202 -1.733,-1.787 -28.221,-28.049 -55.773,-56.745 -82.865,-85.882 -2.716,-2.92 -5.445,-5.854 -7.623,-9.229 -0.374,-0.579 -0.597,-1.306 0.15,-1.693 0.3,-0.154 1,0.1 1.3,0.392 2.094,1.9 4.2,3.8 6.2,5.8 24.591,24.9 48.8,50.1 72.7,75.563 4.212,4.5 8.1,9.3 12.2,13.908 0.545,0.6 1.2,1.2 1.3,2.1 -0.106,0.223 -0.139,0.623 -0.339,0.841 z m 3.851,-7.448 c -1.057,-0.801 -2.062,-1.68 -3.033,-2.586 -11.689,-10.901 -22.733,-22.45 -33.856,-33.913 -17.956,-18.503 -35.736,-37.177 -53.547,-55.821 -2.294,-2.401 -4.318,-5.059 -6.471,-7.596 -0.875,-1.029 -2.084,-2.396 -0.98,-3.469 1.526,-1.482 2.6,0.4 3.6,1.337 3.823,3.7 7.6,7.4 11.3,11.3 19.07,19.8 38.1,39.5 57.1,59.324 8.405,8.8 16.7,17.6 24.6,26.856 1.059,1.2 2.4,2.3 2.7,4 -0.167,0.998 -0.868,0.998 -1.368,0.568 z m 4.798,-9.591 c -1.422,1.587 -2.536,-0.564 -3.534,-1.433 -9.437,-8.205 -17.842,-17.459 -26.587,-26.363 -15.164,-15.441 -30.378,-30.839 -45.244,-46.563 -9.025,-9.547 -18.556,-18.637 -26.888,-28.832 -0.94,-1.15 -1.753,-2.423 -2.484,-3.718 -0.335,-0.592 -0.115,-1.286 0.68,-1.601 0.705,-0.084 1.3,0.3 1.7,0.8 2.362,2.1 4.8,4.1 7,6.361 11.54,11.8 23.1,23.5 34.5,35.414 14.994,15.6 29.8,31.4 44.8,47 4.843,5 9.8,10 14.3,15.302 1.043,1.054 2.904,2.354 1.804,3.633 z m 1.885,-9.979 c -0.195,0.311 -0.501,0.335 -0.816,0.072 -1.021,-0.852 -2.043,-1.704 -3.05,-2.572 -8.453,-7.291 -16.07,-15.443 -23.943,-23.33 -8.341,-8.354 -16.831,-16.574 -24.911,-25.176 -16.961,-18.057 -34.382,-35.684 -50.8,-54.247 -1.201,-1.357 -2.377,-2.761 -2.793,-4.607 2.128,-0.234 3.2,1.5 4.4,2.634 7.43,6.7 14.1,14.2 21.1,21.269 9.573,9.7 19.1,19.5 28.6,29.3 16.079,16.8 32.1,33.8 48,50.674 1.589,1.7 2.9,3.6 4.3,5.266 -0.054,0.417 -0.025,0.617 -0.125,0.76 z m 6.078,-4.778 c -0.23,0.139 -0.709,0.163 -0.906,0.012 -0.919,-0.703 -1.817,-1.443 -2.653,-2.243 -8.647,-8.283 -17.224,-16.627 -25.476,-25.32 -10.079,-10.615 -20.714,-20.703 -30.818,-31.298 -17.216,-18.049 -34.782,-35.77 -51.505,-54.287 -1.332,-1.475 -2.487,-3.115 -3.651,-4.732 -0.566,-0.789 -1.314,-1.797 -0.503,-2.693 0.993,-1.097 1.8,0.1 2.5,0.7 1.934,1.6 3.9,3.2 5.6,4.968 17.056,17.5 34.1,35 51.1,52.624 13.945,14.5 27.7,29.2 41.5,43.8 4.78,5.1 9.3,10.4 13.9,15.659 0.535,0.6 1,1.3 1.5,1.834 -0.272,0.454 -0.404,0.854 -0.604,0.976 z m 2.431,-10.552 c -0.291,0.502 -0.869,0.301 -1.329,0.1 -1.406,-0.616 -2.456,-1.686 -3.514,-2.756 -13.936,-14.1 -27.968,-28.104 -41.797,-42.308 -17.422,-17.896 -34.719,-35.915 -51.987,-53.959 -6.099,-6.372 -11.958,-12.976 -17.921,-19.479 -1.47,-1.604 -2.822,-3.301 -3.478,-5.42 -0.24,-0.775 0.094,-1.252 0.982,-1.164 1.4,0.3 2.2,1.4 3.2,2.3 9.041,9.1 18.1,18.1 27.1,27.301 12.11,12.4 24.2,24.8 36.1,37.336 15.979,16.7 31.8,33.6 47.7,50.4 1.82,1.9 3.4,4.1 5,6.224 0.253,0.355 0.197,1.055 -0.103,1.425 z m 1.329,-9.57 c -0.257,0.105 -0.715,0.052 -0.927,-0.124 -0.633,-0.525 -1.195,-1.139 -1.774,-1.729 -21.235,-21.633 -42.583,-43.154 -63.667,-64.932 -17.597,-18.176 -34.896,-36.637 -52.292,-55.006 -1.941,-2.051 -3.664,-4.312 -5.467,-6.493 -0.738,-0.894 -1.6,-1.767 -1.563,-3.034 0.013,-0.454 0.184,-1.077 0.505,-1.295 0.282,-0.191 0.984,-0.071 1.3,0.17 0.66,0.5 1.2,1.1 1.8,1.7 24.77,25.8 49.5,51.7 74.3,77.544 10.248,10.7 20.5,21.4 30.7,32.125 5.373,5.7 10.6,11.6 15.8,17.4 0.772,0.9 1.6,1.7 1.8,2.931 -0.167,0.243 -0.291,0.643 -0.491,0.774 z m 2.557,-9 c -0.418,0.36 -0.964,0.278 -1.332,-0.062 -1.099,-1.016 -2.164,-2.069 -3.207,-3.142 -14.858,-15.26 -29.755,-30.48 -44.548,-45.802 -15.375,-15.924 -30.688,-31.906 -45.949,-47.938 -10.895,-11.446 -22.088,-22.614 -32.38,-34.623 -1.618,-1.887 -3.059,-3.931 -4.507,-5.955 -0.382,-0.534 -0.406,-1.316 0.069,-1.864 0.78,-0.897 1.585,-0.276 2.1,0.258 1.563,1.5 3,3.1 4.5,4.6 21.761,22.5 43.6,44.9 65.3,67.473 18.079,18.8 36,37.9 53.9,56.881 2.048,2.2 3.8,4.7 5.6,7 0.521,0.7 0.9,1.4 0.9,2.295 -0.146,0.379 -0.179,0.679 -0.479,0.912 z m 0.872,-11.4 c -1.205,-0.877 -2.368,-1.829 -3.452,-2.852 -12.84,-12.107 -24.849,-25.038 -37.227,-37.604 -16.471,-16.721 -32.863,-33.515 -48.997,-50.561 -14.183,-14.985 -28.591,-29.76 -42.38,-45.112 -1.992,-2.218 -3.66,-4.729 -5.456,-7.121 -0.424,-0.564 -0.555,-1.269 -0.081,-1.83 0.735,-0.873 1.556,-0.407 2.1,0.175 3.206,3.1 6.4,6.3 9.5,9.501 16.015,16.5 32.1,32.9 48,49.5 16.849,17.5 33.6,35.1 50.4,52.677 9.058,9.5 18.6,18.6 26.8,28.961 0.912,1.1 1.7,2.4 2.4,3.4 -0.34,1.166 -1.012,1.266 -1.612,0.852 z m 0.661,-35.77 c -0.867,-0.45 -1.636,-1.123 -2.375,-1.78 -8.472,-7.529 -16.107,-15.901 -24.08,-23.934 -7.741,-7.797 -15.338,-15.737 -23.001,-23.611 -11.612,-11.932 -23.265,-23.823 -34.831,-35.799 -11.68,-12.091 -23.269,-24.269 -34.909,-36.397 -17.057,-17.771 -34.216,-35.447 -50.369,-54.058 -1.293,-1.49 -2.313,-3.224 -3.395,-4.889 -0.372,-0.573 -0.44,-1.336 0.131,-1.84 0.612,-0.541 1.227,-0.178 1.7,0.316 2.448,2.5 4.9,5 7.3,7.5 29.587,30.4 59.3,60.8 88.7,91.365 19.53,20.2 38.7,40.8 58.4,60.956 5.687,5.8 10.8,12.2 16.2,18.3 0.765,0.9 1.6,1.7 1.8,2.95 -0.049,0.791 -0.537,1.291 -1.237,0.921 z"
     id="path3051"
     inkscape:connector-curvature="0"
     style="fill:#ccff2a" />
</svg>
