<?xml version="1.0" standalone="no"?>
<!DOCTYPE svg PUBLIC "-//W3C//DTD SVG 20010904//EN"
 "http://www.w3.org/TR/2001/REC-SVG-20010904/DTD/svg10.dtd">
<svg version="1.0" xmlns="http://www.w3.org/2000/svg"
 width="300.000000pt" height="300.000000pt" viewBox="0 0 300.000000 300.000000"
 preserveAspectRatio="xMidYMid meet">
<metadata>
Created by potrace 1.10, written by Peter Selinger 2001-2011
</metadata>
<g transform="translate(0.000000,300.000000) scale(0.100000,-0.100000)"
fill="#000000" stroke="none">
<path d="M1367 2280 c-257 -46 -453 -209 -567 -469 -66 -152 -95 -328 -92
-564 1 -92 5 -114 23 -143 21 -34 21 -56 4 -111 -6 -20 -4 -23 19 -23 15 0 26
-6 26 -13 0 -14 -21 -87 -35 -119 -10 -24 27 -25 46 -2 12 15 14 14 20 -7 4
-13 7 -59 8 -101 1 -72 3 -78 21 -78 13 0 28 12 38 30 9 16 20 30 24 30 6 0
22 -32 71 -142 38 -84 88 -103 101 -36 12 61 20 65 60 31 19 -17 43 -36 53
-42 12 -7 14 -13 7 -18 -6 -5 -17 -25 -25 -46 -8 -23 -21 -40 -34 -42 -69 -17
-220 -45 -237 -45 -29 0 -120 -42 -111 -51 21 -20 178 -90 263 -118 135 -43
249 -60 418 -62 168 -2 294 16 437 62 73 24 244 99 265 117 11 9 -44 42 -78
47 -46 8 -286 57 -289 59 -1 1 -9 18 -18 38 l-15 37 33 20 c19 11 46 32 61 46
32 30 41 26 41 -18 0 -16 5 -32 11 -34 17 -6 74 59 111 124 l32 57 7 -42 c4
-23 10 -45 15 -48 14 -9 40 43 52 105 11 56 13 60 35 54 63 -16 66 -10 38 87
-9 30 -16 70 -16 88 0 29 2 31 18 21 21 -13 87 -4 98 13 4 6 -2 18 -13 27 -11
9 -28 29 -38 44 -16 26 -17 34 -5 95 17 92 -1 434 -29 543 -73 282 -266 503
-507 579 -77 25 -263 35 -347 20z m238 -34 c203 -17 408 -176 519 -402 63
-129 83 -223 96 -459 8 -135 7 -183 -4 -235 -14 -69 -9 -109 20 -141 16 -18
16 -19 -3 -19 -20 0 -43 19 -68 55 -20 30 -29 11 -11 -24 15 -29 15 -31 -4
-41 -16 -9 -26 -7 -46 9 -25 20 -25 20 -5 37 11 10 18 20 17 23 -2 3 -11 30
-20 59 l-15 54 39 -7 c32 -5 40 -4 40 8 0 9 -14 17 -37 22 -72 13 -139 50
-224 125 -48 41 -112 90 -142 109 -61 37 -156 124 -204 186 -22 28 -35 37 -42
29 -8 -7 -4 -20 14 -44 14 -19 25 -46 25 -61 0 -14 13 -53 30 -85 16 -32 28
-60 26 -61 -1 -2 -16 11 -32 27 -16 17 -50 46 -76 65 -43 31 -101 98 -110 127
-3 7 -12 9 -22 5 -17 -7 -17 -9 -4 -25 8 -9 20 -46 27 -81 15 -75 52 -153 88
-187 25 -23 25 -24 5 -24 -47 0 -185 53 -244 93 -70 48 -122 121 -133 188 -9
52 -35 54 -34 2 0 -55 23 -172 42 -215 18 -43 17 -44 -22 -23 -49 25 -99 92
-112 151 -11 48 -25 65 -41 49 -3 -3 1 -31 9 -63 22 -93 20 -246 -6 -312 -11
-30 -21 -69 -21 -87 0 -17 -5 -44 -12 -60 -10 -25 -12 -26 -16 -8 -2 11 -9 25
-14 30 -7 7 -8 3 -5 -10 8 -26 -38 -64 -56 -46 -8 8 -6 15 10 26 12 8 27 31
33 51 8 24 17 34 26 30 9 -3 14 1 14 14 0 34 -19 31 -43 -7 -14 -21 -36 -48
-50 -61 l-25 -23 -4 43 c-3 24 -13 72 -22 107 -16 57 -17 82 -7 235 15 251 56
386 167 552 87 132 201 221 344 270 71 24 199 43 255 38 17 -2 57 -5 90 -8z
m-6 -722 c11 -14 17 -32 14 -40 -3 -8 1 -14 8 -14 6 0 35 -17 63 -39 28 -21
72 -51 99 -66 26 -15 47 -29 47 -31 0 -2 -21 -2 -47 -2 -27 1 -57 -1 -68 -5
-16 -5 -27 3 -51 36 -17 23 -39 58 -50 77 -10 19 -22 37 -25 40 -10 8 -29 48
-29 59 0 19 18 12 39 -15z m-179 -8 c0 -18 148 -148 207 -183 l43 -25 -32 -26
c-31 -26 -63 -86 -54 -101 3 -4 67 -6 143 -4 129 4 140 6 176 31 32 21 42 24
55 14 9 -6 34 -21 54 -32 31 -17 38 -27 49 -73 10 -49 9 -62 -10 -122 -47
-144 -120 -260 -247 -391 -120 -123 -199 -164 -319 -164 -122 0 -211 46 -331
172 -91 94 -143 166 -190 263 l-46 95 16 40 c9 22 16 50 16 63 0 12 9 46 21
76 21 56 28 162 15 231 l-7 35 21 -37 c11 -21 24 -38 28 -38 4 -1 17 -9 30
-20 l22 -18 -30 -33 c-35 -39 -36 -44 -12 -53 9 -4 28 -13 42 -21 17 -9 67
-15 160 -17 l135 -3 -2 29 c-3 43 -56 92 -124 115 -32 11 -66 17 -76 15 -15
-4 -24 8 -46 64 -34 88 -37 140 -3 67 13 -27 36 -62 52 -76 35 -32 138 -86
197 -104 47 -14 48 -16 34 -132 -7 -52 -5 -63 6 -63 11 0 17 22 23 88 l9 87
35 -3 c19 -2 36 -5 37 -6 1 -1 6 -37 10 -81 5 -48 13 -80 21 -83 14 -4 15 24
3 105 -5 33 -4 54 3 56 6 2 6 11 1 23 -5 10 -9 26 -10 34 0 9 -8 14 -19 12
-24 -4 -40 17 -87 116 -43 91 -43 92 -29 92 6 0 10 -7 10 -14z m-170 -216 c0
-5 7 -10 16 -10 15 0 84 -68 84 -82 0 -5 -21 -8 -46 -8 -39 0 -45 2 -34 14 14
18 10 58 -7 64 -8 2 -13 -6 -13 -20 0 -41 -22 -61 -58 -53 -34 7 -37 17 -26
74 6 28 10 31 45 31 22 0 39 -4 39 -10z m548 -42 c3 -44 2 -46 -27 -53 -39 -8
-49 -2 -57 40 -10 53 0 67 43 63 38 -3 38 -4 41 -50z m70 17 c36 -34 36 -36
18 -50 -11 -8 -30 -15 -43 -15 -21 0 -22 3 -13 21 9 16 8 26 -4 44 -32 48 -10
48 42 0z m-736 -25 c3 -32 0 -40 -13 -40 -48 0 -63 28 -32 62 26 29 41 22 45
-22z m556 21 c-9 -15 -9 -25 0 -45 11 -26 11 -26 -33 -26 -25 0 -45 3 -45 7 0
10 72 83 82 83 5 0 3 -9 -4 -19z m-788 -325 c0 -28 92 -196 139 -253 l51 -63
-24 -35 c-14 -20 -27 -41 -30 -48 -6 -17 -21 6 -46 71 -22 57 -68 132 -81 132
-5 0 -9 9 -9 21 0 34 -24 16 -30 -22 -4 -27 -7 -30 -13 -16 -4 10 -7 31 -7 45
0 39 -18 99 -35 115 -19 19 -9 56 14 50 10 -2 23 2 30 11 14 16 41 11 41 -8z
m1201 8 c7 -9 21 -13 35 -10 20 5 22 1 27 -47 3 -28 9 -65 13 -82 l7 -29 -27
17 c-14 10 -30 16 -35 13 -4 -3 -11 -31 -14 -62 -6 -55 -16 -80 -24 -58 -8 23
-34 49 -39 38 -14 -32 -91 -148 -100 -151 -19 -6 -26 41 -8 54 9 6 13 17 9 23
-5 8 -17 3 -39 -17 -17 -16 -44 -40 -61 -53 -39 -33 -18 -4 50 68 27 29 58 65
68 80 26 38 107 203 107 219 0 18 15 16 31 -3z m-828 -488 c9 -7 17 -21 17
-30 0 -24 -35 -20 -48 7 -10 20 -11 20 -11 3 -1 -30 38 -80 90 -116 l48 -32
-61 -58 c-33 -32 -63 -58 -66 -59 -8 -3 -51 165 -52 199 0 14 5 42 11 63 11
40 37 49 72 23z m483 -23 c10 -23 13 -49 9 -72 -15 -87 -40 -191 -46 -189 -3
2 -34 28 -68 60 l-63 56 46 27 c53 31 103 104 91 133 -6 14 -9 11 -17 -15 -5
-18 -15 -33 -23 -33 -21 0 -19 40 3 56 30 24 52 16 68 -23z m-331 -32 c55 -8
138 -1 193 15 20 6 22 3 22 -31 0 -32 -6 -44 -39 -71 -21 -19 -48 -54 -60 -79
-20 -42 -24 -45 -60 -45 -34 0 -40 3 -46 28 -9 36 -49 87 -85 109 -25 14 -30
24 -30 56 0 36 2 39 23 33 12 -4 49 -11 82 -15z m547 -60 c76 -15 140 -30 143
-33 6 -6 -14 -13 -224 -84 -73 -25 -135 -43 -137 -41 -3 3 22 147 32 185 2 8
12 10 26 7 13 -3 85 -18 160 -34z m-788 -50 c10 -44 20 -89 23 -100 4 -17 -15
-13 -177 42 -99 34 -182 66 -183 71 -1 5 12 10 28 13 17 2 77 14 135 27 163
37 153 40 174 -53z m224 -56 c17 -36 15 -45 -9 -45 -17 0 -54 14 -68 26 -8 8
33 44 49 44 9 0 22 -11 28 -25z m207 5 c17 -19 17 -20 -18 -35 -53 -22 -59
-19 -36 20 24 41 30 42 54 15z m-146 -70 c60 0 104 5 131 16 38 16 42 15 62
-2 20 -19 20 -19 -38 -25 -80 -9 -218 -10 -281 -3 -46 6 -50 9 -41 24 10 16
15 16 44 4 20 -8 69 -14 123 -14z"/>
<path d="M1653 2199 c40 -21 122 -97 150 -138 9 -14 19 -22 22 -19 3 3 -15 30
-41 61 -45 55 -128 117 -155 117 -8 -1 3 -10 24 -21z"/>
<path d="M1241 2162 c-21 -40 -5 -192 21 -192 11 0 11 0 -7 50 -18 50 -19 103
-4 132 6 11 8 22 6 25 -3 2 -10 -4 -16 -15z"/>
<path d="M1371 2131 c-1 -49 36 -175 74 -251 37 -74 120 -190 135 -190 6 0
-13 30 -41 68 -69 88 -127 214 -149 321 -12 57 -18 74 -19 52z"/>
<path d="M1100 1909 c0 -79 8 -126 37 -224 22 -76 23 -78 29 -73 2 3 -7 45
-22 94 -20 67 -27 113 -28 186 0 54 -4 98 -8 98 -5 0 -8 -36 -8 -81z"/>
<path d="M1671 1954 c-1 -13 56 -91 111 -152 21 -23 44 -53 50 -67 6 -14 15
-25 20 -25 15 0 -19 53 -84 130 -35 42 -71 87 -80 100 -9 14 -17 20 -17 14z"/>
<path d="M1330 1943 c0 -17 91 -193 100 -193 6 0 0 17 -13 38 -13 20 -35 65
-48 99 -13 35 -27 63 -31 63 -5 0 -8 -3 -8 -7z"/>
<path d="M1960 1876 c0 -5 16 -34 37 -64 37 -56 82 -181 84 -230 0 -15 4 -36
9 -47 8 -18 9 -18 9 -2 2 42 -33 177 -60 232 -29 59 -78 128 -79 111z"/>
<path d="M947 1806 c-12 -30 -19 -156 -10 -156 6 0 13 37 15 83 6 84 5 98 -5
73z"/>
<path d="M1181 1787 c0 -21 8 -66 20 -100 21 -64 67 -152 75 -144 3 2 -4 20
-15 38 -30 52 -60 135 -70 192 -8 48 -9 49 -10 14z"/>
<path d="M1612 1783 c32 -73 93 -167 157 -241 73 -85 66 -59 -9 35 -38 47 -87
119 -107 160 -36 70 -66 103 -41 46z"/>
<path d="M832 1718 c-31 -106 -41 -157 -42 -205 0 -71 15 -48 17 25 1 41 13
102 31 160 17 50 26 92 22 92 -4 0 -17 -33 -28 -72z"/>
<path d="M1928 1743 c16 -21 35 -55 41 -75 7 -21 17 -38 22 -38 5 0 2 17 -6
38 -20 47 -65 112 -77 112 -5 0 4 -17 20 -37z"/>
<path d="M2104 1714 c5 -10 14 -41 21 -69 8 -32 13 -41 14 -25 1 34 -17 98
-31 106 -8 5 -9 1 -4 -12z"/>
<path d="M1900 1512 c0 -33 170 -172 209 -172 8 0 -12 16 -45 36 -65 39 -131
98 -140 126 -5 18 -24 25 -24 10z"/>
<path d="M856 1424 c5 -27 8 -74 7 -104 -1 -43 0 -51 9 -37 12 22 1 174 -14
183 -6 4 -7 -11 -2 -42z"/>
<path d="M2065 1425 c32 -27 45 -31 45 -15 0 6 -6 10 -14 10 -7 0 -19 7 -26
15 -7 8 -18 15 -24 15 -6 -1 3 -12 19 -25z"/>
<path d="M2110 1023 c0 -14 19 -38 25 -32 8 8 -5 39 -16 39 -5 0 -9 -3 -9 -7z"/>
<path d="M1140 1128 c0 -10 99 -9 123 1 10 3 -14 7 -52 6 -39 0 -71 -3 -71 -7z"/>
<path d="M1703 1128 c16 -10 104 -10 110 0 3 4 -23 7 -58 7 -35 0 -58 -3 -52
-7z"/>
<path d="M1570 1009 c0 -6 5 -19 11 -30 11 -22 -5 -54 -22 -43 -5 3 -19 -2
-31 -10 -27 -19 -62 -20 -91 -4 -12 7 -31 13 -42 13 -17 0 -20 6 -17 39 4 48
-21 46 -26 -3 -4 -36 12 -61 38 -61 10 0 31 -7 46 -15 37 -19 65 -19 90 0 10
8 28 15 40 15 40 0 57 46 34 91 -11 20 -30 26 -30 8z"/>
<path d="M1000 1002 c0 -23 27 -66 64 -101 46 -45 47 -28 2 19 -19 19 -42 49
-50 65 -9 17 -16 24 -16 17z"/>
<path d="M1955 991 c-4 -14 -28 -47 -54 -74 -25 -28 -37 -45 -26 -39 40 21
100 102 93 124 -3 7 -8 3 -13 -11z"/>
<path d="M1263 790 c-26 -24 -30 -40 -9 -40 8 0 23 -11 33 -25 27 -38 85 -54
193 -55 110 0 158 11 199 45 16 14 34 25 40 25 15 0 14 33 -1 48 -14 14 -42
16 -34 3 7 -11 -169 -19 -296 -13 -74 3 -98 8 -100 19 -2 11 -8 10 -25 -7z
m417 -40 c3 0 -2 -5 -10 -10 -16 -10 -338 -14 -364 -4 -39 15 5 19 181 17 103
-2 190 -3 193 -3z m-67 -44 c-30 -17 -183 -19 -233 -3 -43 13 -38 14 103 13
102 0 142 -3 130 -10z"/>
<path d="M1375 640 c-8 -12 60 -30 116 -30 52 0 109 17 109 32 0 6 -7 7 -17 2
-29 -13 -141 -17 -173 -5 -17 5 -32 6 -35 1z"/>
</g>
</svg>
