<?xml version="1.0" standalone="no"?>
<!DOCTYPE svg PUBLIC "-//W3C//DTD SVG 20010904//EN"
 "http://www.w3.org/TR/2001/REC-SVG-20010904/DTD/svg10.dtd">
<svg version="1.0" xmlns="http://www.w3.org/2000/svg"
 width="548.000000pt" height="169.000000pt" viewBox="0 0 548.000000 169.000000"
 preserveAspectRatio="xMidYMid meet">

<g transform="translate(0.000000,169.000000) scale(0.100000,-0.100000)"
fill="#000000" stroke="none">
<path d="M192 798 l3 -633 95 0 95 0 3 633 2 632 -100 0 -100 0 2 -632z"/>
<path d="M752 798 l3 -633 95 0 95 0 3 633 2 632 -100 0 -100 0 2 -632z"/>
<path d="M1280 1420 c-3 -426 2 -1246 8 -1252 5 -5 47 -8 93 -6 l84 3 3 633 2
632 -95 0 c-57 0 -95 -4 -95 -10z"/>
<path d="M1892 1366 c-66 -64 -67 -66 -52 -90 14 -24 92 -123 625 -796 124
-157 236 -294 250 -304 20 -16 27 -17 40 -6 15 12 180 220 733 918 l162 206
-67 68 c-37 37 -73 68 -79 68 -7 0 -54 -53 -105 -117 -51 -65 -212 -269 -357
-453 -146 -184 -275 -346 -287 -358 l-22 -24 -279 352 c-153 194 -322 408
-374 476 -52 67 -101 123 -108 123 -6 1 -42 -28 -80 -63z"/>
<path d="M4002 798 l3 -633 75 -3 c41 -2 85 0 97 3 l23 5 0 630 0 630 -100 0
-100 0 2 -632z"/>
<path d="M4562 798 l3 -633 95 0 95 0 3 633 2 632 -100 0 -100 0 2 -632z"/>
<path d="M5089 1418 c-2 -7 -3 -293 -1 -636 l2 -623 93 3 92 3 3 633 2 632
-94 0 c-66 0 -95 -4 -97 -12z"/>
</g>
</svg>
