<?xml version="1.0" standalone="no"?>
<!DOCTYPE svg PUBLIC "-//W3C//DTD SVG 20010904//EN"
 "http://www.w3.org/TR/2001/REC-SVG-20010904/DTD/svg10.dtd">
<svg version="1.0" xmlns="http://www.w3.org/2000/svg"
 width="2740.000000pt" height="2740.000000pt" viewBox="0 0 2740.000000 2740.000000"
 preserveAspectRatio="xMidYMid meet">
<metadata>
Created by potrace 1.11, written by Peter Selinger 2001-2013
</metadata>
<g transform="translate(0.000000,2740.000000) scale(0.100000,-0.100000)"
fill="#000000" stroke="none">
<path d="M1043 16622 l-92 -3 5 -1327 c2 -730 4 -1331 4 -1337 0 -5 -1 -61 -2
-123 -2 -61 1 -112 5 -112 5 0 5 -5 1 -12 -9 -14 -9 -182 0 -196 3 -6 2 -13
-3 -17 -7 -3 -7 -15 -1 -30 6 -15 6 -27 0 -30 -7 -4 -6 -13 0 -25 7 -13 7 -21
0 -25 -6 -4 -7 -13 -1 -24 6 -10 6 -23 1 -31 -5 -8 -5 -21 0 -30 5 -9 5 -22 0
-30 -5 -8 -6 -19 -3 -24 10 -15 10 -57 1 -62 -5 -3 -5 -10 -1 -17 10 -16 10
-57 0 -57 -4 0 -5 -6 -1 -12 11 -18 11 -170 0 -185 -5 -8 -5 -13 1 -13 10 0
11 -120 1 -136 -4 -6 -4 -14 -1 -18 4 -4 8 -287 9 -629 5 -1408 9 -1817 19
-1820 9 -3 923 -1 935 2 3 0 6 171 7 379 1 207 4 937 7 1622 4 685 9 1937 11
2783 l5 1537 -37 1 c-21 1 -42 1 -46 0 -13 -2 -48 -3 -167 -1 -63 0 -119 0
-125 -1 -5 -1 -13 -1 -17 0 -3 0 -48 0 -100 0 -51 0 -101 0 -110 0 -10 0 -47
1 -84 2 -36 1 -67 -1 -70 -4 -3 -3 -18 -2 -32 1 -15 4 -68 6 -119 4z"/>
<path d="M3770 16618 c-19 -7 -19 -37 -14 -1235 2 -675 4 -1239 3 -1253 -1
-22 0 -138 2 -165 0 -5 -2 -22 -4 -38 -2 -15 0 -30 5 -33 4 -3 5 -11 1 -17 -8
-13 -8 -136 1 -144 2 -3 1 -16 -4 -29 -6 -14 -6 -26 1 -29 5 -4 7 -11 3 -16
-3 -6 -5 -40 -5 -77 0 -37 1 -75 1 -84 0 -10 0 -26 0 -35 0 -26 0 -96 -1 -108
0 -5 1 -27 3 -48 3 -21 1 -40 -3 -43 -4 -2 -5 -14 -3 -27 5 -19 7 -137 4 -202
0 -11 2 -326 4 -700 2 -374 5 -981 7 -1350 1 -368 4 -675 6 -680 2 -7 166 -10
471 -9 257 1 469 2 472 3 3 0 6 126 7 279 1 152 4 880 7 1617 3 737 6 1340 6
1340 1 0 3 694 5 1543 l4 1542 -77 1 c-42 1 -81 1 -85 0 -10 -2 -31 -2 -119
-2 -38 0 -74 0 -80 0 -7 0 -65 0 -128 1 -63 0 -119 0 -125 -1 -5 -1 -13 -1
-17 0 -3 0 -50 0 -105 0 -98 0 -115 1 -186 4 -21 1 -47 -1 -57 -5z"/>
<path d="M6888 16625 c-2 -2 -77 -6 -168 -9 -158 -6 -181 -8 -260 -23 -19 -3
-39 -7 -44 -7 -13 -1 -27 -56 -15 -56 6 0 6 -7 0 -18 -6 -11 -6 -24 0 -35 6
-9 6 -17 2 -17 -4 0 -8 -13 -8 -30 0 -16 3 -30 7 -30 4 0 4 -10 -1 -23 -5 -14
-5 -30 0 -40 6 -9 6 -17 2 -17 -4 0 -8 -11 -8 -25 0 -14 4 -25 8 -25 4 0 3 -8
-2 -18 -5 -10 -6 -24 -1 -32 4 -7 5 -23 0 -35 -4 -12 -4 -29 1 -38 6 -9 6 -17
2 -17 -4 0 -8 -20 -8 -45 0 -25 4 -45 9 -45 5 0 4 -6 -1 -12 -10 -15 -9 -169
1 -186 3 -6 3 -13 -1 -15 -6 -4 -8 -1369 -3 -1792 0 -11 -1 -47 -3 -80 -1 -33
2 -66 7 -72 5 -8 5 -13 0 -13 -5 0 -9 -18 -9 -40 0 -22 4 -40 8 -40 4 0 3 -8
-2 -18 -6 -11 -6 -24 0 -35 6 -9 6 -17 2 -17 -4 0 -8 -11 -8 -25 0 -14 3 -25
7 -25 4 0 3 -11 -2 -25 -6 -16 -6 -25 1 -25 6 0 6 -6 0 -18 -6 -11 -6 -24 0
-34 6 -10 6 -19 0 -23 -7 -4 -7 -15 -1 -30 6 -16 6 -25 0 -25 -6 0 -6 -9 0
-25 6 -15 6 -26 0 -30 -7 -4 -6 -13 0 -25 7 -13 7 -21 0 -25 -6 -4 -8 -11 -4
-16 9 -16 11 -80 2 -85 -5 -3 -4 -13 1 -22 5 -9 5 -26 1 -37 -4 -11 -4 -29 0
-41 5 -11 4 -27 0 -34 -5 -8 -5 -21 -1 -29 4 -9 6 -27 4 -41 -4 -31 -4 -35 0
-87 2 -24 -1 -43 -6 -43 -4 0 -5 -6 0 -12 10 -17 11 -98 1 -119 -4 -9 -4 -19
-1 -23 3 -3 7 -178 9 -388 8 -1056 18 -1820 28 -2022 2 -37 8 -72 14 -78 11
-11 64 -20 129 -22 24 0 43 -3 43 -6 0 -3 70 -5 155 -5 85 0 155 2 155 5 0 3
44 6 98 6 194 3 292 8 293 13 3 13 8 664 14 1791 3 652 6 1190 6 1195 0 6 0
64 -1 130 0 66 0 122 0 125 5 21 2 209 -3 217 -4 6 -4 13 -1 16 3 3 8 645 10
1426 l3 1421 -97 1 c-53 1 -101 1 -105 0 -12 -2 -44 -2 -120 0 -37 1 -70 -1
-73 -4 -3 -3 -18 -1 -34 3 -16 4 -30 7 -32 5z"/>
<path d="M20051 16620 c-34 -4 -46 -10 -52 -27 -5 -15 -5 -23 2 -23 6 0 7 -5
3 -11 -8 -14 -9 -107 0 -116 3 -3 1 -12 -5 -19 -6 -8 -6 -14 0 -18 6 -4 6 -18
1 -36 -5 -17 -5 -32 0 -35 5 -3 6 -15 1 -28 -5 -12 -5 -32 0 -44 5 -13 4 -25
-2 -28 -5 -4 -6 -12 -2 -18 10 -17 10 -70 -1 -84 -4 -7 -5 -13 0 -13 5 0 9
-20 9 -45 0 -25 -4 -45 -9 -45 -5 0 -5 -5 0 -12 5 -7 8 -26 7 -43 -4 -38 -4
-38 0 -110 2 -33 -1 -68 -5 -77 -4 -9 -4 -19 0 -22 10 -6 8 -68 -2 -84 -4 -7
-3 -12 1 -12 10 0 9 -91 -1 -108 -4 -7 -4 -12 1 -12 4 0 9 -404 10 -898 1
-797 9 -2621 16 -3902 l2 -455 45 -1 c25 -1 110 -5 190 -9 262 -12 544 -7 620
10 14 3 43 8 65 11 22 4 43 11 47 18 8 11 13 59 9 86 -1 8 -3 24 -4 35 -2 11
1 25 5 32 5 6 5 14 -2 18 -6 3 -7 11 -4 17 8 12 9 127 1 134 -3 3 -2 18 3 32
4 15 4 37 -1 49 -5 13 -4 25 2 28 5 4 6 13 1 22 -5 8 -6 32 -2 52 4 20 4 46 0
57 -4 10 -4 31 0 45 4 15 4 32 -1 40 -4 7 -4 19 2 25 7 8 7 14 0 18 -6 4 -7
16 -2 29 5 12 5 31 1 42 -4 11 -3 25 2 32 6 7 5 14 -2 18 -6 3 -7 11 -4 17 8
12 9 127 1 134 -3 3 -2 18 2 32 5 15 5 36 1 47 -4 11 -4 32 0 46 4 15 4 32 0
39 -4 7 -4 25 0 40 4 15 4 33 0 40 -4 7 -4 25 0 40 4 15 4 33 -1 41 -4 7 -4
19 2 25 7 8 7 14 0 18 -6 4 -7 16 -2 29 5 12 5 31 1 42 -4 11 -3 25 2 32 6 7
5 14 -2 18 -6 3 -7 11 -4 17 8 12 9 127 1 134 -3 3 -2 18 3 32 4 15 4 37 -1
49 -5 13 -4 25 2 28 5 4 6 13 1 22 -5 8 -6 32 -2 52 4 20 4 46 0 57 -4 10 -4
31 0 45 4 15 4 32 -1 40 -4 7 -4 19 2 25 7 8 7 14 0 18 -6 4 -7 16 -2 29 5 12
5 31 1 42 -4 11 -3 25 2 32 6 7 5 14 -2 18 -6 3 -7 11 -4 17 8 12 9 127 1 134
-3 3 -2 18 2 32 5 15 5 36 1 47 -4 11 -4 32 0 46 4 15 4 32 0 39 -4 7 -4 25 0
40 4 15 4 33 0 40 -4 7 -4 25 0 40 4 15 4 33 -1 41 -4 7 -4 19 2 25 7 8 7 14
0 18 -6 4 -7 16 -2 29 5 12 5 31 1 42 -4 11 -3 25 2 32 6 7 5 14 -2 18 -6 3
-7 11 -4 17 8 12 9 127 1 134 -3 3 -2 18 3 32 4 15 4 37 -1 49 -5 13 -4 25 2
28 5 4 6 13 1 22 -5 8 -6 32 -2 52 4 20 4 46 0 57 -4 10 -4 31 0 45 4 15 4 32
-1 40 -4 7 -4 19 2 25 7 8 7 14 0 18 -6 4 -7 16 -2 29 5 12 5 31 1 42 -4 11
-3 25 2 32 6 7 5 14 -2 18 -6 3 -7 11 -4 17 8 12 9 127 1 134 -3 3 -2 18 2 32
5 15 5 36 1 47 -4 11 -4 32 0 46 4 15 4 32 0 39 -4 7 -4 25 0 40 4 15 4 33 0
40 -4 7 -4 25 0 40 4 15 4 33 -1 41 -4 7 -4 19 2 25 7 8 7 14 0 18 -6 4 -7 16
-2 29 5 12 5 31 1 42 -4 11 -3 25 2 32 6 7 5 14 -2 18 -6 3 -7 11 -4 17 8 12
9 127 1 134 -3 3 -2 18 3 32 4 15 4 37 -1 49 -5 13 -4 25 2 28 5 4 6 13 1 22
-5 8 -6 32 -2 52 4 20 4 46 0 57 -4 10 -4 31 0 45 4 15 4 32 -1 40 -4 7 -4 19
2 25 7 8 7 14 0 18 -6 4 -7 16 -2 29 5 12 5 31 1 42 -4 11 -3 25 2 32 6 7 5
14 -2 18 -6 3 -7 11 -4 17 8 12 9 127 1 134 -3 3 -2 18 2 32 5 15 5 36 1 47
-4 11 -4 32 0 46 4 15 4 32 0 39 -4 7 -4 25 0 40 4 15 4 33 0 40 -4 7 -4 25 0
40 4 15 4 33 -1 41 -4 7 -4 19 2 25 7 8 7 14 0 18 -6 4 -7 16 -2 29 5 12 5 31
1 42 -4 11 -3 25 2 32 6 7 5 14 -2 18 -6 3 -7 11 -4 17 8 12 9 127 1 134 -3 3
-2 18 3 32 4 15 4 37 -1 49 -5 13 -4 25 2 28 5 4 6 13 1 22 -5 8 -6 32 -2 52
4 20 4 46 0 57 -4 10 -4 31 0 45 4 15 4 32 -1 40 -4 7 -4 19 2 25 7 8 7 14 0
18 -6 4 -7 16 -2 29 5 12 5 31 1 42 -4 11 -3 25 2 32 6 7 5 14 -2 18 -6 3 -7
11 -4 17 8 12 9 127 1 134 -3 3 -2 18 2 32 5 15 5 36 1 47 -4 11 -4 32 0 46 4
15 4 32 0 40 -5 7 -4 21 1 30 10 19 -5 37 -16 19 -4 -7 -12 -7 -25 0 -13 7
-21 7 -25 0 -4 -6 -10 -8 -14 -5 -6 3 -121 6 -211 4 -8 0 -67 0 -130 1 -63 0
-119 0 -125 -1 -5 -1 -13 -1 -17 0 -3 0 -50 0 -105 0 -98 0 -108 0 -193 4 -25
1 -65 0 -89 -3z"/>
<path d="M22864 16621 c-2 -2 -17 -4 -33 -3 -21 0 -30 -5 -34 -19 -3 -10 -2
-21 2 -24 5 -2 5 -25 1 -50 -4 -25 -3 -48 1 -50 4 -3 4 -18 0 -33 -5 -15 -5
-36 -1 -47 4 -11 4 -27 -1 -36 -4 -8 -4 -21 1 -28 4 -8 4 -26 0 -42 -5 -15 -6
-30 -2 -33 7 -8 7 -330 -1 -343 -4 -6 -4 -13 0 -16 3 -4 7 -474 9 -1044 4
-1631 18 -4534 23 -4553 0 -3 214 -5 473 -5 l473 0 2 400 c1 220 2 438 2 485
1 47 1 110 0 140 0 30 0 60 1 65 6 27 5 42 -3 58 -4 9 -4 17 0 17 4 0 9 397
10 883 6 2654 9 3277 16 3277 5 0 5 5 1 12 -10 16 -12 128 -2 134 4 3 5 13 0
22 -9 20 -8 324 1 339 4 6 3 13 0 17 -9 8 -7 152 2 166 3 5 3 10 -2 10 -4 0
-7 67 -5 150 l3 150 -103 1 c-57 1 -107 0 -113 -1 -5 -1 -17 -1 -25 -1 -23 1
-164 0 -175 0 -5 -1 -37 -1 -70 0 -33 0 -67 1 -75 1 -8 -1 -43 0 -78 1 -34 1
-64 0 -66 -2 -3 -2 -55 -2 -116 1 -61 3 -114 3 -116 1z"/>
<path d="M25928 16625 c-2 -2 -70 -6 -153 -9 -196 -7 -253 -14 -295 -34 -35
-17 -35 -18 -36 -83 0 -36 -4 -70 -8 -77 -4 -7 -3 -12 1 -12 10 0 9 -58 -1
-67 -3 -3 -1 -14 5 -24 5 -11 6 -19 2 -19 -4 0 -8 -531 -8 -1180 0 -665 4
-1180 9 -1180 5 0 4 -6 -1 -12 -5 -7 -7 -62 -6 -123 4 -135 4 -121 0 -173 -1
-24 1 -46 5 -48 5 -3 5 -10 1 -17 -9 -15 -10 -57 -2 -63 4 -2 4 -18 -1 -34 -5
-19 -5 -30 1 -30 6 0 7 -6 0 -17 -5 -10 -5 -26 0 -41 5 -13 6 -21 1 -19 -8 6
-6 -78 3 -93 3 -5 1 -10 -5 -10 -7 0 -8 -6 -1 -18 6 -11 6 -24 0 -35 -7 -11
-7 -17 0 -17 6 0 6 -11 1 -30 -5 -16 -6 -30 -2 -30 4 0 7 -11 7 -25 0 -14 -4
-25 -8 -25 -5 0 -5 -5 -2 -10 10 -16 11 -130 2 -130 -5 0 -5 -5 -2 -11 10 -16
12 -69 3 -75 -4 -3 -3 -15 2 -28 5 -15 5 -27 -3 -35 -6 -6 -7 -11 -1 -11 8 0
12 -244 4 -275 -1 -5 -1 -12 0 -15 1 -3 3 -500 6 -1105 2 -604 5 -1104 8
-1110 2 -7 29 -10 67 -9 127 6 417 15 569 19 85 2 155 5 155 5 0 1 29 2 65 3
l65 2 2 454 c1 249 4 456 7 459 3 3 1 11 -5 19 -9 10 -8 13 0 13 7 0 9 5 4 13
-11 17 -13 36 -4 41 4 3 4 30 1 61 -3 30 -4 57 -2 60 4 3 10 1293 15 3125 1
521 5 798 12 802 7 5 7 8 0 8 -11 0 -14 334 -3 345 4 4 3 17 -2 30 -5 14 -5
26 3 34 6 6 7 11 2 11 -12 0 -12 130 -1 148 4 7 4 12 -1 12 -4 0 -8 38 -8 85
0 47 4 85 9 85 5 0 4 6 0 13 -5 6 -9 23 -7 37 5 65 5 139 1 146 -3 5 -2 18 2
29 4 11 4 34 -1 52 -4 18 -3 35 2 38 4 3 5 15 0 26 -4 12 -5 42 -1 67 3 26 3
61 0 77 l-5 30 -89 5 c-48 3 -89 3 -91 0 -2 -3 -44 -3 -94 0 -50 3 -101 2
-113 -1 -13 -3 -35 -2 -50 2 -14 4 -28 6 -30 4z"/>
<path d="M9773 16564 c-43 -31 -80 -59 -83 -63 -3 -3 -32 -28 -65 -56 -90 -74
-125 -107 -275 -255 -148 -147 -194 -210 -186 -256 6 -33 48 -114 58 -114 5 0
8 -4 8 -10 0 -13 193 -270 238 -316 6 -7 12 -17 12 -23 0 -5 6 -14 13 -18 7
-4 38 -42 69 -83 31 -41 64 -85 74 -97 36 -41 49 -58 68 -88 11 -17 32 -43 48
-60 15 -16 28 -33 28 -37 0 -4 11 -18 25 -32 14 -14 25 -30 25 -36 0 -5 3 -10
8 -10 4 0 28 -27 52 -60 25 -33 48 -60 53 -60 4 0 7 -4 7 -10 0 -9 14 -29 45
-64 6 -6 35 -42 64 -81 30 -38 58 -71 63 -73 4 -2 8 -10 8 -17 0 -7 4 -15 8
-17 7 -3 52 -57 164 -199 14 -19 35 -44 45 -56 10 -12 29 -36 43 -54 14 -18
45 -58 70 -90 25 -32 55 -70 67 -86 12 -15 31 -38 42 -50 12 -12 21 -25 21
-28 0 -4 6 -12 13 -19 6 -7 23 -28 37 -46 14 -18 32 -41 40 -51 17 -20 19 -23
170 -214 61 -77 125 -158 143 -179 18 -22 43 -55 57 -75 14 -20 33 -42 43 -49
9 -7 17 -19 17 -27 0 -7 4 -15 9 -17 7 -3 126 -149 201 -248 14 -18 30 -38 35
-44 6 -6 26 -31 45 -56 19 -25 37 -47 40 -50 3 -3 27 -34 55 -70 27 -36 52
-67 55 -70 3 -3 37 -45 75 -95 38 -49 74 -95 80 -101 5 -6 21 -26 35 -44 28
-37 69 -89 85 -106 5 -6 21 -26 35 -44 14 -18 63 -82 110 -141 47 -59 113
-143 147 -186 33 -43 69 -88 80 -101 10 -12 26 -32 35 -45 17 -21 75 -94 103
-128 7 -10 37 -48 66 -85 30 -38 64 -80 76 -94 13 -14 23 -28 23 -31 0 -3 12
-19 28 -35 15 -17 38 -45 52 -64 39 -52 74 -95 83 -98 4 -2 7 -8 7 -13 0 -8
15 -27 60 -74 11 -12 20 -25 20 -29 0 -5 6 -14 13 -20 8 -6 79 -92 158 -191
79 -99 146 -182 149 -185 3 -3 23 -27 45 -55 21 -27 42 -52 45 -55 3 -3 25
-30 50 -60 25 -30 47 -57 50 -60 3 -3 25 -30 50 -60 25 -30 54 -65 65 -77 11
-11 27 -30 35 -42 9 -11 45 -52 80 -92 36 -40 66 -76 68 -80 2 -5 8 -9 14 -9
5 0 16 -6 23 -12 38 -34 80 -55 103 -52 6 1 19 2 28 3 14 1 106 89 150 143 5
7 53 65 105 128 51 64 108 133 124 154 17 21 37 46 45 56 27 33 44 54 125 155
44 55 84 105 90 112 5 7 15 18 20 25 31 40 171 214 175 218 3 3 30 37 60 75
30 39 57 72 60 75 3 3 18 23 35 45 16 22 32 42 35 45 3 3 28 34 55 70 28 36
53 67 56 70 4 3 24 28 44 55 21 28 41 52 44 55 3 3 26 32 51 65 25 33 48 62
51 65 4 3 24 28 44 55 21 28 45 57 54 66 9 9 25 29 36 44 11 16 49 65 85 110
36 45 79 99 95 120 79 100 120 150 127 153 4 2 8 8 8 14 0 6 8 18 18 27 10 9
29 32 42 51 13 19 27 37 30 40 3 3 41 50 85 105 43 55 84 105 90 111 5 7 19
24 30 40 11 15 35 46 53 68 52 64 56 69 87 111 17 22 35 45 41 50 6 6 35 41
65 80 30 38 59 77 66 85 7 8 34 42 60 76 26 33 62 77 78 98 17 21 37 46 45 56
8 9 26 32 40 50 76 99 235 295 242 298 4 2 8 10 8 17 0 7 3 15 8 17 4 2 68 80
142 173 74 94 137 172 140 175 3 3 19 23 36 45 29 40 46 61 74 95 8 9 26 32
40 51 14 18 33 41 43 51 9 10 17 20 17 23 0 4 20 30 45 59 6 6 26 31 45 56 19
25 42 54 52 65 10 11 55 67 100 125 45 58 86 107 90 108 4 2 8 10 8 17 0 7 4
15 8 17 5 2 52 59 106 128 53 69 107 137 119 151 12 14 31 38 42 53 11 16 25
33 31 40 6 6 27 34 48 61 21 28 41 52 45 55 3 3 31 39 62 80 31 41 65 86 77
100 29 34 97 120 162 205 29 39 59 77 67 85 7 8 25 30 39 48 l26 32 -248 248
c-259 257 -309 304 -384 362 -24 19 -50 40 -57 47 -37 34 -52 27 -136 -59 -45
-46 -104 -110 -132 -142 -27 -33 -55 -64 -60 -70 -11 -11 -141 -169 -160 -194
-5 -7 -21 -26 -35 -41 -14 -15 -50 -61 -82 -102 -31 -41 -65 -84 -75 -96 -10
-12 -27 -34 -38 -48 -11 -15 -31 -39 -45 -53 -13 -15 -24 -29 -24 -32 0 -3 -6
-12 -13 -20 -6 -8 -33 -42 -60 -75 -26 -33 -51 -61 -55 -63 -4 -2 -8 -10 -8
-17 0 -7 -4 -15 -8 -17 -8 -3 -137 -164 -286 -357 -32 -42 -62 -78 -65 -81 -3
-3 -25 -30 -47 -60 -23 -30 -50 -65 -60 -78 -27 -32 -51 -62 -169 -212 -58
-74 -112 -142 -119 -152 -8 -9 -31 -39 -52 -67 -21 -28 -42 -51 -46 -51 -4 0
-8 -7 -8 -15 0 -7 -6 -18 -12 -22 -7 -4 -29 -28 -48 -53 -19 -25 -39 -51 -45
-58 -5 -7 -18 -22 -27 -33 -10 -10 -18 -23 -18 -29 0 -5 -6 -13 -13 -17 -8 -4
-18 -15 -23 -24 -5 -9 -24 -34 -41 -55 -18 -22 -52 -64 -75 -94 -23 -30 -45
-57 -48 -60 -3 -3 -30 -36 -60 -75 -30 -38 -58 -74 -62 -80 -82 -105 -105
-132 -115 -143 -7 -7 -13 -16 -13 -20 0 -4 -13 -20 -28 -37 -15 -16 -52 -61
-82 -100 -30 -38 -59 -75 -65 -81 -5 -6 -17 -22 -25 -34 -8 -13 -22 -30 -31
-39 -8 -9 -29 -34 -45 -56 -16 -22 -34 -44 -40 -50 -6 -5 -26 -30 -44 -55 -18
-25 -38 -49 -45 -55 -6 -5 -26 -31 -45 -57 -18 -27 -37 -48 -41 -48 -4 0 -10
-8 -13 -17 -3 -10 -16 -29 -29 -43 -12 -14 -45 -54 -72 -90 -28 -36 -57 -72
-65 -80 -8 -8 -37 -44 -64 -80 -27 -36 -54 -69 -60 -75 -6 -5 -33 -39 -61 -75
-27 -36 -52 -67 -55 -70 -3 -3 -29 -36 -59 -74 -29 -37 -59 -75 -67 -85 -7 -9
-47 -58 -88 -109 -41 -51 -82 -99 -90 -108 -9 -8 -16 -19 -16 -22 0 -4 -11
-19 -25 -34 -13 -14 -57 -66 -98 -115 -40 -48 -94 -109 -118 -135 l-44 -48
-42 53 c-23 28 -50 62 -60 75 -16 21 -151 192 -171 217 -4 6 -28 35 -52 65
-25 31 -56 70 -70 89 -14 18 -30 38 -35 44 -6 7 -24 30 -40 52 -17 22 -35 45
-41 50 -6 6 -26 30 -45 55 -18 25 -36 47 -39 50 -3 3 -28 34 -55 70 -63 81
-77 99 -90 114 -6 6 -24 29 -40 51 -17 22 -38 49 -48 60 -10 11 -47 58 -84
105 -36 47 -68 87 -72 90 -4 3 -18 21 -31 40 -13 19 -27 37 -30 40 -4 3 -40
48 -81 100 -90 115 -101 129 -116 145 -7 8 -13 18 -13 24 0 6 -3 11 -8 11 -4
0 -32 33 -62 72 -59 78 -61 80 -120 148 -22 25 -40 51 -40 58 0 6 -4 12 -9 12
-5 0 -17 13 -28 29 -10 15 -32 46 -50 67 -17 21 -62 77 -100 124 -37 47 -71
87 -75 88 -4 2 -8 8 -8 13 0 5 -7 17 -15 26 -23 28 -260 328 -370 469 -55 70
-108 136 -117 146 -10 10 -18 22 -18 27 0 5 -3 11 -8 13 -4 2 -23 23 -42 48
-19 25 -40 52 -47 60 -19 24 -152 193 -173 220 -68 87 -83 106 -93 112 -7 4
-8 8 -4 8 5 0 1 7 -7 16 -9 9 -29 32 -44 52 -15 21 -29 39 -32 42 -6 5 -97
123 -140 180 -14 18 -35 45 -47 59 -40 46 -44 51 -39 51 3 0 -5 10 -17 23 -12
13 -49 59 -82 102 -33 43 -65 83 -70 89 -6 6 -22 27 -35 46 -13 19 -37 49 -52
65 -15 17 -28 33 -28 36 0 3 -10 17 -22 31 -13 13 -34 39 -48 58 -14 18 -38
50 -55 70 -16 20 -43 53 -60 74 -16 21 -37 47 -47 58 -9 10 -31 37 -50 60 -57
71 -101 121 -155 178 -29 30 -61 65 -71 77 -11 13 -22 20 -26 16 -3 -3 -6 -1
-6 5 0 6 -9 16 -19 22 -16 8 -33 0 -98 -46z"/>
</g>
</svg>
