<?xml version="1.0" standalone="no"?>
<!DOCTYPE svg PUBLIC "-//W3C//DTD SVG 20010904//EN"
 "http://www.w3.org/TR/2001/REC-SVG-20010904/DTD/svg10.dtd">
<svg version="1.0" xmlns="http://www.w3.org/2000/svg"
 width="300.000000pt" height="79.000000pt" viewBox="0 0 300.000000 79.000000"
 preserveAspectRatio="xMidYMid meet">
<metadata>
Created by potrace 1.10, written by Peter Selinger 2001-2011
</metadata>
<g transform="translate(0.000000,79.000000) scale(0.100000,-0.100000)"
fill="#000000" stroke="none">
<path d="M2023 657 c-40 -13 -46 -43 -8 -33 l25 7 -2 -173 c-3 -171 -3 -173
-25 -176 -13 -2 -23 -10 -23 -18 0 -11 16 -14 70 -14 54 0 70 3 70 14 0 8 -10
16 -22 18 -23 3 -23 4 -26 196 -2 144 -5 192 -15 191 -6 -1 -27 -7 -44 -12z"/>
<path d="M2194 645 c-9 -23 3 -45 24 -45 29 0 48 26 32 45 -7 8 -21 15 -32 15
-10 0 -21 -7 -24 -15z"/>
<path d="M1410 615 c0 -30 -31 -75 -55 -81 -34 -9 -32 -34 3 -34 l27 0 -3 -88
c-4 -101 7 -138 45 -153 31 -12 77 -4 98 18 25 25 17 34 -15 18 -17 -9 -40
-13 -50 -10 -18 6 -20 16 -20 95 0 49 -3 95 -6 104 -5 13 2 16 40 16 34 0 46
4 46 15 0 11 -12 15 -44 15 l-43 0 5 50 c4 41 2 50 -12 50 -9 0 -16 -7 -16
-15z"/>
<path d="M1632 608 c-11 -13 -24 -35 -27 -50 -5 -18 -14 -28 -26 -28 -10 0
-19 -7 -19 -15 0 -8 9 -15 20 -15 20 0 21 -5 18 -112 -3 -101 -5 -113 -20
-110 -11 2 -18 -3 -18 -13 0 -12 13 -15 65 -15 51 0 65 3 65 15 0 8 -9 15 -20
15 -19 0 -20 7 -20 110 0 103 1 110 20 110 11 0 20 7 20 15 0 8 -9 15 -21 15
-17 0 -20 5 -17 33 4 42 39 50 56 12 13 -28 33 -32 52 -10 9 11 7 19 -14 40
-33 33 -84 34 -114 3z"/>
<path d="M1119 521 c-47 -16 -58 -42 -14 -33 l25 4 0 -86 c0 -95 -10 -126 -40
-126 -11 0 -20 -7 -20 -15 0 -13 13 -15 77 -13 50 2 78 7 81 16 2 7 -5 12 -15
12 -33 0 -43 21 -43 95 0 62 3 74 23 93 25 24 57 28 73 12 15 -15 44 -1 44 21
0 42 -57 46 -112 7 -27 -18 -27 -18 -30 5 l-3 24 -46 -16z"/>
<path d="M2198 521 c-50 -15 -68 -42 -23 -33 l25 4 0 -106 0 -106 -25 0 c-16
0 -25 -6 -25 -15 0 -12 15 -15 75 -15 58 0 75 3 75 14 0 8 -10 16 -22 18 -22
3 -23 8 -28 129 l-5 125 -47 -15z"/>
<path d="M483 517 c-38 -13 -46 -40 -10 -35 l22 3 0 -165 c0 -163 0 -165 -22
-168 -51 -7 -19 -22 47 -22 66 0 98 15 48 22 -21 3 -23 9 -26 71 l-3 67 33
-20 c110 -67 227 56 174 184 -30 71 -100 95 -164 56 -40 -25 -42 -25 -42 0 0
22 -8 23 -57 7z m184 -32 c23 -16 47 -82 39 -106 -2 -8 -7 -26 -10 -41 -8 -35
-56 -62 -97 -53 -43 10 -59 40 -59 111 l0 62 43 21 c50 25 56 25 84 6z"/>
<path d="M849 507 c-43 -29 -59 -60 -59 -117 0 -62 27 -104 83 -125 56 -21
110 -9 152 35 22 23 29 41 32 82 5 63 -9 94 -56 125 -45 31 -107 31 -152 0z
m129 -32 c55 -69 19 -194 -56 -195 -49 0 -94 82 -78 143 18 74 94 103 134 52z"/>
<path d="M1793 515 c-81 -35 -99 -162 -32 -224 39 -36 95 -45 146 -26 57 22
83 62 83 131 0 104 -97 163 -197 119z m116 -41 c77 -98 -21 -258 -103 -169
-42 45 -42 130 0 176 26 29 78 25 103 -7z"/>
<path d="M2380 512 c-46 -23 -80 -75 -80 -122 0 -76 78 -146 153 -136 75 9
121 60 121 135 -1 64 -24 105 -74 125 -52 20 -77 20 -120 -2z m111 -38 c20
-21 24 -36 24 -84 0 -48 -4 -63 -24 -84 -38 -41 -91 -34 -116 15 -55 105 41
232 116 153z"/>
</g>
</svg>
