<?xml version="1.0" standalone="no"?>
<!DOCTYPE svg PUBLIC "-//W3C//DTD SVG 20010904//EN"
 "http://www.w3.org/TR/2001/REC-SVG-20010904/DTD/svg10.dtd">
<svg version="1.0" xmlns="http://www.w3.org/2000/svg"
 width="900.000000pt" height="900.000000pt" viewBox="0 0 900.000000 900.000000"
 preserveAspectRatio="xMidYMid meet">
<metadata>
Created by potrace 1.10, written by Peter Selinger 2001-2011
</metadata>
<g transform="translate(0.000000,900.000000) scale(0.100000,-0.100000)"
fill="#428bca" stroke="none">
<path d="M8650 8176 c-14 -8 -47 -26 -75 -40 -27 -15 -57 -30 -65 -35 -8 -4
-33 -16 -55 -26 -22 -9 -47 -21 -55 -25 -56 -31 -158 -80 -167 -80 -6 0 -16
-7 -23 -15 -7 -8 -20 -15 -30 -15 -10 0 -23 -7 -30 -15 -7 -8 -20 -15 -29 -15
-9 0 -70 -27 -136 -60 -66 -33 -125 -60 -131 -60 -7 0 -19 -6 -26 -12 -17 -17
-140 -78 -155 -78 -7 0 -32 -13 -56 -30 -25 -16 -53 -30 -63 -30 -11 0 -28 -7
-38 -15 -11 -8 -26 -15 -32 -15 -7 0 -36 -13 -64 -30 -28 -16 -57 -30 -64 -30
-8 0 -19 -7 -26 -15 -7 -8 -21 -15 -31 -15 -10 0 -38 -13 -62 -30 -25 -16 -51
-30 -58 -30 -8 0 -23 -7 -33 -15 -11 -8 -30 -15 -42 -15 -12 0 -24 -7 -28 -15
-3 -8 -12 -15 -21 -15 -8 0 -41 -13 -72 -29 -32 -16 -79 -39 -105 -51 -27 -12
-50 -26 -54 -31 -3 -5 -13 -9 -23 -9 -10 0 -24 -7 -31 -15 -7 -8 -23 -15 -36
-15 -12 0 -25 -4 -29 -9 -3 -6 -27 -20 -53 -32 -133 -62 -130 -59 -108 -91 9
-12 16 -36 16 -53 0 -16 7 -48 15 -70 8 -22 15 -62 15 -90 0 -27 7 -68 15 -90
8 -22 15 -58 15 -80 0 -22 7 -49 15 -59 8 -11 15 -40 15 -64 0 -24 5 -53 11
-64 10 -18 23 -93 47 -268 4 -30 13 -65 20 -77 7 -12 12 -39 12 -61 0 -21 6
-52 14 -68 7 -16 17 -62 20 -102 3 -41 11 -82 16 -92 6 -10 10 -38 10 -62 0
-24 7 -53 15 -64 8 -10 15 -38 15 -61 0 -23 6 -57 14 -75 8 -18 19 -73 26
-123 20 -163 28 -205 38 -218 5 -6 13 -32 17 -57 4 -25 14 -52 22 -62 8 -9 13
-29 11 -45 -4 -40 -35 -34 -73 14 -16 21 -67 74 -113 119 -79 77 -122 139
-122 175 0 22 -31 81 -47 92 -7 4 -13 16 -13 26 0 9 -13 30 -30 46 -16 16 -30
34 -30 40 0 31 -248 245 -284 245 -7 0 -19 7 -26 15 -7 8 -18 15 -24 15 -6 0
-38 13 -71 29 -64 30 -134 51 -200 59 -22 2 -46 9 -53 15 -8 6 -64 14 -125 17
-62 3 -116 8 -122 10 -5 2 -17 0 -25 -3 -8 -3 -58 -8 -110 -10 -52 -2 -108 -8
-125 -14 -16 -7 -57 -20 -90 -29 -33 -10 -67 -24 -76 -31 -8 -7 -23 -13 -32
-13 -10 0 -36 -13 -59 -30 -22 -16 -47 -30 -54 -30 -8 0 -65 -51 -126 -114
-119 -120 -168 -177 -168 -194 0 -15 -70 -82 -85 -82 -7 0 -30 -13 -51 -28
-21 -16 -46 -31 -54 -35 -36 -17 -131 -90 -183 -140 -19 -19 -45 -16 -82 9
-11 8 -31 14 -46 14 -15 0 -40 7 -55 15 -16 8 -41 15 -55 15 -15 0 -43 7 -62
15 -20 8 -49 15 -64 15 -15 0 -37 7 -47 15 -11 8 -30 15 -42 15 -12 0 -38 7
-57 15 -20 8 -51 15 -69 15 -18 1 -44 7 -58 15 -14 8 -36 14 -50 15 -15 0 -30
4 -36 10 -5 5 -30 14 -54 19 -77 17 -227 57 -275 73 -16 6 -46 13 -65 16 -19
2 -44 11 -55 18 -11 8 -35 14 -55 14 -19 1 -46 7 -60 15 -14 8 -39 14 -55 15
-17 0 -40 6 -51 14 -11 8 -37 18 -58 22 l-39 7 7 -34 c13 -74 25 -385 30 -814
4 -348 8 -466 20 -518 8 -38 12 -75 9 -83 -9 -23 -37 -16 -86 21 -25 19 -50
35 -55 35 -6 0 -12 7 -16 15 -3 8 -14 15 -24 15 -11 0 -25 7 -32 15 -7 8 -17
15 -22 15 -6 0 -27 13 -48 30 -21 16 -42 30 -47 30 -6 0 -28 13 -49 28 -21 16
-46 31 -54 35 -8 4 -28 16 -45 27 -16 11 -43 26 -60 33 -16 8 -39 24 -49 36
-11 11 -25 21 -33 21 -17 0 -65 30 -76 47 -4 7 -14 13 -22 13 -8 0 -31 12 -52
26 -21 14 -47 30 -58 35 -22 11 -41 22 -102 62 -24 15 -45 27 -49 27 -3 0 -23
14 -44 30 -21 17 -41 30 -45 30 -4 0 -27 13 -52 30 -24 16 -51 30 -59 30 -7 0
-14 4 -14 9 0 10 -24 25 -85 54 -16 8 -39 24 -49 36 -11 11 -25 21 -31 21 -7
0 -18 7 -25 15 -18 22 -24 20 -72 -31 -89 -95 -609 -613 -618 -616 -5 -2 -150
-144 -323 -315 -173 -172 -320 -313 -326 -313 -6 0 -11 -6 -11 -14 0 -13 86
-46 118 -46 6 0 23 -6 39 -14 60 -30 105 -46 126 -46 13 0 32 -7 43 -15 10 -8
27 -15 36 -15 9 0 30 -7 47 -15 17 -8 45 -22 62 -30 17 -8 43 -15 57 -15 15 0
36 -7 46 -15 11 -8 26 -15 34 -15 8 0 44 -14 79 -30 34 -17 73 -30 86 -30 12
-1 33 -7 47 -15 14 -8 34 -14 46 -15 11 0 25 -5 32 -12 13 -13 73 -37 112 -45
24 -5 69 -23 122 -50 14 -7 35 -13 45 -13 11 0 28 -7 39 -15 10 -8 29 -15 41
-15 12 0 39 -7 60 -16 21 -9 54 -24 73 -32 19 -8 46 -20 60 -27 14 -7 42 -15
62 -18 21 -3 60 -17 89 -31 28 -14 58 -26 67 -26 9 0 26 -7 36 -15 11 -8 31
-15 45 -15 14 0 35 -7 45 -15 11 -8 29 -15 40 -15 12 0 30 -7 40 -15 11 -8 30
-15 42 -15 12 0 27 -7 34 -15 7 -8 25 -15 39 -15 15 0 36 -7 47 -15 10 -8 30
-15 44 -15 14 0 34 -7 44 -15 11 -8 30 -15 42 -15 12 0 24 -5 26 -11 2 -5 19
-14 38 -19 41 -10 139 -44 205 -71 11 -4 31 -11 44 -14 21 -6 23 -11 17 -48
-4 -23 -13 -48 -20 -57 -7 -8 -16 -26 -19 -40 -3 -14 -10 -40 -16 -57 -26 -78
-33 -100 -41 -128 -13 -46 -31 -97 -46 -127 -8 -14 -14 -37 -14 -50 -1 -12 -7
-34 -15 -48 -8 -14 -15 -36 -15 -50 0 -14 -7 -34 -15 -44 -8 -11 -15 -29 -15
-41 0 -11 -6 -29 -14 -40 -7 -11 -16 -33 -19 -50 -18 -91 -34 -146 -45 -157
-6 -6 -12 -21 -12 -33 0 -12 -7 -30 -15 -41 -8 -10 -15 -29 -15 -40 0 -12 -7
-35 -15 -50 -8 -16 -15 -43 -15 -60 0 -17 -7 -37 -15 -44 -8 -7 -15 -24 -15
-39 0 -14 -7 -35 -15 -45 -8 -11 -15 -31 -15 -45 0 -14 -7 -35 -15 -45 -8 -11
-15 -34 -15 -52 0 -17 -7 -37 -15 -44 -8 -7 -15 -25 -15 -41 0 -15 -4 -30 -9
-33 -5 -4 -17 -31 -27 -62 -21 -68 -16 -74 72 -74 34 0 78 -7 97 -15 20 -8 51
-15 70 -15 18 0 38 -5 43 -10 6 -6 44 -15 85 -20 41 -5 90 -13 109 -19 19 -6
51 -11 71 -11 20 0 53 -7 72 -15 20 -8 51 -15 70 -15 18 0 38 -5 43 -10 6 -6
44 -15 85 -20 41 -5 90 -13 109 -19 19 -6 51 -11 71 -11 20 0 53 -7 72 -15 20
-8 54 -15 75 -15 21 0 43 -5 48 -10 6 -6 41 -14 80 -19 38 -5 85 -14 104 -20
19 -6 51 -11 71 -11 20 0 53 -7 72 -15 20 -8 50 -15 67 -15 17 0 45 -7 61 -16
18 -9 49 -14 77 -12 l47 3 7 115 c6 115 15 197 43 405 8 61 15 144 15 186 0
41 7 101 15 132 8 32 15 97 15 145 0 49 4 92 9 98 5 5 14 72 21 149 6 77 14
144 17 149 3 4 9 77 14 162 4 84 13 162 18 173 6 11 11 75 11 144 0 68 3 126
6 129 13 14 44 -8 72 -50 43 -65 158 -181 217 -218 16 -11 41 -30 55 -43 14
-13 34 -27 45 -32 43 -20 110 -63 118 -75 4 -8 16 -14 26 -14 10 0 24 -7 31
-15 7 -8 20 -15 30 -15 10 0 23 -7 30 -15 7 -8 23 -15 35 -15 12 0 28 -7 35
-15 7 -8 21 -15 31 -15 10 0 20 -4 24 -9 3 -5 20 -13 38 -17 17 -3 45 -12 62
-19 162 -67 284 -87 540 -88 173 -1 317 12 368 32 16 6 39 11 52 11 13 0 36 5
52 12 65 26 129 47 146 48 11 0 31 6 45 14 15 7 59 28 97 46 39 17 77 36 85
41 8 5 21 11 28 14 41 16 52 23 147 87 39 26 90 65 115 87 25 22 48 41 52 41
10 0 148 136 148 145 0 4 18 28 41 53 23 26 50 64 60 84 11 21 26 38 34 38 9
0 34 -17 58 -38 44 -39 72 -58 97 -68 8 -3 42 -19 75 -35 59 -29 62 -29 236
-29 138 0 179 3 195 15 10 8 29 15 41 15 12 0 24 4 27 9 3 4 36 18 73 31 37
12 84 36 104 51 20 16 42 29 48 29 7 0 14 7 17 15 4 8 13 15 22 15 18 0 162
146 162 165 0 7 7 15 15 19 8 3 15 14 15 25 0 11 6 24 13 28 19 12 47 60 47
81 0 10 7 27 15 38 8 10 15 30 15 43 0 14 8 33 17 43 25 28 25 348 0 395 -9
18 -17 41 -17 52 0 18 -8 39 -47 114 -53 103 -60 113 -163 212 -60 59 -162
135 -180 135 -4 0 -13 7 -20 15 -7 8 -24 15 -39 15 -14 1 -37 7 -51 15 -14 8
-42 14 -62 15 -20 0 -40 5 -44 11 -11 18 -233 1 -296 -22 -29 -10 -62 -19 -74
-19 -23 0 -54 29 -54 51 1 33 18 40 101 45 46 3 97 9 112 14 16 5 69 12 118
16 49 4 92 11 95 15 3 5 33 9 67 9 34 0 89 7 122 15 33 8 93 14 132 15 67 0
73 2 77 23 3 12 8 36 11 52 4 17 9 57 12 90 2 33 11 74 19 92 8 17 14 51 14
76 0 25 5 58 10 73 6 14 13 67 17 117 3 50 12 103 20 117 7 14 13 48 13 76 0
29 7 65 15 80 8 16 15 52 15 81 0 28 5 64 10 79 6 15 13 70 17 123 3 54 11
106 19 118 8 12 14 48 14 81 0 32 5 63 12 70 7 7 16 41 19 75 4 34 12 82 17
107 6 25 12 80 15 124 3 43 10 83 16 89 6 6 11 38 11 71 1 38 6 68 15 80 9 11
15 42 15 70 0 28 7 69 14 91 8 22 16 79 19 126 2 47 10 95 16 107 6 11 11 45
11 74 0 30 6 60 12 66 7 7 16 43 20 80 3 37 11 90 17 117 12 59 31 197 38 275
2 30 11 69 19 87 8 17 14 53 14 80 0 27 5 54 12 61 6 6 15 58 19 115 5 57 13
116 19 131 5 15 10 51 10 79 0 30 7 60 15 71 8 11 15 38 15 61 0 23 7 50 15
61 35 47 2 71 -55 40z m-104 -232 c10 -41 -49 -381 -70 -401 -14 -14 -26 12
-20 43 4 22 2 40 -7 50 -7 9 -18 25 -24 37 -18 37 -35 32 -35 -10 0 -22 -5
-44 -11 -50 -6 -6 -13 -39 -16 -74 -2 -35 -9 -75 -14 -89 -5 -14 -13 -65 -18
-115 -17 -164 -32 -279 -47 -360 -8 -44 -14 -102 -14 -128 0 -27 -4 -57 -10
-67 -5 -10 -14 -60 -19 -111 -20 -184 -41 -348 -51 -391 -5 -24 -10 -64 -10
-90 0 -26 -5 -59 -11 -75 -6 -15 -14 -64 -19 -108 -21 -204 -41 -360 -50 -398
-5 -23 -10 -62 -10 -87 0 -25 -5 -61 -11 -80 -5 -19 -14 -73 -19 -120 -5 -47
-18 -152 -30 -235 -12 -82 -24 -188 -28 -235 l-7 -85 -35 -3 c-19 -1 -71 -9
-115 -17 -44 -8 -141 -21 -215 -30 -74 -9 -160 -21 -190 -27 -57 -11 -186 -29
-230 -31 -28 -2 -25 -14 -48 223 -6 58 -15 118 -21 133 -6 16 -11 50 -11 76 0
26 -4 72 -10 102 -11 62 -38 275 -50 399 -4 47 -13 98 -19 113 -6 16 -11 51
-11 79 0 28 -7 88 -15 132 -14 76 -26 178 -45 376 -4 47 -13 101 -19 120 -6
19 -11 56 -11 82 0 26 -5 69 -10 95 -10 48 -34 237 -50 405 -5 48 -13 96 -19
107 -6 11 -11 28 -11 39 0 21 39 52 66 52 25 0 153 41 160 51 3 5 16 9 29 9
13 0 36 6 52 14 15 8 55 22 88 31 33 9 73 23 88 31 16 8 39 14 51 14 12 0 27
5 34 12 7 7 33 18 60 25 108 31 153 45 207 68 17 7 64 23 105 35 41 13 79 27
85 31 5 5 20 9 33 9 13 0 36 6 50 14 15 7 59 23 97 36 39 12 78 26 87 31 10 5
25 9 34 9 9 0 28 6 42 14 55 28 120 56 130 56 18 0 25 20 12 35 -22 26 -92 17
-235 -29 -58 -19 -161 -50 -225 -67 -25 -7 -52 -18 -60 -25 -8 -6 -37 -15 -65
-19 -27 -4 -54 -10 -60 -15 -5 -4 -28 -11 -50 -14 l-40 -7 27 25 c15 14 33 26
41 26 8 0 34 11 58 25 106 59 565 285 581 285 9 0 20 5 23 11 4 5 30 21 58 34
86 39 113 39 123 -1z m-73 -449 c-3 -8 -9 -15 -14 -15 -10 0 -12 24 -3 33 11
11 24 -3 17 -18z m-1689 -381 c3 -9 6 -30 6 -47 0 -17 4 -56 10 -86 10 -63 42
-314 65 -526 9 -77 18 -153 20 -170 12 -79 16 -295 6 -295 -6 0 -11 17 -11 38
0 21 -5 43 -10 48 -16 16 -22 53 -22 122 1 42 -3 62 -11 62 -12 0 -60 231 -62
292 0 14 -3 30 -7 34 -5 4 -8 18 -8 30 0 13 -9 47 -19 76 -11 29 -24 82 -30
118 -46 284 -47 275 7 303 37 20 59 20 66 1z m-1314 -1193 c-5 -11 -13 -21
-18 -23 -13 -6 -92 -104 -92 -115 0 -6 -4 -13 -9 -15 -14 -4 -25 -58 -13 -58
5 0 15 12 21 28 6 15 16 36 23 46 19 28 81 86 94 86 5 0 28 16 49 36 40 36 40
36 110 30 38 -4 99 -9 135 -11 157 -9 306 -50 354 -98 10 -11 27 -17 37 -14
11 3 22 0 27 -6 4 -7 23 -20 43 -30 20 -10 60 -38 90 -63 30 -24 57 -44 61
-44 5 0 8 -5 8 -10 0 -6 21 -31 48 -56 43 -42 46 -47 30 -58 -23 -17 -23 -23
7 -62 14 -18 25 -37 25 -42 0 -21 43 -63 59 -57 12 4 24 -12 48 -68 68 -153
68 -152 67 -392 0 -244 -9 -316 -56 -443 -22 -62 -29 -94 -24 -121 5 -34 3
-39 -19 -49 l-26 -12 21 -40 c23 -44 27 -110 8 -110 -14 1 -54 52 -114 148
-21 35 -47 75 -57 90 -9 15 -20 35 -23 45 -11 30 -45 16 -58 -23 -16 -50 -26
-43 -73 48 -5 11 -43 -12 -48 -29 -9 -28 -22 -23 -29 13 -3 17 -17 54 -30 82
-55 116 -89 284 -84 412 3 83 2 89 -17 89 -17 0 -21 -8 -25 -55 -3 -30 -12
-66 -19 -80 -47 -84 -185 -174 -166 -107 4 12 13 35 21 51 8 16 14 44 14 63 0
18 4 41 9 51 12 22 32 153 25 164 -3 4 -13 8 -24 8 -18 0 -40 -44 -40 -82 0
-10 -12 -37 -27 -61 -16 -23 -30 -47 -33 -53 -6 -14 -106 -96 -140 -115 -30
-16 -82 -36 -130 -48 -84 -22 -156 -40 -162 -41 -16 0 -7 23 30 73 21 29 44
68 51 87 21 57 54 218 48 234 -10 27 -46 7 -53 -30 -4 -22 -20 -46 -48 -69
-63 -55 -185 -145 -197 -145 -13 0 -2 39 17 61 8 8 14 20 14 26 0 5 7 23 15
39 19 39 25 145 8 151 -7 2 -18 -11 -26 -29 -17 -42 -113 -134 -175 -170 -26
-15 -105 -57 -177 -93 -139 -71 -215 -135 -215 -182 0 -24 25 -32 33 -10 3 8
8 9 14 2 5 -5 7 -58 5 -118 l-4 -107 -22 32 c-55 83 -78 211 -51 288 9 25 15
80 16 134 1 152 30 335 65 416 45 104 69 141 127 200 26 27 47 53 47 59 0 9
141 156 170 176 8 6 46 34 83 63 38 29 73 50 78 47 5 -3 -5 -31 -21 -62 -32
-60 -27 -97 6 -47 11 16 42 51 70 79 27 27 53 58 57 68 4 11 17 17 36 17 16 0
42 7 57 15 16 8 39 15 52 15 19 0 21 -3 12 -19z m-2265 -437 c22 -4 45 -10 50
-13 14 -10 110 -37 255 -71 19 -5 58 -16 85 -25 28 -9 102 -30 165 -47 63 -16
138 -36 165 -44 28 -7 88 -23 135 -35 47 -12 125 -32 174 -46 58 -16 104 -23
129 -20 50 7 124 56 217 145 40 39 75 70 77 68 2 -2 0 -14 -5 -27 -6 -13 -17
-60 -27 -104 -9 -44 -23 -108 -31 -142 -8 -36 -14 -118 -14 -195 -1 -96 -5
-140 -15 -158 -20 -35 -19 -159 1 -207 31 -70 57 -118 105 -186 28 -40 50 -85
54 -108 4 -22 13 -53 21 -67 8 -15 14 -34 14 -42 0 -9 4 -20 8 -25 4 -6 18
-35 30 -65 54 -135 161 -310 261 -427 53 -62 77 -81 135 -108 39 -18 79 -36
89 -39 18 -6 22 -23 9 -42 -10 -15 -135 -74 -158 -74 -24 -1 -121 -68 -146
-101 -39 -52 -61 -245 -39 -343 6 -28 34 -56 46 -45 3 4 6 75 8 160 2 152 2
154 31 194 27 38 82 75 110 75 8 0 39 11 70 25 82 36 86 35 79 -24 -4 -35 -1
-62 11 -92 33 -82 96 -141 117 -108 5 8 51 18 126 26 141 15 182 22 208 33 55
24 97 32 108 21 6 -6 19 -11 28 -11 9 0 22 -7 29 -15 22 -26 48 -16 84 33 20
26 42 54 51 63 8 9 15 23 15 31 0 9 7 21 15 28 10 8 15 30 15 61 0 26 4 50 9
53 5 4 12 28 16 55 4 27 14 56 23 64 19 17 157 33 166 19 3 -5 -8 -22 -25 -38
-49 -47 -73 -92 -59 -109 17 -20 44 -4 76 45 40 60 79 80 158 80 97 0 135 -27
182 -128 56 -122 71 -147 85 -147 32 0 21 64 -27 161 -78 156 -114 174 -367
181 l-178 6 -31 29 -30 28 43 39 c46 40 64 43 72 10 9 -35 37 -20 129 71 50
50 92 90 94 90 1 0 12 -16 24 -35 15 -24 29 -35 46 -35 24 0 24 1 25 103 1 56
4 113 8 127 10 35 39 38 47 5 5 -19 12 -25 28 -23 19 3 21 9 19 73 -1 39 -3
84 -5 100 -2 25 0 30 19 30 37 1 46 18 23 47 -31 40 -27 120 9 201 25 56 30
84 40 216 6 83 11 221 11 306 0 108 4 156 12 161 7 4 16 0 22 -11 25 -42 78
-93 116 -110 l40 -18 44 31 c24 18 49 32 55 32 18 0 34 -43 42 -115 27 -250
40 -304 84 -350 47 -51 94 -59 254 -45 75 7 154 14 176 16 22 1 60 8 85 14 25
6 67 13 94 16 27 3 57 9 65 13 9 5 48 10 86 12 l70 4 0 -29 c0 -25 -6 -31 -40
-43 -22 -8 -65 -16 -95 -18 -65 -4 -121 -15 -136 -26 -6 -5 -22 -9 -35 -8 -29
1 -113 -15 -152 -30 -16 -6 -46 -11 -67 -11 -22 0 -62 -5 -89 -11 -42 -9 -59
-20 -101 -66 -27 -30 -50 -58 -50 -62 0 -5 13 -27 30 -49 16 -23 30 -51 30
-63 0 -22 -43 -67 -89 -95 -32 -20 -106 -118 -152 -204 -21 -38 -45 -106 -59
-164 -39 -168 -19 -372 50 -496 11 -19 26 -48 34 -65 26 -53 123 -156 168
-178 24 -11 50 -26 58 -33 8 -6 37 -19 64 -28 26 -9 57 -21 68 -27 27 -14 184
-18 279 -7 49 5 94 17 124 34 46 24 75 26 75 4 0 -5 -21 -20 -47 -32 -27 -12
-60 -31 -75 -41 -30 -22 -70 -32 -218 -53 -162 -23 -207 -14 -387 78 -104 53
-135 57 -191 29 -30 -16 -152 -136 -204 -202 -49 -62 -253 -220 -350 -270 -15
-8 -58 -31 -96 -51 -70 -38 -257 -104 -387 -138 -106 -28 -337 -53 -435 -47
-124 8 -260 28 -297 43 -17 8 -39 14 -48 14 -9 0 -44 11 -78 24 -34 14 -84 32
-112 42 -108 36 -391 193 -430 238 -5 7 -19 18 -31 26 -12 8 -58 49 -103 90
-110 100 -157 130 -203 130 -33 0 -42 -6 -78 -51 -57 -72 -73 -150 -91 -449
-5 -91 -12 -172 -16 -180 -3 -8 -11 -67 -18 -130 -8 -63 -20 -176 -29 -250 -9
-74 -19 -169 -22 -210 -14 -179 -52 -514 -63 -563 -15 -61 -26 -68 -96 -64
-35 3 -69 8 -76 13 -12 7 -103 24 -224 41 -22 3 -44 9 -50 13 -5 4 -28 10 -50
14 -61 10 -155 39 -155 47 0 9 333 2 362 -7 25 -8 79 19 120 60 29 30 39 52
52 108 9 39 16 87 16 107 0 20 7 77 14 126 14 88 36 254 42 325 6 79 26 217
34 250 6 19 10 59 10 89 0 29 4 70 9 90 6 20 17 97 26 171 15 130 21 183 44
390 6 52 15 129 21 170 5 41 15 118 21 170 11 97 31 259 49 385 26 190 56 432
70 575 5 47 20 164 34 260 14 97 28 209 30 250 3 41 10 95 16 120 7 25 12 88
13 141 2 87 0 99 -23 131 -25 38 -114 98 -143 98 -10 0 -25 4 -35 9 -21 11
-156 54 -240 77 -34 9 -65 21 -68 25 -3 5 -16 9 -29 9 -14 0 -42 6 -62 14 -21
7 -72 23 -113 35 -41 12 -96 28 -121 36 -25 8 -77 17 -115 21 -65 6 -72 5
-100 -19 -50 -42 -86 -120 -91 -196 -2 -36 -7 -77 -10 -91 l-6 -25 -9 30 c-9
28 -14 116 -18 320 -1 50 3 103 9 119 11 28 13 28 69 22 31 -3 75 -9 97 -12z
m61 -219 c31 -14 67 -25 79 -25 12 0 28 -6 34 -14 6 -8 26 -16 44 -19 52 -9
142 -33 165 -46 11 -6 31 -11 44 -11 13 0 29 -5 35 -11 6 -6 29 -15 50 -19 21
-5 70 -18 108 -30 39 -11 84 -25 100 -30 17 -4 44 -13 60 -19 32 -11 92 -26
139 -36 23 -5 27 -10 22 -28 -4 -12 -9 -53 -12 -92 -3 -38 -10 -82 -15 -96 -6
-14 -14 -70 -19 -125 -18 -196 -41 -390 -50 -418 -6 -16 -10 -57 -10 -92 0
-34 -5 -75 -11 -91 -6 -15 -14 -68 -19 -118 -18 -200 -40 -385 -49 -426 -6
-24 -11 -67 -11 -94 0 -28 -5 -66 -11 -85 -6 -19 -14 -75 -19 -125 -13 -154
-48 -433 -72 -580 -6 -38 -15 -106 -18 -150 -17 -188 -40 -379 -50 -413 -5
-21 -10 -62 -10 -92 0 -30 -5 -71 -11 -90 -6 -19 -14 -75 -19 -125 -13 -144
-39 -368 -46 -395 -4 -14 -10 -63 -13 -109 -7 -94 -22 -118 -62 -93 -12 8 -67
18 -123 22 -102 9 -202 19 -421 46 -67 8 -141 14 -165 14 -25 0 -61 5 -80 11
-31 9 -88 15 -330 36 -36 3 -69 8 -73 12 -4 5 -1 21 7 37 28 57 45 100 61 159
9 33 23 85 32 115 8 30 21 67 29 82 8 14 14 34 14 44 0 10 6 36 14 59 8 22 22
67 31 100 9 33 23 73 31 88 8 16 14 41 14 57 0 16 4 31 9 35 5 3 12 20 16 38
8 41 33 123 51 165 8 18 14 43 14 55 0 13 4 27 9 33 9 9 37 102 48 159 3 17
12 39 19 50 8 11 14 31 14 45 0 14 4 30 8 36 5 5 19 47 32 94 13 47 29 97 37
112 21 44 16 64 -19 78 -109 40 -161 62 -210 87 -14 7 -31 13 -37 13 -11 0
-115 46 -173 76 -14 8 -31 14 -37 14 -6 0 -42 14 -79 31 -79 37 -126 58 -167
74 -29 12 -59 25 -137 59 -20 9 -39 16 -42 16 -3 0 -36 14 -73 31 -160 72
-200 89 -207 89 -4 0 -34 13 -69 29 -34 16 -102 46 -152 66 -49 21 -113 48
-142 61 -28 13 -58 24 -66 24 -8 0 -20 7 -27 15 -7 8 -22 15 -34 15 -12 0 -26
4 -32 9 -5 5 -81 39 -169 76 -154 64 -210 88 -247 106 -10 5 -26 9 -37 9 -29
0 -45 25 -31 49 6 12 14 21 19 21 9 0 131 103 206 174 122 116 154 146 215
201 108 97 300 275 384 358 44 42 86 77 93 77 7 0 27 -12 44 -27 17 -16 36
-30 42 -33 7 -3 72 -44 144 -92 73 -49 137 -88 143 -88 5 0 10 -5 10 -10 0 -6
10 -15 23 -20 21 -10 50 -27 71 -43 24 -18 118 -77 123 -77 3 0 22 -13 43 -30
21 -16 41 -30 44 -30 3 0 32 -17 64 -38 31 -21 92 -62 135 -90 43 -29 81 -52
85 -52 4 0 23 -13 42 -30 19 -16 39 -29 44 -30 4 0 28 -13 53 -30 24 -16 47
-30 50 -30 3 0 22 -13 43 -30 21 -16 41 -30 44 -30 3 0 42 -27 87 -60 83 -62
99 -69 99 -47 0 6 2 75 4 152 2 77 8 149 13 160 6 11 12 80 12 153 1 73 6 143
11 155 5 12 14 110 20 217 6 107 15 242 20 300 5 58 9 152 10 211 0 99 8 129
32 129 4 0 33 -11 64 -25z m1919 -265 c13 -20 -7 -59 -36 -69 -16 -5 -29 -14
-29 -20 0 -5 -9 -7 -20 -4 -11 3 -20 7 -20 9 0 7 84 94 91 94 4 0 10 -4 14
-10z m204 -101 c-37 -77 -86 -138 -139 -176 -47 -34 -50 -48 -10 -56 27 -6 29
-9 23 -39 -3 -18 -10 -37 -14 -42 -5 -6 -9 -21 -9 -35 0 -15 -7 -39 -15 -55
-8 -15 -15 -45 -15 -66 0 -69 -11 -101 -31 -95 -27 9 -59 -28 -59 -70 0 -29 6
-39 33 -55 17 -11 43 -20 57 -20 14 0 36 -7 48 -16 14 -10 38 -14 69 -12 39 2
50 7 58 26 10 23 29 29 40 12 10 -15 46 -12 67 7 36 33 10 133 -36 133 -23 0
-26 -14 -10 -44 21 -42 18 -49 -20 -42 -28 5 -34 3 -39 -14 -5 -19 -12 -21
-74 -18 l-68 3 -3 60 c-2 33 3 87 12 120 19 78 45 203 48 235 3 22 9 26 48 30
25 3 55 11 67 18 22 12 103 17 103 6 0 -4 -13 -22 -30 -40 -36 -42 -47 -79
-29 -100 12 -14 28 -15 114 -9 149 10 165 10 222 2 37 -5 55 -4 65 6 7 7 28
22 46 32 39 23 41 49 7 81 -31 29 -32 47 -1 67 13 9 40 33 59 54 20 20 40 34
44 29 4 -4 11 -38 15 -74 11 -105 20 -145 34 -167 8 -11 14 -27 14 -36 0 -9
13 -34 29 -56 19 -26 31 -57 34 -89 3 -27 9 -63 12 -81 6 -27 3 -34 -21 -49
-16 -11 -35 -24 -41 -31 -7 -6 -37 -23 -67 -37 -50 -24 -72 -46 -59 -60 12
-12 34 -5 85 26 59 37 81 57 91 83 6 14 14 16 47 11 29 -5 41 -2 48 9 7 13 12
12 32 -10 l24 -26 -18 -57 c-18 -58 -37 -105 -62 -155 -8 -16 -14 -33 -14 -38
0 -19 -81 -117 -132 -160 -104 -88 -270 -200 -348 -236 -183 -85 -407 -76
-540 22 -87 64 -192 203 -265 350 -22 44 -46 86 -52 93 -7 7 -13 21 -13 31 0
9 -4 21 -8 26 -14 16 -40 95 -52 160 -7 33 -21 75 -33 94 -18 31 -21 53 -24
199 -3 143 -1 167 13 183 10 11 23 19 30 19 18 0 153 68 192 98 23 16 52 26
93 29 53 5 59 4 59 -13 0 -10 -17 -35 -37 -56 -31 -32 -44 -38 -79 -38 -81 0
-142 -28 -183 -85 -36 -50 -33 -63 16 -101 32 -24 41 -26 101 -21 41 3 86 0
119 -9 30 -8 76 -14 102 -14 43 0 50 3 55 24 8 33 -4 87 -20 93 -8 3 -14 10
-14 15 0 15 -42 47 -62 48 -44 1 -20 35 57 80 22 13 83 59 135 102 110 91 128
88 79 -13z m-3748 -21 c17 -13 47 -37 67 -54 20 -17 47 -34 60 -38 25 -8 30
-26 6 -26 -19 0 -74 31 -74 42 0 42 -213 -78 -295 -167 -11 -12 -56 -54 -100
-94 -44 -41 -107 -99 -140 -130 -34 -31 -108 -99 -165 -151 -247 -225 -312
-298 -326 -367 -5 -25 0 -37 26 -66 29 -33 169 -127 189 -127 11 0 69 -26 106
-49 17 -9 52 -23 79 -30 27 -7 60 -21 74 -32 14 -10 29 -19 34 -19 11 0 84
-32 150 -66 26 -13 54 -24 62 -24 7 0 19 -7 26 -15 23 -27 -17 -29 -73 -2 -28
13 -74 30 -102 37 -27 7 -61 19 -75 25 -14 7 -63 25 -110 40 -47 14 -110 37
-140 50 -71 30 -206 75 -245 82 -16 3 -39 12 -50 18 -11 7 -44 21 -74 30 -29
10 -62 26 -72 36 -18 18 -18 20 11 61 16 24 55 68 87 99 107 104 198 194 260
259 34 36 94 94 134 130 39 36 97 92 128 125 31 33 82 84 115 115 32 30 120
117 196 193 120 120 141 137 169 137 19 0 46 -10 62 -22z m4191 -4 c4 -3 0
-17 -8 -32 -8 -15 -14 -32 -14 -38 0 -26 -42 -54 -80 -54 -42 0 -70 8 -70 20
0 5 20 20 45 34 24 15 52 38 62 51 17 22 52 33 65 19z m-3942 -164 c0 -6 -6
-10 -12 -10 -22 0 -41 17 -34 29 8 13 46 -3 46 -19z m3056 -25 c1 -28 -1 -58
-3 -67 -10 -40 -93 -7 -93 37 0 30 54 88 77 83 14 -3 18 -14 19 -53z m774 26
c0 -9 -41 -23 -48 -16 -2 2 -1 8 3 14 8 13 45 15 45 2z m-98 -27 c-4 -25 -4
-33 4 -71 l6 -33 -61 0 c-60 0 -61 0 -61 28 0 26 14 47 52 78 35 28 65 27 60
-2z m233 0 c34 -22 34 -66 -1 -89 -39 -25 -54 -13 -54 43 0 67 10 75 55 46z
m-3892 -5 c12 -7 26 -18 30 -25 4 -8 14 -14 21 -14 7 0 23 -11 36 -25 l23 -25
-26 0 c-17 0 -32 9 -43 25 -9 14 -24 25 -33 25 -10 0 -28 11 -41 25 -20 21
-21 25 -6 25 9 0 27 -5 39 -11z m3204 -13 c24 -21 26 -27 18 -52 -8 -23 -17
-30 -43 -32 -31 -3 -32 -2 -32 37 0 44 8 71 21 71 4 0 20 -11 36 -24z m-3039
-92 c13 -4 22 -14 22 -25 0 -26 -19 -24 -55 6 -26 21 -27 24 -10 25 11 0 30
-3 43 -6z m124 -74 c16 -16 37 -30 46 -30 10 0 40 -16 67 -35 28 -19 61 -39
75 -45 46 -21 275 -163 283 -177 4 -7 18 -13 30 -13 12 0 41 -11 64 -24 50
-29 127 -44 137 -27 4 6 15 11 25 11 31 0 37 -111 8 -148 -14 -18 -65 -6 -100
24 -16 13 -33 24 -39 24 -14 0 -142 86 -177 119 -14 13 -44 32 -66 42 -22 10
-48 27 -57 38 -10 12 -26 21 -37 21 -10 0 -24 7 -31 15 -7 8 -37 29 -66 46
-30 17 -54 35 -54 40 0 5 -15 15 -34 23 -18 8 -40 23 -47 33 -8 11 -26 23 -40
26 -36 9 -74 41 -65 55 13 21 47 13 78 -18z m4037 -161 c45 -44 61 -44 61 2 0
62 62 15 64 -48 l1 -38 -47 -3 c-28 -2 -48 1 -48 7 0 6 -16 13 -36 17 -43 8
-68 41 -58 78 3 14 10 26 14 26 5 0 27 -18 49 -41z m-1089 -59 c0 -11 -2 -20
-4 -20 -2 0 -11 -3 -20 -6 -11 -4 -16 0 -16 14 0 18 11 29 33 31 4 1 7 -8 7
-19z m1290 -94 c32 -48 35 -57 21 -84 -5 -9 -13 -35 -18 -57 -7 -37 -10 -40
-43 -40 -30 0 -36 -4 -38 -25 -6 -38 -114 -170 -139 -170 -7 0 -13 11 -13 25
0 34 -20 31 -56 -7 -29 -31 -113 -83 -120 -75 -2 2 17 26 42 53 59 64 134 160
134 172 0 6 7 23 14 39 20 39 46 127 46 156 0 32 16 45 65 50 22 2 48 4 57 5
10 1 30 -16 48 -42z m1305 20 c149 -64 245 -139 310 -241 135 -211 123 -474
-30 -675 -40 -52 -125 -131 -170 -157 -131 -76 -235 -107 -360 -107 -96 0
-160 18 -240 69 -161 102 -250 246 -270 440 -9 87 -9 85 3 170 27 192 138 366
288 451 33 19 67 34 73 34 7 0 27 7 44 15 18 8 52 15 77 17 89 6 246 -3 275
-16z m-1720 -563 c40 -44 40 -42 20 -79 -8 -16 -15 -39 -15 -50 0 -12 -7 -27
-15 -34 -8 -7 -15 -22 -15 -34 0 -12 -7 -31 -15 -42 -8 -10 -15 -31 -15 -45 0
-15 -6 -32 -14 -38 -7 -6 -16 -24 -20 -39 -3 -15 -14 -37 -23 -49 l-18 -22
-52 39 c-28 22 -58 40 -66 40 -23 0 -77 31 -77 44 0 6 21 25 47 42 93 57 237
217 215 238 -3 3 -15 3 -28 0 -19 -5 -23 -1 -29 26 -14 65 62 66 120 3z m-167
-60 c3 -26 -2 -35 -25 -50 -113 -73 -203 -183 -203 -249 0 -32 -32 -84 -51
-84 -23 0 -36 19 -43 66 -5 25 -19 54 -37 74 -27 29 -29 36 -20 57 8 17 8 30
1 43 -13 24 2 33 85 50 54 12 173 60 199 81 72 59 89 61 94 12z m-514 -141 c6
-21 29 -51 63 -80 29 -25 53 -53 53 -61 0 -9 -19 -34 -41 -56 -23 -22 -45 -51
-50 -64 l-10 -24 -24 23 c-14 13 -25 35 -25 49 -1 14 -7 37 -15 51 -18 32 -20
171 -3 188 20 20 42 9 52 -26z m-3884 -12 c8 -5 11 -12 8 -16 -10 -9 -58 4
-58 16 0 13 30 13 50 0z m4290 -165 c0 -18 -7 -28 -25 -35 -14 -5 -25 -14 -25
-20 0 -13 -47 -13 -55 0 -3 6 1 17 9 26 9 8 16 21 16 29 0 16 15 23 53 24 22
1 27 -3 27 -24z m-262 -27 c30 -30 4 -73 -34 -56 -28 13 -31 36 -6 54 21 17
25 17 40 2z"/>
<path d="M5879 5832 c-40 -41 -55 -72 -36 -72 16 0 107 84 107 99 0 23 -36 9
-71 -27z"/>
<path d="M5887 5722 c-10 -10 -17 -23 -17 -29 0 -6 -7 -13 -15 -17 -9 -3 -15
-18 -15 -36 0 -17 -7 -42 -16 -55 -13 -20 -15 -35 -7 -82 l9 -58 8 74 c4 41
14 80 22 88 8 8 14 23 14 34 0 11 11 35 25 53 14 18 25 36 25 39 0 13 -17 7
-33 -11z"/>
<path d="M5306 5684 c-3 -9 -6 -27 -6 -42 0 -34 17 -17 26 26 7 33 -9 46 -20
16z"/>
<path d="M5000 5647 c0 -12 -30 -53 -72 -98 -10 -11 -18 -26 -18 -35 0 -8 -7
-22 -15 -30 -8 -9 -15 -27 -15 -42 0 -15 -7 -36 -15 -46 -16 -21 -21 -96 -6
-96 10 0 21 35 21 71 0 15 7 32 15 39 8 7 15 28 15 46 0 19 4 34 9 34 5 0 13
12 19 28 5 15 30 50 56 78 25 29 46 55 46 58 0 3 -9 6 -20 6 -11 0 -20 -6 -20
-13z"/>
<path d="M5367 5543 c-6 -106 -4 -134 7 -122 7 7 12 239 5 239 -3 0 -9 -53
-12 -117z"/>
<path d="M5276 5588 c-9 -35 -7 -68 4 -68 6 0 10 20 10 45 0 50 -4 57 -14 23z"/>
<path d="M6089 5448 c0 -13 -3 -65 -5 -116 -4 -66 -2 -93 6 -90 14 4 24 228
10 228 -6 0 -10 -10 -11 -22z"/>
<path d="M5043 5438 c-5 -7 -17 -31 -27 -53 -11 -22 -25 -52 -33 -67 -7 -14
-13 -37 -13 -51 0 -13 -7 -30 -15 -37 -8 -7 -15 -18 -15 -25 0 -18 -30 -73
-57 -103 -22 -24 -31 -52 -15 -52 15 1 38 26 57 65 11 22 26 46 33 53 6 7 12
21 12 31 0 9 7 26 15 37 8 10 15 31 15 46 0 26 27 87 43 99 14 10 35 57 29 63
-9 9 -19 7 -29 -6z"/>
<path d="M5545 5406 c-8 -41 -4 -70 10 -68 13 2 19 102 6 102 -6 0 -13 -15
-16 -34z"/>
<path d="M6297 5403 c-4 -3 -7 -16 -7 -29 0 -12 -7 -35 -15 -50 -16 -31 -21
-164 -6 -164 4 0 12 32 16 72 3 40 12 84 19 98 22 43 28 80 13 80 -8 0 -17 -3
-20 -7z"/>
<path d="M5790 5315 c0 -8 5 -15 10 -15 6 0 10 7 10 15 0 8 -4 15 -10 15 -5 0
-10 -7 -10 -15z"/>
<path d="M5187 5313 c-4 -3 -7 -21 -7 -38 0 -18 -7 -38 -15 -45 -18 -15 -20
-53 -2 -48 6 3 14 15 15 28 2 13 10 30 18 37 8 8 14 28 14 44 0 28 -9 37 -23
22z"/>
<path d="M4830 5248 c0 -25 3 -29 10 -18 13 20 13 50 0 50 -5 0 -10 -15 -10
-32z"/>
<path d="M5786 5226 c-7 -28 2 -58 15 -50 12 7 12 61 0 68 -5 3 -12 -5 -15
-18z"/>
<path d="M6507 5223 c-9 -8 -9 -150 -1 -192 13 -65 24 -27 24 84 0 105 -5 127
-23 108z"/>
<path d="M5684 5115 c-23 -49 -15 -68 17 -39 18 17 28 84 12 84 -5 0 -17 -20
-29 -45z"/>
<path d="M6254 5105 c3 -11 8 -57 12 -102 5 -62 11 -86 25 -99 19 -17 27 -7
10 12 -6 5 -13 45 -17 89 -4 44 -13 89 -21 100 -15 20 -15 20 -9 0z"/>
<path d="M6182 4878 c-1 -54 1 -98 6 -98 4 0 6 30 4 67 -5 119 -9 131 -10 31z"/>
<path d="M6543 4925 c0 -27 2 -38 4 -22 2 15 2 37 0 50 -2 12 -4 0 -4 -28z"/>
<path d="M6601 4870 c-1 -3 -5 -48 -8 -100 -3 -52 -10 -98 -15 -101 -6 -4 -8
-13 -6 -20 3 -9 10 -5 22 13 13 21 16 44 13 119 -1 52 -4 92 -6 89z"/>
<path d="M6200 4745 c0 -9 6 -29 14 -43 8 -15 17 -35 20 -44 3 -10 10 -18 16
-18 15 0 12 36 -4 53 -8 7 -16 24 -18 37 -4 27 -28 40 -28 15z"/>
<path d="M6644 3193 c-123 -110 -173 -153 -180 -153 -5 -1 -22 -12 -39 -25
-23 -19 -26 -25 -12 -25 10 0 20 7 23 15 4 8 12 15 19 15 25 0 75 32 135 88
34 31 69 61 76 65 15 9 19 37 6 37 -5 0 -17 -8 -28 -17z"/>
<path d="M5080 3085 c-8 -10 -10 -39 -5 -102 9 -132 13 -143 40 -143 l24 0 -6
113 c-7 137 -20 171 -53 132z"/>
<path d="M5485 3090 c3 -5 19 -10 35 -10 16 0 32 5 35 10 4 6 -10 10 -35 10
-25 0 -39 -4 -35 -10z"/>
<path d="M6289 3057 c-15 -33 5 -107 29 -107 37 0 42 12 29 70 -14 62 -39 78
-58 37z"/>
<path d="M6226 2905 c-3 -8 -14 -15 -24 -15 -10 0 -23 -5 -29 -11 -6 -6 -26
-14 -44 -18 -48 -10 -50 -31 -2 -25 39 6 103 34 103 45 0 4 9 9 20 12 11 3 20
10 20 16 0 17 -37 13 -44 -4z"/>
<path d="M5160 2820 c0 -5 9 -10 21 -10 11 0 17 5 14 10 -3 6 -13 10 -21 10
-8 0 -14 -4 -14 -10z"/>
<path d="M5985 2815 c-16 -8 -42 -14 -57 -15 -36 0 -44 -16 -11 -23 27 -5 140
26 157 43 15 15 -54 11 -89 -5z"/>
<path d="M5215 2792 c12 -12 119 -33 195 -39 75 -6 55 12 -30 27 -98 18 -177
23 -165 12z"/>
<path d="M5475 2760 c-4 -6 43 -10 121 -10 70 0 125 2 122 5 -10 11 -237 14
-243 5z"/>
<path d="M5740 2760 c0 -6 28 -10 64 -10 36 0 68 5 71 10 4 6 -20 10 -64 10
-41 0 -71 -4 -71 -10z"/>
<path d="M4917 4514 c-16 -17 10 -24 89 -24 64 0 85 3 82 13 -5 13 -158 23
-171 11z"/>
<path d="M5595 4511 c-11 -18 46 -51 89 -51 54 0 86 9 86 24 0 9 -17 11 -58 8
-45 -3 -61 0 -71 12 -15 18 -37 21 -46 7z"/>
<path d="M5267 4050 c-52 -16 -68 -46 -65 -127 3 -60 7 -76 27 -97 22 -23 33
-26 90 -26 96 0 157 45 167 122 6 43 4 49 -30 84 -46 47 -120 65 -189 44z
m113 -36 c38 -8 64 -49 40 -64 -17 -10 -150 -7 -168 4 -20 12 -14 46 11 56 27
11 73 12 117 4z"/>
<path d="M5260 3749 c0 -32 82 -53 108 -27 24 24 12 33 -48 34 -33 0 -60 -3
-60 -7z"/>
</g>
</svg>
